<?xml version="1.0" encoding="UTF-8"?>
<svg id="Layer_1" xmlns="http://www.w3.org/2000/svg" version="1.1" viewBox="0 0 199.5 319.3">
  <!-- Generator: Adobe Illustrator 30.2.1, SVG Export Plug-In . SVG Version: 2.1.1 Build 1)  -->
  <path fill="#fb793c" d="M178.4,319.3l.9-.5h0c.2,0,.3,0,.5-.2h.7l2.2.5.2-.3c0-.2.2-.3.3-.5l1.5-1.5v-1.9c.1,0-.6-.8-.6-.8l-1.6-.5c-.3,0-.6-.3-.8-.5l-1.6-1.8c-.3-.4-.5-.8-.4-1.3v-.5l1-2.8-.6-2.8v-.7l.6-3.1c.1-.7.7-1.3,1.4-1.4l1.6-.3,2.5-2.6,1.8-5.2v-5.6c0-.5.3-1,.7-1.3l3-2.5.8-1.6c.2-.4.5-.7.9-.8l3.6-1.5,2.5-1.5-4.4-4.3c-.3-.3-.5-.6-.5-1v-.4l.2-2-1.6-5.8-.5-.2c-.4-.2-.7-.5-.8-.9l-1.5-3.7c-.1-.3-.2-.6-.1-.9l.3-3-11.4-14.7-7-9.4-12.4-18.1-24.4-32.9-14-19.8-13.3-18-9.1-11.9-12.8-18.3c-.3-.4-.4-.9-.3-1.4l3.8-18.1,5.2-21.9,2.4-10.5,4.8-22,3.1-14.7-15.5-3.4-11.5-2.4-17.4-4.4-11.3-2.8-17.4-4.4L16.2,0l-.9,3c0,.2-.2.4-.3.6l-.4.5.9.9c.3.3.5.7.5,1.1l.4,4.1v.4l-.6,5.1c0,.2,0,.3-.1.5l-3.2,7.2c-.2.3-.4.6-.7.8l-.4.2.3,3c0,.4,0,.7-.2,1l-4.9,8.8c-.4.8-1.4,1.1-2.2.7L.4,42.9l.3,3.4c0,.3,0,.7-.2.9l-.5.3,3.7,5.2c0,.1,0,.2.2.4l3.8,9.8c0,.2,0,.4,0,.6l.2,4.5v.4l-.8,4.5c0,.2,0,.5-.3.7l-1.6,2.3-.8,2.4.7,9.8c0,.4,0,.9-.4,1.2l-.8,1,.8,2.5,3.2,5.9,3,6.3,2,2.4c.1.1.2.3.3.5l2.3,6.1c0,.3.1.5.1.8l-.4,3.7c0,.3-.1.5-.3.7l-.6,1s.1.1.2.2l1.9,2c.1.1.2.3.3.4l1.3,2.5h.5c.4.1.8.4,1.1.7l.7.9,1.8-5.4c.2-.5.6-.9,1.1-1.1l2.3-.8c.7-.2,1.5,0,1.9.6l2,2.7,2.2.8,1.2-1.2c.4-.4.9-.5,1.4-.5s1,.4,1.3.8l1.4,2.2c.3.5.4,1.1,0,1.6-.2.5-.7.9-1.3,1l-4.3.8c-.6.1-1.2-.1-1.6-.6l-.8-.9-1.9.6,1,3c.2.6,0,1.2-.3,1.7l-.2.2.5.6s.1.2.2.3l1.5,2.7c.2.3.3.7.2,1.1l-.4,2.7c0,.3-.2.6-.4.8l-1.4,1.7c-.3.4-.9.7-1.5.7s-1.1-.3-1.4-.8l-1.2-1.9-1.9-1.4c-.5-.4-.7-.9-.7-1.5v-.4l-.6,1.2.3.3c.4.3.6.8.6,1.2l.2,4.5v.4l-.9,4.3,3.7,7,1.1.6h2.5c.5,0,1,.2,1.3.6l1.6,1.8c.2.2.4.5.4.8l.8,4.3v.9l-1.2,3.3c0,.2-.2.5-.4.6l-2,1.9c-.4.4-1,.6-1.6.5l-.5,1.7-.2,4.8.5,1.6,2,1.9c.1,0,.2.2.3.3l1.9,2.9c.1.2.2.4.2.6l.6,2.7,1.3,1c.5.4.7.9.7,1.5l-.2,2.8,1.8,3.1c0,.2.2.3.2.5l.8,3.3,1.6,1.2c.2.2.4.4.5.6l2.6,5.4,1.4.7c.3.2.6.4.7.7l.8,1.4c.3.5.3,1,0,1.5l-1.4,3.5,1.3,1.6,3.1,2c.5.3.8.9.8,1.5v2c0,.3,0,.5-.2.8l-2,3.9.6,1.2c.2.4.2.9,0,1.3l-.8,2.4.4,1.2c.2.5,0,1.1-.2,1.5l-1.3,2,1.9,1.6c.3.3.5.6.6,1l.2.9,7.4,1.2h.3l2.9,1c.2,0,.4.2.6.3l2.4,2.1,2.9.7h2.7c.3,0,.6.1.9.3l3.7,2.4c0,0,.3.2.4.3l3.7,4.3c.2.2.3.5.4.9l.4,2.9,5.9,3.9,3.1,1.6,5.7.6c.5,0,1,.3,1.3.8l1.9,2.9c0,.2.2.4.3.7l.6,3.7v.8l-.5,1.5h0l.7-.5c.5-.4,1.2-.5,1.8-.2l3.9,2c.2.1.5.3.6.5l2.2,3,4.2,4,.2.2,5.6,7.3c0,.1.2.2.2.3l3.5,7.6c0,.2,0,.4.2.6l.3,7c0,.4,0,.9-.4,1.2l-.8.9v2.4l1.4,1c.4.3.7.8.7,1.3v3c0,0,14,1.3,14,1.3l18.7,1.7,26.9,1.7h0l.5.3Z"/>
</svg>