<?xml version="1.0" encoding="UTF-8"?>
<svg id="Layer_1" xmlns="http://www.w3.org/2000/svg" version="1.1" viewBox="0 0 69.4 37.9">
  <!-- Generator: Adobe Illustrator 30.2.1, SVG Export Plug-In . SVG Version: 2.1.1 Build 1)  -->
  <path fill="#fb793c" d="M67.4,28.9l-2.5-.8c-.5-.1-.8-.5-1-.9l-1.4-2.7-.9.2c-.9.2-1.8-.4-2-1.3l-.8-3.4-3.4-2.9-3.5.6h-.7l-1.8-.4c-.8-.2-1.4-1-1.3-1.8l.2-3.3c0-.3,0-.6.3-.8l1.6-2.4-.3-.4c-.4-.7-.3-1.6.4-2.2l1.3-1.1s0,0-.2-.1l-1.7-1.4c-.3-.2-.5-.5-.6-.8l-1-3h-.2l-6.2,7.6c-.2.3-.5.5-.9.6l-25,6.9h0L0,19.7l.6,18.2,14.4-4.1,20.7-6.1c.5-.1,1,0,1.4.2l7.7-2.8c.5-.2,1-.1,1.4.1.4.2.8.7.9,1.1h0l.2.7.5,2.3,1.5,2.3,3.5,1.8h1.5c.7,0,1.4.5,1.6,1.2l.8,2.6.9-.8-.2-.6c-.2-.7,0-1.4.5-1.9l2.4-2,1.8-2.7c.4-.5,1-.8,1.7-.7.7,0,1.2.6,1.4,1.2l1.1,3.3.5-.5,1-2.1c.2-.3.4-.6.8-.8l.8-.4h-2.1v-.3Z"/>
</svg>