<?xml version="1.0" encoding="UTF-8"?>
<svg id="Layer_1" xmlns="http://www.w3.org/2000/svg" version="1.1" viewBox="0 0 1250 765">
  <!-- Generator: Adobe Illustrator 30.2.1, SVG Export Plug-In . SVG Version: 2.1.1 Build 1)  -->
  <defs>
    <style>
      .st0 {
        fill: #e1e1e1;
      }
    </style>
  </defs>
  <path class="st0" d="M1211.2,176.3l-2.5-.8c-.5-.1-.8-.5-1-.9l-1.4-2.7-.9.2c-.9.2-1.8-.4-2-1.3l-.8-3.4-3.4-2.9-3.5.6h-.7l-1.8-.4c-.8-.2-1.4-1-1.3-1.8l.2-3.3c0-.3,0-.6.3-.8l1.6-2.4-.3-.4c-.4-.7-.3-1.6.4-2.2l1.3-1.1h-.2c0-.1-1.7-1.5-1.7-1.5-.3-.2-.5-.5-.6-.8l-1-3h-.2l-6.2,7.6c-.2.3-.5.5-.9.6l-25,6.9h0l-15.8,4.6.6,18.2,14.4-4.1,20.7-6.1c.5-.1,1,0,1.4.2l7.7-2.8c.5-.2,1-.1,1.4.1.4.2.8.7.9,1.1h0l.2.7.5,2.3,1.5,2.3,3.5,1.8h1.5c.7,0,1.4.5,1.6,1.2l.8,2.6.9-.8-.2-.6c-.2-.7,0-1.4.5-1.9l2.4-2,1.8-2.7c.4-.5,1-.8,1.7-.7.7,0,1.2.6,1.4,1.2l1.1,3.3.5-.5,1-2.1c.2-.3.4-.6.8-.8l.8-.4h-2.1v-.3h0ZM615.2,71.9l-.9,3.5.7,2.9v7.9l3.3,10.2,1.7,4.2v.2l1.5,5.7v7.2l.3,3,.4,5,.9,3.8v.3l.3,6.6.6,1c0,.2.2.3.2.5l.9,4.5,2.4,3c.2.2.3.5.4.8l1.1,6.4v.2l.3,4.9v.8l-1.8,5.5c0,.3-.3.6-.5.8l-3.8,3.3,3.1,4.7,2,.3c.4,0,.8.3,1,.5l2.5,2.7c.3.3.4.7.5,1.1l.8,21.5.7,13.1.4,18.5,12.8-.8,21.1-1,21.7-1.2,42.9-3.6,12.5-.9-.6-6.2-1.3-4-2.6-2.1-2.1-1.1h-2.1c-.2.2-.4.1-.6,0-.2,0-.4-.2-.5-.3l-.8-.6-3.5-2.6c-.2-.1-.3-.3-.4-.5l-2.5-4.1-2.9-2.3-3.6-.5c-.2,0-.3,0-.5-.2h-.2s-.2-.1-.2-.2l-2.5-2.5-3.5-.5s-.3,0-.4-.1h0s-.2,0-.2-.1h0l-5.2-4.1c-.5-.4-.7-1-.7-1.6l.6-4.7-1.1-4.2c-.2-.6,0-1.2.5-1.7l.3-.3-.4-1.8v-.5l.2-3.3v-.4l1.1-3.8-1.4-1.9-2-.3c-.3,0-.6-.2-.9-.4h0c-.2-.4-.4-.7-.4-1.1l-.4-4.1c0-.5,0-1,.5-1.4l1.6-1.6,1.3-4.2c0-.4.4-.8.8-1l6.6-3.7.7-1-1.2-17.1c0-.8.4-1.5,1.2-1.8l1.1-.4,1.1-2.1v-.6c0-.5.2-1,.6-1.3l5.8-4.8,5.4-5.9,9.2-12.4s0-.2.2-.3l4.5-4.1h0l4.7-3.6s.2,0,.3-.2l8.7-3.8,3.6-2.5h-.2l-1.6-.8c-.2,0-.4-.2-.5-.4l-2-2.2h-1l-7,1.7h-.3l-5.5.2c-.8,0-1.5-.5-1.7-1.2l-.8-2.3h-.2l-2.4,1.6-3.6,3.4s-.3.2-.5.3l-3.1,1.3h-3.6c-.3,0-.5,0-.8-.2l-2.7-1.4c-.3-.2-.6-.4-.7-.7l-1.1-2-3.3-.5c-.6,0-1-.4-1.3-.9l-1.3-2.5h-1l-1.5.5v.8c.3.9-.2,1.7-1,2l-1.8.6c-.8.3-1.6,0-2-.8l-3.1-5.4h-2.5c-.6,0-1.1,0-1.5-.6-.3-.5-.4-1.1-.3-1.6l.4-1.1-2.9-.6c-.2,0-.3,0-.4-.2l-1.6-.8h-4.8l-3.2,1.2-.5.9c-.2.4-.6.8-1.1.9l-5.1,1.3c-.7.2-1.4,0-1.8-.6l-2.2-2.7-6.4-.2c-.4,0-.9-.2-1.2-.5l-1.3-1.3-2.4.5h-.9l-2.1-.6c-.2,0-.5-.2-.7-.4l-2.7-2.4c-.3-.3-.5-.7-.6-1.1l-.4-3-2.4-7.5v-.4l-.3-3.1-2-1h-1.3l.6,8.9c0,.3,0,.6-.2.9l-.4.8c-.3.6-.9.9-1.5,1l-39.4,1.4,2.7,8.2v1l.2.3h0ZM231.5,68.3h0s.1.3.1.4h0v1.8l1.6,2.5h0s.1.2.2.4h0v.3l.4,3.1c0,.6-.2,1.2-.7,1.6h-.2l.7,1.1h0s.2.3.2.4h0v.6h0v.3c0,.4-.3.8-.7,1.1l.4.3c.3.2.5.4.6.7l.9,2.1,2.9,1.9c.2,0,.3.2.4.4h0s.2.3.2.4h0l.6,1.9v.3l6,9.2h0s.1.2.2.4h0v2.2c.1,0,4.6,4,4.6,4,.1,0,.2.2.3.3h0v.4c.1,0,.5,1.1.5,1.1h3.2c.7,0,1.3.2,1.6.8l.8,1.4h0c0,.2.1.3.2.5h0v.4h0v.3l-1.2,3.3-2.2,5.3s-.1.3-.2.4l-1.2,1.6v1.9c.2.2.1.5,0,.7l-1.1,3,.9,1.9v.4h0v3.3c0,.7-.4,1.3-1,1.6l-2.4,1.1-.4.3.6,1.7c.1.4.1.9-.1,1.3l-1,1.9.4.2c.2.1.4.3.5.4l1.3,1.6,3.5-1.4,3.7-2.8c.7-.5,1.7-.4,2.3.3l3.1,3.5c.1.1.2.3.3.5h0v.5l.2,5.5v3c.1,0,3.4,5.3,3.4,5.3,0,0,.1.2.1.3h0l1.1,3.3.3.8c.2.5,0,1.1-.3,1.6l-1,1.3.6,1.4.9,1,2.6.2c.6,0,1.2.4,1.5,1l2.3,5.1h0v.9h0c0,.4-.2.8-.5,1h-.1c0,.1.7,1.5.7,1.5h0v.3h0v.5l-.2,1.7.3.4h1l3-1.7c.4-.3.9-.3,1.4-.2l5.4,1.6.3-.7c.2-.5.7-.8,1.3-.9l2.1-.4h.9l2.7.9h4.6c.4,0,.8.2,1.1.5l.6.5,1.4-.5c.3-.1.7-.1,1,0l2,.5v-.8c.2-.3.3-.5.4-.8l1.6-2.1c.3-.4.8-.7,1.4-.7h2.9c.7,0,1.3.5,1.6,1.1l1.6,4,.3.4,1.4-11.3h0c0-.2,0-.4.2-.5h0c0-.1.2-.3.3-.4h0c.1-.1.3-.2.4-.3h.1c.2,0,.3,0,.5-.1h.3l40.4,4.4,42.1,3.8,18.9,1.3,16.2.9,16.6,1.1,14.4.6.9-26.9,2-46.5.9-15.2,1.3-29.9-14.5-.8-13.4-.5-22.3-1.5-13.1-1.3-17.9-1.3-17.4-1.5-19.5-2.1-16-2.3-17.5-2.1-26.2-3.5-21.9-3.3-22.2-3.5-15.8-2.7-4.5,27.5,2.8,4.9,1.2,1.1h0ZM479.6,152.5l24.5.7,15,.3,29.3.2,19.9.3,19.7-.3,38-1.3-.2-3.2-1-5.9-2.4-3c-.2-.2-.3-.5-.4-.8l-.9-4.6-.6-1.1c0-.2-.2-.5-.2-.8l-.3-6.9-.9-3.7v-.3l-.4-5.1-.4-3v-6.8l-1.4-5.3-1.7-4.2h0l-3.4-10.7v-8.1l-.7-3.1v-.8l.9-3.4-2.8-8.6-14.8.4h-13.3l-22.2.6h-17.6l-14.1-.4h-12.7l-17.8-.8-21.9-.7-1.3,29.9-.9,15.2-2,44.7,9.2.6h-.2,0ZM204.9,77.9l-4.6,24.5-1.1,6.7,1.3,3.3s0,.2.1.4l.4,2.2c0,.5,0,.9-.3,1.3l-1,1.4.9,2.7c0,.2.1.5,0,.7v2.2l.8,1.3,1.1.6c.2,0,.3.2.5.3l2.9,2.9s.1.2.2.3h0c0,.2.1.4.2.5l.8,3.3v.9l-.6,2.1c0,.2-.2.5-.3.6l-5,6-2.3,5.4c0,.2-.2.4-.4.6l-2.6,2.6-.7,3c0,.3-.2.5-.4.7l-2.6,3.1-.4.4-1.8,1.1-2.7,4.5c0,.2-.2.3-.4.4l-2.1,1.7-.7,3.8,2.7,1.1c.2,0,.3.2.5.3h0l.2.2s.1.2.2.2l1.5,2.7c.3.6.3,1.3,0,1.8l-1.5,2.2.3,1c.1.4.1.9-.1,1.3l-3.4,6.8-4.6,25.3-4.9,26,27.3,5.1,12.2,1.8h0l24.9,3.9h0l16.8,2.6,20.5,3.1,27.7,3.5,1.6-12.5,2.1-18.5,2.3-18.9,3-22.6-2.6-2.9c-.1-.1-.2-.3-.3-.5l-1.3-3.2h-.9l-.8,1.1-.3,2.3c0,.5-.3.9-.8,1.2-.4.3-.9.4-1.4.2l-3.4-.9-1.9.6c-.6.2-1.2,0-1.7-.3l-.9-.8h-4.2c-.2,0-.4,0-.5-.1l-2.5-.9-.9.2-.6,1.2c-.4.7-1.2,1.1-2,.9l-6.1-1.8-2.9,1.7c-.3.2-.7.3-1.1.2l-2.3-.2c-.5,0-.9-.3-1.2-.7l-1.2-1.6c-.1-.2-.2-.3-.3-.5h0v-.6l.2-1.9-1-2.1h0v-1c0-.3.2-.7.5-.9h.1c0-.1-1.4-3.1-1.4-3.1h-2.3c-.5-.2-.9-.4-1.2-.7l-1.6-1.8c-.1-.1-.2-.3-.3-.4l-1.2-2.5v-.9h0v-.5h0c0-.1.1-.3.2-.4l1-1.4-1-3.1-3.4-5.5h0c0-.1-.1-.2-.1-.3h0v-.4l-.2-3.5v-4.9c-.1,0-1.8-1.9-1.8-1.9l-2.6,2c-.1,0-.3.2-.4.2l-4.9,1.9c-.7.3-1.5,0-2-.5l-1.9-2.3-1.6-.8c-.4-.2-.7-.6-.8-1h0v-.2h0v-.9h0c0-.1,1.5-3,1.5-3l-.7-2.2c-.2-.7,0-1.5.6-1.9l1.6-1.2s.2-.1.3-.2l1.5-.7v-1.4l-1-2.2v-.2h0v-.5h0v-.5h0l1.3-3.3-.2-2.2c0-.4,0-.8.3-1.2l1.4-2,2.1-5.1.8-2.2h-3.2c-.6,0-1.1,0-1.5-.6h0c0-.2-.1-.3-.2-.5h0l-.3-1-.3-.9-4.7-4.2h0s-.1,0-.2-.2h0s0-.3-.1-.4h0v-.3h0v-2.1c-.1,0-5.9-9-5.9-9h0s-.1-.3-.1-.4l-.4-1.1-.2-.6-2.8-1.8c-.3-.2-.5-.4-.6-.7l-1-2.1-2.1-1.5c-.5-.3-.7-.9-.7-1.4v-.4h0c.1-.4.4-.8.7-1l.6-.4-.6-.8h0s-.2-.3-.2-.4h0v-.6h0v-.4h0c.1-.3.3-.6.6-.8l.8-.6-.2-1.7-1.7-2.6h0s-.1-.3-.2-.4h0v-1.9l-2.8-5.1c0-.2-.2-.3-.2-.5h0v-.6l4.6-28.1-15.9-2.8-5.1,26.4-3.8,19.1-.5-1.3h0ZM59,75.2c0,.6-.5,1-1.1,1.2l-2.4,1,.5.9,4-.3c.7,0,1.3.3,1.6.8l.8,1.3h2c.6,0,1.2.4,1.5.9l2,3.7h1.9l1.8.4h.5s.2,0,.3.2l3.3,3.1c.2.2.4.5.5.8l1.1,4.5v.6l-.8,8.7.4.6,2,.6h.3l4.7,2.8,6.1-.8,4-1.3h.9l4.9,1h.2l5.8,2s.3,0,.4.2h0l.2.2s.2,0,.2.2l1.7,2.3,1.1-.2h.9l2.5.9,4.7-.7,1-.3h1.3l2.4,1.2,4.5.2,2.2-1h.4l4.3-.8h.5l5.4.6,1-.8c.3-.2.7-.4,1.1-.3l5.3.2h.3l4.6,1,1.5-1c.3-.2.5-.3.8-.3h.4l22.6,4.6,18.9,3.7-.2-.7c-.2-.5,0-1.1.3-1.6l1.1-1.5-.2-1.2-1.5-3.5c-.1-.3-.2-.6-.1-1l1.2-7.2,4.6-24.6,3.8-19.1,5.1-26.4-22.7-4.7-21.6-4.6-25.9-5.8-13.2-2.8-17-4.2-9.2-2.6-.4,1.2,1.2,2.9,1.3.4c.7.2,1.2.8,1.3,1.6l.4,6.1c0,.6-.2,1.2-.7,1.5l-1.2.9-1.2,3.1,1.5,1.8c.3.3.4.8.4,1.2l-.4,5.1,2.1,3.7c.2.4.3.9,0,1.4-.2.5-.5.8-1,1l-2.6,1.1-2.2,3.6v1.5c0,.3,0,.5-.2.8l-1,2-.6,5.5.3,1.9c0,.6,0,1.3-.6,1.7l-3.3,2.7c-.5.4-1.3.5-1.9.2h-.3l-.5.5s-.2.2-.3.3l-3.9,2.9c-.4.3-1,.4-1.6.3-.5-.2-1-.6-1.1-1.1l-.3-1.1h-1.2c-.7,0-1.4-.3-1.7-.9l-1-2c-.3-.6-.2-1.2,0-1.8l1.8-2.5c.2-.2.4-.4.7-.6l2-1c.5-.3,1.2-.2,1.7,0,.5.3.8.9.8,1.5v.4l.3-.3c.2,0,.3-.2.5-.3l1.7-.5,1.9-3.7-.8-1.8c0-.3-.2-.5-.2-.8v-1.9s-.2.2-.4.3l-4.1,1.3c-.7.2-1.5,0-1.9-.6s-.5-1.4,0-2l3.5-5.1c.4-.6,1.2-.9,1.9-.7l1.2.3.8-.8v-1.5l-.8-4.6h0l-2.4.3c-.6,0-1.2-.2-1.6-.7l-1.1-1.5-2.1.3h-.8l-6.2-2.2c-.2,0-.3-.1-.5-.2l-1.9-1.4-6.4-2.3c-.3-.1-.5-.3-.7-.5l-2.9-3.3-2.8-1.4c-.2-.1-.4-.3-.6-.5l-2-2.4-.6.2-1.9,3.1v2.3l-.4,5.1,2.1,3.7v.3l.8,2.3v.6l-.2,6.2v.2l-.8,5.1,1.1,4.2v.7l-.8,4.4,1.5.5c.8.3,1.3,1.1,1.2,1.9v.5l1.6,1.5c.5.5.7,1.1.5,1.8-.2.6-.7,1.1-1.4,1.2l-3,.5-.9,1.3,2.3,1.2c.7.4,1.1,1.1.9,1.9l-1.8,8.4v.3l.4.2ZM323.7,523.2l1.9-16.2,1.3-15.9,2.1-21.5,1.7-15.8,1.9-16.2,1.9-19.7-16.7-1.6h-.7l-.9-.2-13.9-1.6-18.9-2.3-18.8-2.7-5.1-.6-6-.7-19.7-3.1-2.6-.4h-.4l-12.9-2-3.4,21.9v.4c0,.1,0,.2-.1.3l-3,4.9c-.3.5-.8.8-1.4.8l-2.5.2c-.6,0-1.2-.2-1.6-.8l-2-3h-1c-.3,0-.5,0-.8-.2l-2.1-1.1-3,.8-.6,1.8,1.3,3.1h0v1.1h0c0,.3-.1.4-.2.5h0l-.8.9v2.1l.5,2.6v.9h0v.2l-1,2.7,1,5v.5l-.4,4.7v.6h0c0,.3-.2.4-.4.6l-1.3,1.1-.5,3.5-.4,3.2,1.1,2.7.6.3c.1,0,.2.1.3.2.3.2.5.5.6.9l1.9,6.8v2.1c-.1,0,4.5,4.5,4.5,4.5.4.4.6,1,.5,1.5l-.2,1.4c0,.5-.4,1-.8,1.2l-3.5,2.1s-.2,0-.2.1l-3.1,1.3-.7,1.4c-.1.2-.3.4-.5.6l-2.7,2.2v5c0,.2,0,.4-.1.6l-2,5.8c0,.2-.2.5-.4.6l-3.1,3.3c-.3.3-.6.4-1,.5l-1,.2-.3,1.6.7,3v1l-.8,2.3.5.6,1.6.5c.3,0,.6.3.8.5l1.5,1.8c.3.3.5.8.4,1.3l-.2,3.3c0,.4-.2.8-.5,1.1l-1.8,1.7-.7,1.3c0,.2-.2.3-.3.4h-.1s-.2.2-.3.3h-1.2l-2.9-.7-.5.3-2.3,2.9-.2,1.1,39,21.7,20,10.7,20.2,10.3,10.5,5.8,1.1.2,49.1,5.6,1-9.4,2.1-21.4,1.5-16.4,1.7-15.8-.3.3h0ZM178.4,525l.9-.5h0c.2,0,.3,0,.5-.2h.7l2.2.5.2-.3c0-.2.2-.3.3-.5l1.5-1.5v-1.9c.1,0-.6-.8-.6-.8l-1.6-.5c-.3,0-.6-.3-.8-.5l-1.6-1.8c-.3-.4-.5-.8-.4-1.3v-.5l1-2.8-.6-2.8v-.7l.6-3.1c.1-.7.7-1.3,1.4-1.4l1.6-.3,2.5-2.6,1.8-5.2v-5.6c0-.5.3-1,.7-1.3l3-2.5.8-1.6c.2-.4.5-.7.9-.8l3.6-1.5,2.5-1.5-4.4-4.3c-.3-.3-.5-.6-.5-1v-.4l.2-2-1.6-5.8-.5-.2c-.4-.2-.7-.5-.8-.9l-1.5-3.7c-.1-.3-.2-.6-.1-.9l.3-3-11.4-14.7-7-9.4-12.4-18.1-24.4-32.9-14-19.8-13.3-18-9.1-11.9-12.8-18.3c-.3-.4-.4-.9-.3-1.4l3.8-18.1,5.2-21.9,2.4-10.5,4.8-22,3.1-14.7-15.5-3.4-11.5-2.4-17.4-4.4-11.3-2.8-17.4-4.4-15.9-4.5-.9,3c0,.2-.2.4-.3.6l-.4.5.9.9c.3.3.5.7.5,1.1l.4,4.1v.4l-.6,5.1c0,.2,0,.3-.1.5l-3.2,7.2c-.2.3-.4.6-.7.8l-.4.2.3,3c0,.4,0,.7-.2,1l-4.9,8.8c-.4.8-1.4,1.1-2.2.7l-4,5,.3,3.4c0,.3,0,.7-.2.9L0,253.2l3.7,5.2c0,.1,0,.2.2.4l3.8,9.8v.6l.2,4.5v.4l-.8,4.5c0,.2,0,.5-.3.7l-1.6,2.3-.8,2.4.7,9.8c0,.4,0,.9-.4,1.2l-.8,1,.8,2.5,3.2,5.9,3,6.3,2,2.4c.1.1.2.3.3.5l2.3,6.1c0,.3.1.5.1.8l-.4,3.7c0,.3-.1.5-.3.7l-.6,1s.1.1.2.2l1.9,2c.1.1.2.3.3.4l1.3,2.5h.5c.4.1.8.4,1.1.7l.7.9,1.8-5.4c.2-.5.6-.9,1.1-1.1l2.3-.8c.7-.2,1.5,0,1.9.6l2,2.7,2.2.8,1.2-1.2c.4-.4.9-.5,1.4-.5s1,.4,1.3.8l1.4,2.2c.3.5.4,1.1,0,1.6-.2.5-.7.9-1.3,1l-4.3.8c-.6.1-1.2-.1-1.6-.6l-.8-.9-1.9.6,1,3c.2.6,0,1.2-.3,1.7l-.2.2.5.6s.1.2.2.3l1.5,2.7c.2.3.3.7.2,1.1l-.4,2.7c0,.3-.2.6-.4.8l-1.4,1.7c-.3.4-.9.7-1.5.7s-1.1-.3-1.4-.8l-1.2-1.9-1.9-1.4c-.5-.4-.7-.9-.7-1.5v-.4l-.6,1.2.3.3c.4.3.6.8.6,1.2l.2,4.5v.4l-.9,4.3,3.7,7,1.1.6h2.5c.5,0,1,.2,1.3.6l1.6,1.8c.2.2.4.5.4.8l.8,4.3v.9l-1.2,3.3c0,.2-.2.5-.4.6l-2,1.9c-.4.4-1,.6-1.6.5l-.5,1.7-.2,4.8.5,1.6,2,1.9c.1,0,.2.2.3.3l1.9,2.9c.1.2.2.4.2.6l.6,2.7,1.3,1c.5.4.7.9.7,1.5l-.2,2.8,1.8,3.1c0,.2.2.3.2.5l.8,3.3,1.6,1.2c.2.2.4.4.5.6l2.6,5.4,1.4.7c.3.2.6.4.7.7l.8,1.4c.3.5.3,1,0,1.5l-1.4,3.5,1.3,1.6,3.1,2c.5.3.8.9.8,1.5v2c0,.3,0,.5-.2.8l-2,3.9.6,1.2c.2.4.2.9,0,1.3l-.8,2.4.4,1.2c.2.5,0,1.1-.2,1.5l-1.3,2,1.9,1.6c.3.3.5.6.6,1l.2.9,7.4,1.2h.3l2.9,1c.2,0,.4.2.6.3l2.4,2.1,2.9.7h2.7c.3,0,.6.1.9.3l3.7,2.4s.3.2.4.3l3.7,4.3c.2.2.3.5.4.9l.4,2.9,5.9,3.9,3.1,1.6,5.7.6c.5,0,1,.3,1.3.8l1.9,2.9c0,.2.2.4.3.7l.6,3.7v.8l-.5,1.5h0l.7-.5c.5-.4,1.2-.5,1.8-.2l3.9,2c.2.1.5.3.6.5l2.2,3,4.2,4,.2.2,5.6,7.3c0,.1.2.2.2.3l3.5,7.6c0,.2,0,.4.2.6l.3,7c0,.4,0,.9-.4,1.2l-.8.9v2.4l1.4,1c.4.3.7.8.7,1.3v3l14,1.3,18.7,1.7,26.9,1.7h0l.5.3h.2ZM372.8,417.9l13.6,1.1,17.9,1.3,27.5,1.7,32,1.6,18.3.5,21.3.9.4-12.7.7-42.7.3-14.1.3-19.9h0c0-.1.7-28.6.7-28.6h-10.5c0,.1-16.5-.4-16.5-.4h0l-17.2-.9h-.2l-24.2-1.1-28.5-1.7-14.5-1.5-14.2-.9-14.5-1.5-16-1.5-1.7,17.4-1.7,18.7-2.7,22.7-1.7,18.7-2.7,26.6-1.1,13.3,11.8,1.3,23,1.9v-.2h.1ZM192.6,428.4h0l1-2.8.2-.5c.2-.5.6-1,1.2-1.1l4.5-1.1c.4-.1.8,0,1.2.1l2.4,1.2h1.5c.6,0,1.1.3,1.4.8l2,2.9h.6l2.3-3.8,3.6-23.1h0c0-.1,2.2-14.1,2.2-14.1l3.5-23.2,4.5-28.1,3.7-23.6,2.6-18.7,6.4-40.4-23.2-3.6-12.3-1.8-29.1-5.5h-.2l-20.3-4-16.4-3.4-16.8-3.6-10.6-2.4-3.1,14.6-4.8,22-2.4,10.5-5.2,21.8-3.7,17.3,12.3,17.6,9.1,11.9,13.4,18.1,14,19.8,24.4,32.9,12.4,18.1,6.9,9.4,9.3,12h0v-.2h0c0-.1,0-.2.1-.3h0c0-.3.2-.4.4-.6l1.2-1.1.3-3.7-1.1-5.2v-.8h0c0-.1,1-2.9,1-2.9l-.5-2.3v-3.3c0-.2,0-.4.1-.6h0c0-.2.1-.3.3-.4l.5-.5-1.1-2.7c0-.2-.1-.4-.1-.6v-.6l.4-.4h0ZM382.6,571.2l18.5,1.1,28.5,1.7,44.3,1.8,1.1-27.5,1-29.9,1.1-25.4.7-16.8.7-25.5.5-9.6v-.7h0c.2-.4.5-.7.8-.8l.4-12.1-16.6-.5-32-1.6-27.5-1.7-18-1.3-13.7-1.1-23-1.9-11.7-1.3-1.9,19.7-1.9,16.2-1.7,15.8-2.1,21.4-1.3,16-1.9,16.3-1.7,15.8-1.5,16.4-2.1,21.5-1,9.2h.1l18,1.5,1.3-11.8c.1-.9,1-1.6,1.9-1.5l27.1,2.5,13,1-1.5-4.7c-.2-.5,0-1.1.3-1.6.4-.5.9-.7,1.5-.7h.3ZM14.6,198.8l1.7,2.9,16.8,4.8,17.3,4.4,11.3,2.8,17.4,4.4,11.4,2.4,17.2,3.8,12.3,2.8,16.7,3.6,16.4,3.4,18.7,3.7,4.9-26,4.6-25.5c0-.2,0-.3.2-.5l3.2-6.4-.4-1.1c-.2-.5,0-1.1.2-1.5l1.4-2-.7-1.2-3.5-1.4c-.2,0-.4-.2-.5-.3h0s-.1,0-.2-.2c-.3-.4-.5-.9-.4-1.4l1-5.9c0-.4.3-.8.6-1l2.3-1.9,2.8-4.6c.1-.2.3-.4.6-.6l1.9-1.2,2.1-2.6.7-3.1c0-.3.2-.6.5-.8l2.7-2.7,2.2-5.3c0-.2.2-.3.3-.4l4.9-5.9.4-1.4-.6-2.4-2.3-2.4-1.3-.7h0c-.2,0-.3-.2-.4-.3h0s-.1,0-.1-.2l-1.4-2.2c-.2-.3-.3-.6-.3-.9v-1.5l-20.4-4-22-4.5-1.6,1c-.4.2-.9.3-1.3.2l-5.1-1.2-4.5-.2-1.1.8c-.3.3-.8.4-1.2.3l-5.8-.6-3.8.7-2.3,1.1c-.2,0-.5.2-.8.2l-5.3-.2c-.2,0-.5,0-.7-.2h0l-.7-.3-1.4-.7-.5.2h-.3l-5.3.7h-.8l-2.5-.9-1.7.3h-1.1s-.2-.2-.3-.2h0l-2-2.7-5.2-1.8-4.3-.9-3.7,1.2h-.3l-6.8.9c-.4,0-.8,0-1.1-.2h0l-.9-.5-4.2-2.5-2.3-.7c-.2,0-.3,0-.5-.2h0l-.2-.2s-.2,0-.3-.2l-1.2-1.6c-.3-.3-.4-.8-.3-1.2l.8-9.1-.9-3.7-2.6-2.5h-.6l-.8.3c-.4.2-.9.3-1.4,0l-2.9-1c-.4,0-.8-.4-1-.8l-1-1.9-1,.5c-.3,0-.6.2-1,0l-5.4-.8v.5l-.6,3.1c0,.6-.6,1.1-1.2,1.3l-.5.2v2.1l-1.3,2.6.6,2.7c0,.5,0,1-.3,1.4l-1.4,1.9-.8,2.3.4.7c.4.7.3,1.5-.3,2.1l-1.4,1.3v1.4l-1.2,4.3v.3l-4.5,8.8-1.8,6.3h0c0,.1-7.7,21.1-7.7,21.1v.2l-7.3,14.4c-.3.6-.9.9-1.6,1h-.8l-3.5,7.7c0,.1-.1.2-.2.3l-3.1,4.3v2.3c-.1,0,1.1,2.3,1.1,2.3.2.4.3.8.2,1.2l-.6,3.1c0,.2,0,.3-.2.5l-.9,1.8-1.3,4.2.2,3.2v.4l-.5,2.5v-.2h-.5ZM231.5,401.4h0l22.2,3.5,11,1.2,18.8,2.7,18.9,2.3,6.2.7,8.6,1,17.3,1.7,1.1-13.3,2.7-26.6,1.7-18.7,2.7-22.7,1.7-18.7,1.7-17.4-35.5-3.6-8.3-1.2c-.9-.1-1.6-1-1.5-1.9l3.3-28.3-27.7-3.5-20.5-3.1-15.1-2.4-6.4,40.4-2.6,18.7-3.7,23.6-4.5,28.1-3.5,23.2-2,12.3,13,1.9h.4,0ZM434.7,182.2l-16.2-.9-18.9-1.3-42.2-3.8-38.7-4.2-.3,2.2-1.4,11.2h0c0,.1-3.1,23.5-3.1,23.5l-2.3,18.9-2.1,18.5-1.8,14.1h0c0,.1-3.3,28.5-3.3,28.5l6.5,1,37.1,3.7h0l17.8,1.7,14.4,1.5,14.2.9,14.5,1.5,28.4,1.7,22.7,1,.8-13.5.7-18.7,1.3-26.6h0l1.1-26.3,1.3-32.8-14.1-.6-16.6-1.1h.2ZM797.9,461.5l1.2-1.7v-1.4c0-.7.4-1.3,1-1.6l.6-.3c-.3-.5-.3-1.1,0-1.7l.4-.8-.8-1.8c-.4-.9,0-1.9.8-2.3l3.6-1.8.4-.5-.7-1.1c-.3-.5-.3-1.1,0-1.6l-13.6,1.9h0c-.5,0-1-.2-1.4-.6-.4-.5-.5-1.1-.3-1.6l.8-2.5c0-.1,0-.3.2-.4l2.6-4.1c.2-.3.4-.5.7-.6l1.4-.7.7-1.4v-1.6l-1.8-2.5-40.8,4.1-46.5,3.8-18.2.9,3.6,19.1,2.5,12.5v.2l.7,13.1.8,26.4.5,12.7,1.2,1,1.1-.7s.3-.2.5-.2h.6l5.3.2c.2,0,.5,0,.7.2l1.2.6c.5.3.9.8.9,1.4l1.1,15.1,21.1-1.5,31.8-2.9,16.8-1.7-.2-1.4c0-.6.2-1.2.7-1.6l.8-.6-.2-1.4-1.5-1.1c-.7-.5-.9-1.4-.5-2.2l.8-1.6v-1.6l-1.8-1.2c-.7-.5-.9-1.4-.6-2.2l1.1-2.2-.8-1.3c-.4-.7-.3-1.5.2-2.1l2.5-2.8-.4-.9c-.2-.5-.2-1.1,0-1.6l.3-.5-.8-.9c-.4-.4-.5-1-.4-1.6,0-.5.5-1,1-1.2l3.3-1.3-.7-.6c-.4-.3-.6-.8-.7-1.3,0-.5.2-1,.5-1.3l1.7-1.6.7-2.1c0-.3.3-.6.5-.8l4.7-4.1v-3.8l-.5-1.5v-.9l.6-3.1c0-.6.6-1.1,1.2-1.3l.9-.3v-.7c-.2-.7,0-1.5.7-1.8l2.5-1.4.8-.8-.6-1c0-.2-.2-.4-.2-.6h0v-1.1h0c0-.3.2-.5.4-.6l1.4-1.2.8-2.5c.3-.8,1-1.2,1.8-1.2l-.9-2c0-.3-.2-.5-.2-.8l.2-3.3c0-.3,0-.7.3-.9v.3h0ZM632.6,248.9v.2l-1,2,2,2.1c.2.2.4.5.5.8l.7,2.9,1.1.3c.4.1.7.3.9.6h0v.4h0v3.9l1.1,1.7c.2.3.3.6.3.9v2.3l1.4,1.9h0c0,.2,0,.3.2.5l.4,1.3,2,1.8v.2s.2.2.2.3h0c0,.2,0,.3.2.5l.5,3.2,1.2,1.4h0c0,.1.2.2.2.4h0v.4h0v.3l-.4,4.5.3,2.1,3,1.9c.3.2.5.4.6.7h0c0,.3.2.6.2.9l-.2,2.2h.2c.5.2.9.5,1.1.9v.3h0v1l-.6,2.6.3.3c0,.1.3.3.3.5h0v.6l.3,4.6.3.4c.2.3.3.6.3.9l.6,5.7v.6l-.3,1,1.5,1.1s.2.2.3.2h0v.4h0c0,.2.2.5.2.7h0c0,.1,17.5-.3,17.5-.3l21-1,10.3-1.1,10.8-.9,26.3-2.8,4.8-.9c.8-.1,1.5.2,1.9.9l.8,1.5,3.3,2.1.2.2.7.6-.4-3.3v-.5h0c0-.1,0-.3.2-.4h0c0-.1.2-.3.3-.4h0c0-.1.2-.2.4-.3h0l4.2-2,.5-.6.2-3.7c0-.4,0-.7.4-1l2.3-3-.3-3.1-.6-1.1-1.8-.9c-.5-.2-.8-.7-.9-1.3l-.4-2.1v-.5l.4-3.7c0-.3.2-.6.4-.9h0l1.4-1.7c.3-.3.6-.6,1.1-.6l5.9-1,1.8-1.9c.2-.2.5-.4.7-.5l3.1-1,1.2-1.2.4-4v-.8s0-.2.2-.3l1.8-1.9.7-5.4-.7-1.6-5.2-3.1c-.3-.2-.6-.5-.7-.8l-1.3-3.2-4.4-2.7c-.8-.5-1.1-1.5-.6-2.3l.2-.5-.2-.4-.9-1.7-5.1-.5c-.2,0-.4,0-.6-.2l-1.9-1c-.2,0-.3-.2-.5-.3h0c0-.1-.2-.3-.2-.4h0l-1.2-2.7-1.1-2.4v-.3l-1.7-7.2v-1l1.4-3.5v-.3l-1.3-.3s-.3,0-.4-.2h0s-.2-.1-.3-.2h0s0-.1-.2-.2h0v-.2h0c0-.1-1.1-2.7-1.1-2.7l-13,1-42.9,3.6-21.7,1.2-21.1,1-14.6.9h-.6l.4,1.2v.7l-.3,2.8h0c.8,0,1.5.6,1.7,1.4l.8,3.3v1.2l-.9,1.8.3,1.6v.9l-1.4,3.7h.6ZM668.7,342.7c0-.2,0-.4.3-.5l1.8-2.5v-.2h0q0-.1.2-.2h.2c0-.1.4-.1.4-.1l-1.3-.8-.6.4c-.5.4-1.2.5-1.8.2l-2.7-1.4s-.2-.1-.3-.2l-2.6-2.1-23.5,1.4-14.5.5-19.8.3-14.4.5-24.6.2h-43.5l-13.7-.4-1.2,74.9-.4,12.7,60.7.4h11.3c0-.1,44.5-1,44.5-1l27.9-1,16.6-.9,15.4-1-1.9-25.2-2.1-36.3-4.2-2.1c-.3-.2-.6-.5-.8-.8l-2-4.2-4.4-4.1c-.5-.4-.7-1.1-.5-1.7l1.2-4.3v-.5h.3ZM807.7,426.2c.2-.1.5-.2.7-.3l2-.2.9-3.2c0-.5.5-.9.9-1.1,0,0,.2,0,.3-.1h.7s.3,0,.4.1h0l1.4.7.9-3.1-.7-2.9v-.6l.2-2.1h-.2s-.2,0-.2-.1l-1.1-.8-.5.4c-.8.6-1.8.4-2.4-.3l-5.6-7.3c-.4-.5-.5-1.1-.3-1.6l.9-2.7v-1.6l-1.7-3c0-.1,0-.2-.2-.4l-1.1-3.2-1.2-.3c-.4-.1-.7-.3-.9-.6l-2-2.7-2.4-.8c-.2,0-.3-.1-.5-.2l-1.9-1.4-1.8-.5-2.6-.8c-.2,0-.5-.2-.7-.4l-6-5.5c0-.1-.3-.3-.3-.4l-1.5-2.7c-.2-.4-.3-.9,0-1.4l2.4-7.6.9-2.6-.3-2.7c0-.3,0-.7.2-1l.8-1.7-.4-.5-4.7-1.2-2.6,2.2c-.5.4-1.3.5-1.9.2l-1.9-1c-.3-.2-.6-.4-.8-.8l-1-2v-.4l-1.3-5.7-2.1-3.1-5.3-3.2c-.2-.1-.4-.3-.5-.5l-1.6-2.1-6.2-4.6c-.2-.1-.3-.3-.4-.5l-2.7-4.3c-.2-.2-.2-.5-.3-.8l-.2-2.2-.8-1.7v-.3l-1.1-4.5v-.5l.2-4.3c0-.2,0-.5.2-.7l.6-1.1-1.6-1.4-3.6-2.3c-.3-.2-.5-.4-.6-.7l-.4-.8-3.6.7h0l-26.4,2.8-10.8.9-10.3,1.1-21.2,1-16.1.4v.2l1.6,5,5.2,6.4c.3.3.4.7.4,1.1v.9l1.2.6h0c0,.1.2.1.3.3l3,2.4,1.6.8.7-.5c.6-.4,1.4-.5,2,0l3.3,2.2c.6.4.9,1,.8,1.7l-.4,2.7c0,.5-.3.9-.7,1.1,0,0-.2.1-.3.2h-1.3l-1,1.3-.8,3,3.9,3.6c.2.2.3.3.4.5l1.9,4,4.5,2.3c.6.3.9.8.9,1.5l2.1,37.3,2,26.9h0c0,.1.6,13.3.6,13.3l18.4-1,46.4-3.8,41.8-4.2c.6,0,1.3.2,1.6.8l2.5,3.7c.2.3.3.5.3.9l.2,2.5c0,.3,0,.6-.2.9l-1.2,2.3c-.2.3-.4.6-.8.8l-1.5.7-2,3.1,11.9-1.7.8-2.3c0-.2.2-.4.3-.5l.2-.2-1.5-1.6c-.4-.5-.6-1.1-.4-1.7,0-.1,0-.2.2-.3h0c0-.1,0-.2.2-.3,0,0,0-.1.2-.2h0s.3-.1.4-.2h.6c-.3-.8,0-1.5.4-2.1l1.2-1.2-.8-2.5c-.2-.5,0-1,.2-1.5,0-.2.3-.4.5-.5h.2-.1ZM465.1,270l-.7,18.7-.8,13.5,15.4.8,16.4.5h12.2c.5-.1.9,0,1.3.4s.3.4.4.6h0v.5h0l-.7,28.7,13.7.4h43.5l24.6-.2,14.4-.5,19.8-.3,14.4-.5,20.2-1.2v-1l-5-6.2c0-.2-.2-.4-.3-.6l-1.6-5-1.6-2.1v-.4h0v-.4h0v-1l-1.8-1.2c-.2-.1-.3-.2-.4-.4h0c0-.1-.2-.2-.2-.4h0v-1.1l.5-1.8-.5-4.9-.3-.4h0c-.2-.3-.3-.6-.3-.9l-.3-4.4-.5-.5h0c0-.1-.2-.3-.3-.4h0v-1l.4-1.8h0c-.2,0-.4-.2-.6-.3h0c-.3-.2-.5-.4-.6-.7v-.2h0v-.6l.3-2.6-2.8-1.8h-.2v-.6h0v-.4h0l-.4-3.1v-.4l.4-3.9-1-1.2s-.2-.2-.2-.3h0c0-.1,0-.3-.2-.4h0c0-.1-.5-3.2-.5-3.2l-1.9-1.7c0-.1-.2-.2-.3-.4,0-.1,0-.3-.2-.4l-.5-1.5-1.6-2.1h0v-.4h0v-3l-1.1-1.7c-.2-.3-.3-.6-.3-.9v-2.6l-.8-.2-2.6-.4c-.4,0-.8-.3-1.1-.6l-2.1-2.6c-.2-.3-.4-.6-.4-.9v-.2h-1c-.5,0-.9-.3-1.2-.7l-.8-1.1-5.5-1.4c-.2,0-.3-.1-.5-.2l-3.5-2.2-3.6.6h-.2l-3.5.2h-.2l-3.3-.2-1.2,1.7s-.2.2-.2.3h-.2c-.2.2-.4.3-.6.3l-1.6.2c-.3,0-.7,0-1-.2l-5.4-2.8h-.2c0-.1-5-3.5-5-3.5l-24.2.6-19-.3h-22.4c0-.1-15.5-.6-15.5-.6l-18.9-.3-21.3-.9-1.2,25-1.3-.7h-.7ZM608.3,519.7l.9-.5,2.7-2.7c.4-.4.9-.5,1.4-.5l2.3.2h.5s.2,0,.4.2h0s.2.2.2.3v.6l.4,1.3h1.2c.3,0,.7.3.9.5h0l.3.3v.5h0l.2.6h.2l3.7-2.1c.7-.4,1.5-.3,2.1.3l1,1h0s.2.2.2.3h0v.2h0v.4h0l3.2-3.8c.3-.4.9-.6,1.4-.6s1,.3,1.3.7l1.3,1.8,2.1.3.4-.8c.3-.5.7-.8,1.3-.9.6,0,1.1,0,1.5.5l1.8,1.9,1.6,1.2h1.4c.5,0,1,.2,1.3.6l.5.6c.3-.3.7-.6,1.2-.6h1.6l.5-1.2c.2-.5.7-.8,1.2-.9l2.5-.5,2.5-1.4c.5-.3,1.1-.3,1.6,0l1.4.7,1.2-.2,4-2.5c.7-.5,1.7-.3,2.2.3l1.1,1.2,3.4.3,1.3-.8.8-1.5h0c0-.2.2-.3.3-.4h0s.3-.2.5-.3h1.3l4.5,2.3,1.5.4c.3,0,.6.2.8.5l2.5,2.6,2.6.5h.3l4.1,1.7-.4-11.2h0l-.8-26.4-.7-12.9-2.4-12.4-3.9-20.9v-.4l-.6-13.3-15.4,1-16.6.9-27.9,1-44.5.9h-11.3c0,.1-62.5-.3-62.5-.3l-21.3-.9-.4,11.9,27.3.5,25.8.4h18.1c.4,0,.9,0,1.2.4h0c0,.1.2.2.2.4h0v57.6h1.2c.5,0,.9.2,1.3.6l4.4,4.8,2.3-.5h.8l1.9.5v-.3c0-.6.4-1.1.9-1.4s1.1-.3,1.6,0l3.1,1.6c.2.1.4.3.6.5l1.7,2.4c.2.3.3.7.3,1.1v1.5l2.8.5,1.3-.2c.3,0,.7,0,1,.2l1.8.9,3.4.9,3.4-.5c.6,0,1.2.1,1.6.6l1.5,1.8h.5l1.2-1.7c.4-.6,1.1-.8,1.8-.7l3.1.7,2.4-.5c.5-.1,1,0,1.4.3.2.2.4.3.5.5h0c0,.2.2.4.2.7v2.4l2.7,1c.2,0,.3.2.5.3h0s.2.2.3.4h0v.4h0v1.8h0l1.3.2.7.3ZM620,163c0-.4.3-.8.6-1.1l3.9-3.4.9-2.6-37.3,1.2-19.7.3-20-.3-29.3-.2-15.1-.3-24.6-.7-9.2-.6-.9,27.1v.4s0,.2-.1.3c0,0,0,.1-.1.2,0,0,0,.1-.1.2l-1.3,33.3-1.1,24.6,21.3.9,18.9.3,15.4.5h22.4c0,.1,18.9.5,18.9.5l24.7-.6c.4,0,.7,0,1,.3l5.3,3.7,4.9,2.5h.3l1.3-1.9c.2-.2.4-.4.7-.6.3-.1.6-.2.9-.2l4.2.2,3.3-.2,4.2-.7c.4,0,.9,0,1.2.2l3.9,2.4,5.8,1.5c.4,0,.7.3,1,.6l.7.9h.9v-1.3l1.5-3,1.2-3.2-.3-1.7c0-.4,0-.8.2-1.1l.9-1.8-.3-1.4h-.6c-.5,0-.9-.2-1.3-.6-.3-.4-.5-.8-.4-1.3l.4-4.3-1-3.2c-.2-.5,0-1.1.2-1.6.2-.3.6-.6,1-.7h1.4l-.4-18.5-.7-13-.8-20.9-1.7-1.8-2.1-.3c-.5,0-.9-.4-1.2-.8l-3.9-5.9c-.2-.4-.3-.8-.3-1.2l.2-1.4v.3h.2ZM842.6,644.8l-2.8.4c-.4,0-.7,0-1-.2l-2.2-1.1-1.6.3c-.9,0-1.7-.4-2-1.2l-.5-1.4-2.5-.6c-.4,0-.8-.3-1-.7l-1.7-2.4c-.3-.4-.4-.9-.3-1.4,0-.5.5-.9.9-1.2l1.5-.7,3.9-6.7c.2-.3.4-.5.7-.7-.3-.3-.4-.7-.5-1.1v-1.2l-.8.5-.6,2.8c-.2.7-.8,1.3-1.5,1.3l-1.6.2c-.4,0-.8,0-1.1-.2l-4.5-2.8c-.6-.4-.9-1.1-.8-1.9l.5-2v.2c-.2.2-.4.4-.6.5l-2.6,2.1c-.2.2-.5.3-.7.4l-3.3.8h-.7l-4.9-1c-.2,0-.5,0-.6-.3l-2.5-1.8c-.5-.4-.8-1-.7-1.7l.4-2.7c0-.3.2-.6.3-.8l4.3-5.6c.3-.5.9-.7,1.5-.7l4.3.2c.4,0,.8.2,1.1.5l2.4,2.5,4.6.2c.5,0,.9.2,1.2.6l.9,1h.3l-.8-1.1c0-.2-.2-.3-.3-.5l-1.4-4.2-3.1-2.4h0l-.2-.2h0s0-.2-.2-.3l-1.7-3.3c-.2-.4-.2-.8-.2-1.2l1.8-8-23.5,2.6-24.8,2.6c-.3,0-.7,0-1-.2h0c-.3-.2-.6-.4-.7-.8v-.5h0v-1s0-.2.2-.3h0l1-1-.9-1.6c-.2-.4-.3-.8-.2-1.2l.3-1.2-.7-1.4c-.2-.5-.2-1,0-1.4.2-.5.6-.8,1.1-1l1.4-.5.6-2.4-.9-2c-.3-.6-.2-1.4.3-1.9l1.7-1.9.2-4.6v-.5l1.4-3.7c.2-.4.5-.8.9-.9l1.5-.8,1.9-2.9c0-.2.3-.3.4-.4l1.1-.8.4-1.6v-.2l2.6-6.8-3.6-2.2c-.2,0-.4-.3-.6-.6,0-.2-.2-.5-.3-.7l-.3-2.5-1.5-1.5c-.3-.3-.4-.6-.5-1l-.2-1.6c0-.4,0-.9.3-1.2l.4-.5s-.2,0-.3-.2h0s0-.3-.2-.4h0v-.4h0v-.5l.4-2.7c0-.2,0-.4.2-.5l.4-.9-1.1-1.2-17.7,1.8-31.8,2.9-21.2,1.5,1.8,28.3,3.2,2.5c.2.2.4.4.5.6l2.7,5.3h0v.4h0v3.6l4.4,5.4s0,.2.2.2h0v.5h0v.7l-.3,1.1,4.3,7.6c0,.2.2.4.2.6h0v.5h0c0,.5-.3.9-.7,1.1h0l.3.4v.9h0v.5h0l-1,4v.2l-2.6,7c0,.2-.2.5-.4.6l-.2.2.8,2.5v.2h0v.5h0v.5h0l-.7,1.4.7,2.2v.4l.5,6.6c0,.4,0,.8-.3,1.1l-1.2,1.7c.4.4.5,1,.4,1.5l-.6,3.1c0,.4-.3.8-.7,1.1l-1.1.8h0l1.1-.5h.4l7.6-1.5h.2l6.6-.5h.5l4.5.8h.3l9.4,3.3,10.3,1.2,2.5-1.5-.8-1.2c-.2-.4-.3-.9-.2-1.3l.4-1.8c0-.5.4-.9.9-1.2l2.8-1.5v-.3c.4-.5.9-.8,1.4-.9l3.7-.6c.6,0,1.2,0,1.6.6.4.5.5,1.1.3,1.7h3l1.8.4c.9.2,1.5,1.1,1.3,2v.4c.7,0,1.4.4,1.7,1.2l.8,2.4,4.1.4.4-.4c.4-.4,1-.6,1.5-.5.5,0,1,.4,1.3.9l1.7,3.3c.3.6.3,1.2,0,1.7l-1.3,2.1.9.4,4,1.1,3.3.4,2.5-.5h1l2.2.8,2.3-4.4c.3-.5.8-.9,1.3-.9l4.7-.6h.6l3.9,1c.9.2,1.4,1.1,1.3,1.9l-.3,2,.2.3,1.3-1.2-.5-2.3v-1.2l1-2-1.6-4.2c-.3-.7,0-1.4.4-1.9.5-.5,1.3-.6,2-.3l2.5,1.3,1.1-.3c.5-.2,1,0,1.5.2l3.7,2.4.6.6.5.8,3.1,1.2c.3,0,.6.3.8.6h0l2.5.3c.5,0,.9.3,1.2.7l3.1,3.8,1.3.7h2.2l2.1-2-1.7-1.7-1.9-2.1.6.3.5-.2ZM718.4,623h0v-.4h0v-.4h0v-.3l.7-1.3-.9-2.8v-.9h0c0-.4.2-.7.5-.9l.7-.7,2.4-6.6.7-2.9-.9-1.1c-.3-.4-.5-.9-.4-1.3h0c0-.3,0-.4.2-.6v-.2l.3-.3h0l.3-.3-3.9-6.9c0-.2-.2-.4-.2-.6v-.7l.2-.9-4.3-5.2c0-.2-.2-.3-.3-.5h0v-4.1l-2.3-4.5-3.6-2.7h0l-.2-.3v-.2s0-.3-.2-.4h0v-.3l-2-30.9-1.2-15.8-4.3-.2-1.7,1.1c-.6.4-1.5.3-2.1-.2l-2.2-1.9h-1l-5.5-2.3-2.9-.6c-.3,0-.7-.2-.9-.5l-2.6-2.6-1.3-.3h-.4l-3.1-1.6-.2.4c0,.3-.4.5-.6.7l-2.2,1.4c-.3.2-.7.3-1.1.3l-4.7-.4c-.4,0-.9-.2-1.2-.6l-.6-.7-3.1,1.9c-.2,0-.4.2-.6.2l-2.1.4c-.4,0-.8,0-1.1-.2l-1.1-.6-1.9,1.1c-.2,0-.3.2-.5.2l-1.9.4-.6,1.2c-.3.5-.8.9-1.4.9h-1.6l-.5,1.2c-.3.5-.8.9-1.4.9s-1.2-.2-1.5-.6l-1.6-1.9h-1.1c-.4,0-.7,0-1-.3l-2.1-1.6-.2-.2-.3-.3c-.4.5-1,.8-1.7.7l-4.1-.6c-.5,0-.9-.3-1.1-.7l-.4-.6-2.1,2.5-.5,1.8c-.2.7-.8,1.2-1.5,1.3l-1.6.2c-.6,0-1.2-.2-1.6-.7l-1.2-1.6v-.2h0v-.4h0v-.4h0v-.6l-1.8,1c-.3,0-.6.2-.9.2h-2c-.4,0-.7,0-1-.4h0l-.3-.3v-.2s0-.2-.2-.3h0v-.4l-.2-.2h-1.2c-.5-.2-.9-.4-1.2-.8h0v-.5h0l-.4-1.2h-.4l-2.4,2.3s-.3.2-.5.3l-2,1c-.5.2-1.1.2-1.6,0l-1.9-1h0l-.3-.3v-.2s0-.2-.2-.3h0v-.2h0v-1.5l-2.4-.9h0c-.2,0-.3-.2-.4-.3h0c0-.2-.2-.3-.2-.4h0v-.2h0v-2l-.8.2h-.7l-2.4-.5-.9,1.2c-.3.4-.7.6-1.1.7l-2.1.4c-.6,0-1.2,0-1.6-.6l-1.5-1.8-2.7.4h-.7l-3.9-1h-.4l-1.5-.7h-1.5l-4.5-.8c-.2,0-.4,0-.5-.2h0s-.3-.2-.4-.3h0s-.2-.3-.3-.4h0v-2.9l-.2-.2-1-1.3-.5-.2c0,.4-.3.8-.7,1.1-.4.3-.9.4-1.4.3l-3.5-.9-2.9.7c-.6.1-1.2,0-1.7-.5l-4.5-4.9h-5.8l-.4-.2h0s-.2-.1-.2-.2h0c0-.2-.2-.3-.2-.5h0v-.5h0v-57h-13.5l-25.8-.4-28.4-.6-.4,7.9-.7,25.5-.7,16.8-1.1,25.4-1,29.8-1.2,29.3c0,.5-.2.9-.6,1.2-.3.3-.8.5-1.2.5l-46.1-1.9-44.5-2.7.8,2.5,1.5,1.5,3.3,1.7c.4.2.7.5.8.9l1.7,4.2,2.3,3.7,3.9,1.6c.3,0,.5.3.7.5l3.1,3.5v.2c.1,0,2.5,3.5,2.5,3.5l3.9,3.4c.2.2.3.3.4.5l.8,1.7,4.5,4.5,3.2,1.7c.2,0,.3.2.4.3l3.1,3,2.1,1.1c.2,0,.4.3.6.5l2.9,3.9.3.6.7,3.2,2.4,5.4,1.3,2c.2.3.3.7.3,1.1l-.6,4.8.5,2.2,2.4,4.5s.1.3.2.4l.9,3.5,1.7,2.1,2,1.4,1.9.2c.5,0,.9.3,1.2.6l5,5.8,2.5,1.3,3.4.4c.8,0,1.4.7,1.5,1.5v.8l2.1,1.3,3.2.7c.4,0,.8.3,1,.7l1.6,2.1,1.9,1.3h1.9l2.9.8.3-.7s.2-.3.3-.4l3.3-3.7c.2-.2.4-.3.6-.4l1.6-.7.3-2.7s0-.3.1-.4l3-7.8s0-.2.1-.3l2.8-4.5c.2-.4.6-.7,1.1-.8l4.5-1.1h.7l1.5.2.6-1.2c.2-.3.4-.6.8-.8l2-1c.5-.2,1.1-.2,1.6,0l4.6,2.4h3.1c.1-.2.2-.2.3,0l8.9,1.2,1.9-.3h.7l3.9,1c.5,0,.9.5,1.2,1l1,2.2.6.5h1.3c.6,0,1.1.3,1.4.8l2.3,3.5,2.3,1.6c.3.2.5.5.7.9l.6,1.8,5,3.4c.3.2.5.4.6.7l1.2,2.7,1.8,1.3c.3.3.6.6.7,1l1.2,5.6,2.8,3.2c.2.3.4.6.4.9l.3,2.6,2.4,2.9c0,.2.2.4.3.6l3,9.1,1.7,2,3.2,1.6c.3.2.6.4.8.8l1.8,3.7,3.3,3.5c.3.3.4.6.5,1l.3,2.2.7.4c.2,0,.4.3.6.5l2.3,2.8,2.5.5c.3,0,.6.2.9.4l2.3,2.2c.4.4.6.9.5,1.4l-.2,1.8,1,1.7c.3.4.3,1,.2,1.5l-.8,2.2,1.6,3.3c.2.3.2.7.2,1.1l-.6,3.2,1.6.8c.5.2.8.7.9,1.3l.3,1.4,1.9,1.4c.2,0,.3.2.4.4l1.2,1.6c.2.3.3.6.3.9v1.9l2,1.7c.5.4.7,1.1.5,1.7l-.7,2.9.5.5c.2.2.4.5.5.8l.8,2.4h2.1c.2.2.5.2.7.3l1.5.8h2.1c.6-.2,1.2,0,1.5.6l1.6,2.1,1.6,1.1.9-.3h1.1l5.8,2c.3,0,.6.3.8.5l1.9,2.3,1.7.8h11.6l3.1.6c.2,0,.5,0,.7.3l6.6,4.6,3.4-2.5v-1.2l-1.6-1.1c-.5-.4-.8-.9-.7-1.6l.2-1.8-1.3-2.3c0-.3-.2-.6-.2-.9v-1l-2.1-1.4c-.6-.4-.9-1.1-.7-1.8l.7-3.1-1.8-6.5-1.3-1c-.4-.3-.7-.8-.7-1.4v-5.9c0-.7.5-1.4,1.2-1.6h.3l-.3-1.3c-.2-.7.2-1.5.8-1.9l.5-.3v-.2h-.4l-3.3-.2c-.9,0-1.6-.8-1.6-1.7v-2c0-.6.4-1.2.9-1.5l2.7-1.5c.4-.2.8-.3,1.2-.2l1.7.3,3-8.1-1.4-1c-.3-.2-.5-.5-.7-.9l-.6-1.7h-1.7c-.6,0-1.2-.4-1.5-.9l-.8-1.4c-.3-.5-.3-1.2,0-1.7s.8-.9,1.4-.9l7-.3h0c.3,0,.6,0,.9.2l1,.5,1-1.5h-.2l-2.5-1.8c-.4-.3-.6-.7-.7-1.1,0-.5,0-.9.3-1.3l1.6-2.1c.3-.4.8-.7,1.3-.7l6.9-.5,1.6-2v-1.5l-1.5-2.4c-.3-.5-.3-1,0-1.5s.6-.9,1.1-1l1.8-.6c.7-.2,1.4,0,1.8.5l2.2,2.5,3.8-2.1-1.5-1.7-1.6-.8c-.7-.4-1.1-1.2-.9-2l.6-2.1c.2-.9,1.1-1.4,2-1.2l2.1.4.7-.9c.3-.4.9-.7,1.4-.7s1,.3,1.4.7v.2l1.1-.7c.4-.3,1-.4,1.5-.3.5,0,.9.5,1.1,1l.6,1.5,8.7-4.2c.2,0,.4-.2.7-.2l3.2-.2,2.1-.9,4.6-3.4c.2,0,.3-.2.5-.3l.8-.3,4.8-4.6-.3-2.3c0-.6.2-1.2.7-1.6l2.2-1.6,3.2-4.1h0c0-.2-.2-.3-.3-.4l-2.5-3.7c-.2-.3-.3-.6-.3-.9l-.2-5.5c0-.6.3-1.1.7-1.5.5-.3,1.1-.4,1.6-.2l2.4.9.6-1.6c.2-.5.6-.9,1.1-1.1l1.8-.6c.7-.2,1.5,0,1.9.6l1.7,2.4c.3.4.4,1,.3,1.5l-.7,2.9,1.1-.3c.6-.2,1.3,0,1.7.5.2.2.3.5.4.7l11.8-6.1c.2,0,.4-.2.7-.2h2.1l-.3-.6c-.2-.4-.3-.8-.3-1.2l.4-2.7v-.4l1.4-3.7c.2-.6.8-1,1.4-1.1h.8l1.2-1.9-.5-5.8-.9-2.7-1.8-2.2-.8-.3ZM1159.7,184.3l-13.9,3.9,4.6,20.4,1.6,1.2c.4.3.6.7.7,1.2,0,.5,0,1-.4,1.3l-3.3,3.7.3.3.4-.3,7.4-6.9s0-.1.2-.1l7.6-5.4c.2-.1.5-.2.7-.3l1.5-.3.8-.9c.4-.4.9-.6,1.5-.6l1.7.2,1-.8c.2-.1.3-.2.5-.3l2.5-.8,1.7-1.7c.3-.3.8-.5,1.2-.5h1.4l3.9-2.4c.2,0,.3-.2.5-.2v-.8l-5.1-15.7-19.1,5.6v.2h.1ZM1161,92.1l-1,4.4,2.5,2.9c.4.4.5,1,.4,1.5l-1.2,5.3c0,.3-.2.5-.3.7l-2.8,3.5c0,.2-.3.3-.5.4l-2.1,1.2-.3.9,1.2,3.6v.7l-.8,8.2.3,2.9c0,.3,0,.7-.2,1l-.9,1.8.4,2.1v.7l-.7,3,2,6v.8l-.2,1.1,1.1,8.2v.4l-.3,2.9,1.9,2.1,23.4-6.4,6.1-7.5c.2-.3.5-.5.8-.6l1.2-.4v-2.6l-.4-1.1-2.2-1.5c-.4-.3-.6-.7-.7-1.1l-.3-1.5-4.1-2.9c-.3-.2-.6-.6-.7-1l-1.3-5-3.8-9.7-8.3-21.3-6-15.2h-.4l-2.4-.2-.7.9-.2,6.4,1.1,3.2v.9l.4.3ZM1190,186.9l.2-5.3v-.5h0l-1.9-2.9c0-.2-.2-.3-.2-.5h0l-.3-1.3h0c0-.1-5.6,1.9-5.6,1.9l5,15.4v.5h0l2.2-1.4s.3-.1.4-.2l1.2-.4v-1.7l-1.1-2.7c0-.2-.2-.5,0-.8h.1ZM1123.3,104.7l.4.3h0c.4.3.6.8.6,1.3l.2,4,1,1.7,2.1,2.5c.2.3.4.7.4,1l.2,3.3,1.1,3.3v1.3l-.4.8v3.7l.4.5c.2.2.3.3.4.6l3.1,7.4v2.3h1.7s.3.1.4.2h0s0,.1.2.2l1.5,1.8c.2.2.3.4.4.7l6.2,21.8,12.9-3.7-1.3-1.5c-.3-.4-.5-.9-.4-1.3l.4-3.5-1.1-8.2v-1.5l-1.8-6.1v-.9l.7-3.1-.5-2.4c0-.4,0-.8.2-1.1l.9-1.9-.3-2.6v-.4l.8-8-1.2-3.8v-1l.6-2.1c0-.4.4-.8.8-1l2.4-1.4,2.3-2.9.9-4-2.5-2.9c-.4-.4-.5-1-.4-1.5l1.1-4.8-.5-1.4-14.8,4.8-20,6.2.5,2.8.5.5h0ZM884.3,603.2l-1-2c-.2-.3-.2-.7,0-1.1l.4-2-1.9-1.3s-.2,0-.3-.2l-3.9-3.9s-.2-.2-.2-.3h0v-.2h0v-.9l.6-4.1c0-.8.7-1.4,1.5-1.5l25.8-3.5,16.6-2.8,22.6-3.5v-.4l-2.3-2h0c0-.2-.2-.3-.3-.5h0s0-.3-.2-.4l-.6-2.7v-.4l.2-7.9-.6-1.8-1.6-2.1v-.4l-1.5-3.7c0-.3-.2-.7,0-1.1l1.3-5.4-.3-3.8v-.5l.4-1.8c0-.3.3-.7.5-.9l1.2-1.1-.4-.3c-.2,0-.3-.3-.4-.4h0s-.2-.3-.2-.5l-.7-3.2-1-2.1-2.3-2.5s0-.2-.2-.3v-.2l-2-4.2-.8-.8s-.2-.2-.3-.4v-.2l-1.5-3.7-7.7-22.6-5.4-16.5-4.8-13.7-1.8-5.7-26.1,3.9-19.4,2.4-13.5,1.5.7.8c.3.3.5.7.5,1.2l.3,18.7.7,15,.6,33.6.2,24.5,3.6,19.8,4.4,23.5,4.4.7v-1.7l.6-6c0-.8.6-1.4,1.4-1.5l2.7-.6c.8-.2,1.6.3,2,1l1.3,3.1c.2.4.2.8,0,1.2l-.4,1.3.5.7,3.7,2.8c.4.3.6.8.7,1.3l1.8-.6v-.3c0-.5.4-.9.7-1.1l2.1-1.6,1-1.4-.2-.4h0l-.5-.3h-.7ZM1103,694.1l-1.1-8.3c0-.3,0-.7.2-1v-.2l-1.6-6.1-1.8-4.6-2.5-3.6c-.6,0-1.1-.3-1.4-.8l-6.8-9.8v-.2l-2.1-4.4-14-19.3s0-.2-.2-.3l-3-6.3-1.1-1.4s-.2-.2-.2-.4l-1.5-3.7c-.3-.6,0-1.4.3-1.9.4-.4.9-.6,1.4-.5l-5.1-5.3-.2-.2-10.1-13.9s0-.2-.2-.3l-2.9-5.9-6.9-14.3v-.4l-.5-2.4-2-3.3c0-.2-.2-.4-.2-.7l-.6-4.1h-5.9l-5.6-1h-.4l-.7,1.5v1.5l1.3,1.3s.2.3.3.4h0v.5l.2,6.4c0,.8-.5,1.5-1.2,1.7l-2.9,1h-1.1c-.2,0-.4-.2-.5-.3l-1.4-1.2-.3-.3h0v-.2h0l-.7-1.6-.6-1.4-19,2.3-14.6,1.9-16.6,1.9-17.4,1.5c-.3,0-.6,0-.9-.2l-1.6-.8c-.2,0-.3-.2-.5-.3h0s0-.2-.2-.3v-.2l-1.5-3.6-.7-1-.5-.8-23.3,3.6-16.6,2.8-24.5,3.4-.3,1.9,3.1,3.2,2.8,1.9s.3.2.4.3h0s0,.2.2.3v.2h0v.9l-.5,2.5.3.7.9.2c.5,0,.9.4,1.1.9.2.4.3,1,0,1.4h0l1.7-2.4-.3-2.5c0-.7.3-1.4.9-1.7.6-.3,1.4-.2,2,.2l1.5,1.3c.6-.4,1.4-.5,2,0l2.5,1.8c.3.2.5.5.6.8l4.6-1,4.5-2.4c.3-.2.6-.2,1-.2l1.8.2,2.3-1.3c.3-.2.7-.3,1.1-.2l4.1.6c.7,0,1.3.7,1.4,1.4,0,.7-.2,1.4-.8,1.8l-1,.7,3.1.5h.3l5.7,2v-.4c.2-.4.6-.8,1-.9l1.8-.6c.9-.3,1.8,0,2.1,1l1.3,3.2,8.9,5.4c.2,0,.4.3.5.4l1.7,2.4c0,.2.2.4.3.6l.3,1.3,2.4-1h.3l6.1-1.1,3.2-2.1,1.4-1.9.3-.3,3.5-3.1c.2-.2.4-.3.6-.3,0-.3,0-.5.3-.7l1.6-2.1s0-.2.2-.3l2.7-2.5c.3-.2.6-.4,1-.4l2.9-.3,2.9-1.2c.5-.2,1-.2,1.5,0l4.6,2.3h1c.3-.2.7,0,1,0l3.5,1.8s.2,0,.4.2l2.7,2.4.3.3,1.9,2.6,2.9.7c.7.2,1.2.7,1.3,1.4l.6,3.4,4.8,2c.3,0,.6.4.8.6l1.6,2.4,1.5.4c.3,0,.6.3.9.6l1.5,1.8,3.9-.8c.5,0,1,0,1.4.3l2.1,1.6c.3.2.5.5.6.9l1,3.1,1.6,1.5h.8c.7.2,1.3.8,1.4,1.5l.9,4.9v.2l.9,8.8v.5l-1.7,7.8.9,2c0,.3.2.6.2.8v.8h0c.4-.3,1-.3,1.4-.2l2.5.8h.3l2.7,1.4.6-.3c.4-.2.9-.3,1.3-.2.5,0,.8.4,1,.9l1.7,3.3c.3.5.3,1.2,0,1.7l-2.9,4.9-.2,2.9c0,.6-.3,1.1-.8,1.4l-1,.6v.4l1.8.9c.5.2.8.7.9,1.2l.7,2.9,6.9,8.7,1.7,2.1,1.2.3.5-2.7c0-.6.5-1.1,1.1-1.3.5-.2,1.2-.2,1.7.2l2.5,1.8c.4.3.7.7.7,1.3l.5,5.4,1.7,3.7,2.5,1.2,1.6-.3c.9-.2,1.8.4,2,1.3l.7,3.1.6,1.1v.3l1.7,5.3,3.9,2.4c.4.3.7.7.8,1.2l1.3-.2h.6l4.9,1c.2,0,.5,0,.6.3l2.5,1.8c.2,0,.3.3.5.5l4.6,7.3,2.2,3.3,1.2.6,3,.2c.4,0,.7.2,1,.4l1.7,1.4c.5.4.7,1,.6,1.6.2,0,.5-.2.7-.2h.3l3.1.5,2.3-3.1c.3-.4.8-.7,1.3-.7h3v-.9c0-.3,0-.6.3-.8l1.4-2.1-1.2-2.9v-5l1-3.9c0-.3.2-.6.5-.8l.4-.4-.3-2.3c0-.5,0-1,.4-1.3l.7-.8-.5-4.9-.5-6.7.6-.5h0ZM967.2,453.9l2.2-3-13.1,2.7-12.9,2.3-13.5,2.5-16.2,2.7,1.7,5.1,4.8,13.7,5.4,16.5,7.7,22.5,1.4,3.3.7.7.3.3v.2l2,4.2,2.3,2.5s0,.2.2.3v.2l1.2,2.5v.3l.6,2.7,1.6,1.2h0l.3.3v.2s0,.3.2.5h0v.3c0,.5-.2,1-.5,1.4l-2.3,2.2-.2,1,.3,3.8v.6l-1.3,5.1,1.2,3,1.6,2.2v.5l.8,2.3v.6l-.2,8,.4,1.9,2.3,2s0,.2.2.3l.2.2h0c0,.2,0,.3.2.5l.5,2.4,1.7,2.6h0v.2l1.3,3.1.5.3,16.9-1.4,16.6-1.8,14.6-1.9,20.3-2.4h.6c.2,0,.3,0,.5.2h0s.2.2.3.2v.2s0,.2.2.2h0l1.5,3.8h0l.3.3.8-.3v-4.5l-1.2-1.3v-.4h0v-.6l-.2-2.5c0-.3,0-.6.2-.9l1.4-2.7c.3-.5.8-.9,1.3-.9l1.6-.2h.5l5.7,1h2.8l-.8-2.1v-.6l-.2-3.5c0-.5.2-1,.5-1.3l1.1-1.1-1.5-3.8c-.3-.7,0-1.4.4-1.9.5-.5,1.3-.6,2-.3l.4.2.6-1.2-.4-.2c-.3-.2-.6-.4-.7-.7l-1.5-2.7c-.2-.3-.3-.7-.2-1.1l.6-5.1v-.4l2-4.9c0-.2.2-.4.4-.6l2.2-2.2-.6-1.9c-.2-.6,0-1.2.3-1.6.4-.5.9-.7,1.5-.6h1.3l1.4-2.1-2.6-.6h-1.3c-.6.2-1.1,0-1.5-.4l-2.5-2.7c-.2-.3-.4-.6-.4-1l-.3-2.7-.9-1.2s-.2-.2-.2-.4l-1.4-3.3-.8-.7-4.6-1.9c-.6-.2-1-.7-1.1-1.4l-.5-3.4-1.3-2.3-1.8-1.8c-.2-.2-.3-.3-.4-.5l-1-2.4-5.9-2.1c-.2,0-.5-.2-.6-.4l-1.9-2c-.2-.2-.3-.4-.4-.7l-.5-1.5-2.1-.7c-.6-.2-1.1-.8-1.2-1.4l-.3-2.3-2.4-1.6-4-1.1c-.4-.1-.8-.4-1-.8l-1.9-3.2-2.8-1.9-5.9-2.5c-.4-.2-.7-.5-.9-.9l-1-2.1-3.9-2.9c-.2-.2-.4-.4-.6-.7l-1.3-2.9-1.6-2.2h0c0-.1-.8-1.4-.8-1.4h-2.9c-.3,0-.7-.1-.9-.3l-3.2-2.1-5.1-2.1c-.2,0-.4-.2-.6-.4l-1-1c-.3-.4-.5-.8-.5-1.3l.2-3.3c0-.3,0-.7.3-.9h-.3.5ZM850.6,563.7v-.3l-.2-24.6-.6-33.6-.7-15-.3-18.1-1.5-1.6-25.7,3-23.2,2.7v.3h0v.6h0c0,.4-.2.7-.5,1l-2,1.9c0,.1-.2.2-.4.3l-1.7.9.2.9c.2.9-.4,1.7-1.2,2l-1.4.4-.3,1.7.4,1.3v5.4c0,.5-.2,1-.6,1.3l-4.9,4.3-.7,2.1c0,.3-.2.5-.4.7l-.6.6.2.2c.5.4.8,1.1.6,1.8l-.4,1.8c0,.6-.5,1-1,1.2l-2,.8c.4.5.5,1.3.2,1.9l-.4.8.6,1.2c.3.6.2,1.4-.3,1.9l-2.5,2.7.7,1c.3.5.4,1.2,0,1.7l-.9,1.8,1.3.9c.5.3.7.9.7,1.4v2.9c0,.3,0,.5-.2.8l-.3.6,1,.7c.4.3.6.7.7,1.2l.4,3.1c0,.6-.2,1.2-.7,1.6l-.8.6.2,1.6,2.1,2.3c.5.5.6,1.3.3,2l-.9,1.7-.2,1.2.4.2h0c.2,0,.3.2.4.3h0s.2.3.3.4h0v.3c0,.5,0,1-.3,1.4l-1.2,1.6v.3l1.6,1.5c.3.3.4.6.5,1l.3,2.3,4.1,2.5c.2,0,.3.2.4.4h0s0,.3.2.4h0v1.2l-3.1,8.1-.6,2.1c0,.4-.3.7-.6.9l-1.3,1-2,3c-.2.3-.4.5-.7.6l-1.3.7-1,2.8-.2,5c0,.4-.2.8-.5,1.1l-1.4,1.5.7,1.5c.2.4.2.8,0,1.2l-1,3.9c0,.6-.6,1-1.1,1.2h-.4v.3c.2.4.2.8,0,1.2l-.3,1.1,1.2,2.1h0c0,.2.2.4.2.7l20.9-2.2,25.4-2.8h.6c.2,0,.4.2.6.3h0s.2.3.3.4h0v.2h0v.4l.2,1.6v.6l-1.9,8.1,1.3,2.4,3.2,2.5.3.3h0s0,.2.2.4h0l1.4,4.4,1.3,1.8.7.3h.5l.3-1.2c0-.3.3-.6.5-.8l1.8-1.6s.3-.2.4-.3l7.9-3.5,1.7-1.7c.4-.4.9-.5,1.4-.5l2.3.2c.3,0,.6,0,.8.3l2.4,1.6,4-.5h.5l1.7.3.5-.7-4.6-24.7-3.6-19.9,1.3.9h.3ZM1049.7,508.4c0-.5.4-.9.9-1.1.4-.2,1-.3,1.4-.1l2.9,1,1.2-.2,3.5-3.5c0-.1.3-.2.4-.3l3-1.6,2-2.4.2-1.8c0-.5.3-.9.7-1.2l2.1-1.5,2.2-3.4.2-2.9c0-.5.2-.9.6-1.2.4-.3.8-.5,1.3-.4l1.9.2,1.6-.7,2.7-5.3.2-6.8v-.6l3.4-7.6v-.2l3.2-5.3c0-.1,0-.2.2-.3l2.6-2.7-18.2-11.5-12.6-7.8h-.3l-26,5.3c-.9.2-1.7-.3-2-1.2l-1.2-3.6-2.9-2.4-.8.8c-.4.4-.8.5-1.4.5s-1-.3-1.3-.7l-1.1-1.5-16,2.5-12.5,1.8-5.8,2.5-3.9,3.1c-.3.2-.6.3-.9.4h-1.3c0,.1-6.3,3.3-6.3,3.3l-.4,1.4c0,.2,0,.4-.3.6l-2.8,3.9v2.2l4.9,2s.2,0,.3.2l2.9,1.9h3.4c.6,0,1.1.3,1.5.8l1.3,2.1,1.7,2.3c0,.1,0,.2.2.3l1.2,2.7,3.9,2.9c.2.2.4.4.6.7l.9,1.9,5.4,2.3s.2,0,.3.1l3.3,2.2c.2.1.4.3.5.6l1.8,2.9,3.6,1c.2,0,.3.1.5.2l3.3,2.2c.4.3.7.7.8,1.3l.2,2,1.9.6c.5.2.9.6,1.1,1.1l.6,2,1.4,1.4,6.3,2.3c.5.2.8.5,1,.9l1.2,2.8,1.7,1.7c0,.1.2.2.3.4l1.5,2.7c0,.2.2.4.2.6l.4,2.7,4,1.6c.2,0,.3.2.5.3l1.4,1.2c.2.2.4.4.5.6l1.5,3.5,1,1.4c.2.2.3.5.3.8l.3,2.6,1.5,1.7h1.3l1.8.4h0l3-3.1.4-.7-2.4-1.5c-.8-.5-1-1.5-.6-2.3l.6-1.2c.2-.4.6-.7,1-.9h1.3l2.9,1.5,1.1-.4,1.2-1.9-.4-.7-1.9-.6c-.9-.3-1.4-1.2-1.2-2l.4-1.8h0ZM908,333.3l-4-26-3.6-21.9-3-17.2-2-12.2-9.9,1.6-20.9,3.6-12.6,1.6-3.1,2.7c0,.1-.3.2-.4.3l-5.7,2.5c-.3.1-.7.2-1,.1l-3.1-.6,3.6,26.8,2.4,17.4,3,23.1h0v.6c0,.2,0,.4-.3.6l-1.1,1.5.3,1.6v.6h0v.5h0c0,.3,0,.4-.2.5h0l-.6.8,2,3.1.8.8c.3.3.5.7.5,1.1l.2,2.2,1.6,3h0v.3h0v.4h0v.4h0l-.8,2.5c0,.2-.2.4-.3.6l-1,1.1-.6,1.7h0c0,.2.2.4.3.6h0v.5h0v.4h0c0,.3-.2.4-.3.6l-1.5,1.6v.2h0v.4h0v.3h0v.4h0l-1.8,3.5c-.2.4-.6.7-1,.9l-1.5.5-.3.9.8.6c.3.2.5.5.6.9h0v.3h0v.4h0v.3h0c0,.2,0,.3-.2.4h0l-1.6,1.6-.2.9.8,5v-1.9c0-.6.3-1.2.8-1.5s1.2-.3,1.7,0l1.7.9,2.2-.7c.4-.1.9-.1,1.3.1l.4.2.2-.4c.2-.3.4-.6.7-.7l2.7-1.5c.5-.3,1-.3,1.5-.1l6.6,2.6.2-1.1c0-.4.3-.8.6-1l4.9-3.9c.7-.6,1.8-.5,2.4.2l1.4,1.7,2.4-.6-.2-1.1c0-.5,0-.9.2-1.3l2.2-3.3c.2-.3.5-.5.8-.6l3.1-1.3c.4-.2.8-.2,1.1,0h.5q0,.1.2.2s.2.2.2.3h0s0,.2.2.3h0v.4l.2,1.3,1.3.6,2.9.3,1-.5.3-.6-.2-4c0-.3,0-.6.2-.9l1.4-2.7c.2-.4.6-.7,1-.9.4-.1.9-.1,1.3.1h.2c0,.1.9-.5.9-.5l.3-3c0-.4.3-.8.6-1.1l1.6-1.4,1.7-2.7-1.2-2.9v-1.7c0-.8.6-1.6,1.4-1.7l4.3-.8c.4,0,.8,0,1.1.2l1,.5,3.1-2.3c.2-.1.3-.2.5-.3l3-1v-.4h-.6c-.4,0-.8-.2-1-.5h0s0-.1-.2-.2h0c0-.1-.2-.3-.2-.4h0v-.9h0l.5-1.7-.3-.4-.3-.4h0c0-.1,0-.3-.2-.4h0v-1.4l.5-1.1-.4,1h0ZM912,344.4l-3.8,1.3-3.7,2.7c-.5.4-1.2.5-1.8.2l-1.4-.7-2,.3,1.1,2.6c.2.5.2,1.1,0,1.6l-2.4,3.7c0,.1-.2.3-.3.4l-1.3,1.1-.3,3c0,.5-.3.9-.7,1.2l-2.4,1.7c-.4.3-.9.4-1.4.3l-.4.8.2,4c0,.3,0,.6-.2.9l-.8,1.6c-.2.3-.4.6-.8.8l-2,1c-.3.1-.6.2-1,.2l-3.7-.4c-.2,0-.4,0-.6-.2l-2.3-1.2h0s-.2-.2-.3-.2h0c0-.1,0-.3-.2-.4h0v-.4h0l-.6.3-1.5,2.3.4,2c.2.9-.4,1.8-1.3,2l-5.1,1.3c-.7.2-1.3,0-1.8-.6l-1-1.3-3.1,2.4-.5,2.5c0,.5-.4.9-.9,1.2-.5.2-1,.3-1.5,0l-7.8-3.1-1.6.9-.8,1.5h0c0,.2-.2.3-.4.5h0c-.2.1-.3.2-.5.3h0c-.4.1-.9.1-1.3-.1l-1.3-.7-2.2.7c-.4.1-.8.1-1.2,0h0c0,.4,0,.7-.2.9l-.8,1.6s0,.1-.2.2v.2s0,.1-.2.2h-.2c0,.1-.2.1-.2.2h-1.5v.2l-1.5,2.9,1.7,2.3c.4.5.5,1.2.2,1.8l-.8,1.6c-.2.4-.6.7-1,.9l-4,1.3-2.9,1.2-.4,1.4.2,1.3,1.8,2.2c.4.5.5,1.1.3,1.7l-1,2.9c0,.2-.2.3-.3.5h0c0,.1-.2.2-.4.3h-1l-3.7-.4h-.4l-6.5-2.4-.7.2-1.3.3-1.6,3.1,1.1,1.9h0v.3h0v.6h0l-.4,3.4.7,3v.9l-1.2,4.3c0,.3-.2.6-.5.8h0c0,.1,14.7-1.7,14.7-1.7l10.8-1.6-.8-3.7c0-.5,0-1,.3-1.4,0,0,0-.1.2-.2.3-.3.7-.4,1.1-.5h0l4.4-.2c.3,0,.6,0,.9.2l.7.3,17.4-2.5,14.8-2.2,9.9-.9,15.5-1.8,7-1.3,12.2-1.7,21.1-2.7,1.1-.8s0-.1.2-.2l3.2-2.6c.2-.2.5-.3.8-.4l1.8-.3,3.4-2.3s.2-.1.3-.1l1.8-.8.6-1.8v-.3c0-.3.3-.5.6-.7l3.6-2.2v-1.5c.2-.2.2-.4.3-.6h0c0-.2.2-.3.4-.5l2.2-2.1v-1.7c.2-.2.2-.3.3-.4h0c0-.2,0-.3.2-.4l1.4-1.7c0-.1.2-.2.3-.3l5.7-4.7,5.5-6.8h-.3c-.4,0-.7-.1-1-.3l-2-1.5-2.6-1.3c-.2-.1-.4-.3-.6-.5l-1-1.4-1.9-1.4c-.2-.2-.4-.4-.5-.6l-.8-1.6-1.4-1.1-.3-.3-4.5-5.7c-.3-.4-.4-.9-.3-1.4l.5-2.7-1.1-4.1-2.8-2.2-2.6-.9c-.4-.1-.8-.4-1-.8l-1.7-3.2-1.3.7-1.3,2.6c-.2.4-.6.7-1,.9l-4.1,1.3c-.6.2-1.2,0-1.6-.3l-1.4-1.1-2.7-.4-1.7,2c-.4.4-1,.7-1.6.6l-1.4-.2c-.2,0-.5-.1-.7-.2l-3.8-2.4-2.1-.3-2.4.5h-.6l-2.7-.4c-.5,0-.9-.4-1.2-.8l-3.6-5.5-2.4-1.2-3.4,1.1c-.5.2-1.1,0-1.6-.3l-1.1-.8-1,.7v.2l.4.7c0,.1.2.2.2.4.2.4.2.8,0,1.2v.5h1.1v.4h0c0,.1,0,.3.2.4h0v.5h0l-.2,3.3c0,.7-.5,1.3-1.2,1.5l-.2.7h-.2ZM1141.5,381.7h-.3c0-.1-1.1,1.6-1.1,1.6l1,3.8c.2.6,0,1.2-.5,1.7-.4.4-1.1.6-1.7.4l-2.1-.6c-.5-.1-.9-.5-1.1-1l-1.2-2.5c0-.2-.2-.5-.2-.7v-1.9l-1.3.2-3.6,2.6c-.3.3-.8.4-1.2.3h-1.6c0-.1-1.2.9-1.2.9-.2.2-.5.4-.8.4l-4.3.8c-.5,0-1.1,0-1.5-.4s-.6-.9-.6-1.4l.2-3.3c0-.9.8-1.6,1.7-1.6h3.1l1.8-2.1c.2-.2.4-.4.7-.5l4.5-1.8,3.1-3.4c.3-.3.7-.5,1.1-.6h1.6c0-.1-1.7-3.8-1.7-3.8l-2.2-1.1c-.4-.2-.6-.5-.8-.8l-.5-1.2-6.6,1.9-21.5,5.7h0l-14.7,3.8-18,4.6-19.6,4.8-14.3,3-14.1,2.7-12.9,2.3-9.9,1.3-.4,1,.2,3.2c0,.4,0,.9-.4,1.2l-3.5,4.2-1.5,4.7c0,.2-.2.4-.3.6l-1.2,1.4c-.2.3-.5.4-.8.5h-1l-2.1-.7-3.2,2-1.6,3.1c-.2.3-.4.6-.8.8l-2,1h-.2c-.6.2-1.2,0-1.7-.4,0,0-.2-.1-.2-.2l-.7-1-1.3.9-.4,1.6v.3h0v.2h0v.3h-.2c0,.1-.3.2-.5.2h-.6l-1,4c-.2.7-.7,1.2-1.4,1.3l-1.7.3-3.5,2.6-5.2,5.5c-.2.3-.6.4-.9.5l-5.2,1.1-3,1.8-2,2.5-.4,3.2c0,.2,0,.4-.2.6l-1,1.9c-.3.5-.7.8-1.3.9l-2.8.4-.2.3.3,4.2,11-1.9,16.2-3.4,7-3.5c.2,0,.4-.2.6-.2h1.1c0-.1,3.7-3.1,3.7-3.1,0,0,.3-.2.4-.2l6.3-2.7s.3-.1.4-.1l12.7-1.9,17-2.6c.6,0,1.3.2,1.7.7l.5.7.5-.5c.6-.6,1.6-.7,2.3,0l4.5,3.7c.3.2.4.5.5.8l.9,2.6,24.7-5h1.3c.3,0,.6,0,.9.3l13,8.1,19.3,12.2,6.6-2.7c.2,0,.3-.1.5-.1l4.7-.5.6-1.1c.2-.4.6-.7,1-.9l.5-.2-.3-3.7v-.4l.4-2.7v-.4l2.6-6c0-.1,0-.3.2-.4l2.8-3.5s.2-.2.3-.3l3.2-2.6,2.1-2.4.9-1.8c0-.3.3-.5.6-.7l6.7-4.4c.2-.1.4-.2.7-.3l5.1-.8,1.4-1.9c.4-.5,1-.8,1.7-.7h.2l1.9-3.1-.2-.2h-3.2c0,.1-1.5,1.1-1.5,1.1l-2.2,2.5c-.4.5-1,.7-1.6.6l-4.5-.8c-.8-.1-1.4-.8-1.4-1.6s.4-1.5,1.2-1.8l3.5-1.2,2.1-3.1-.7-.3c-.6-.2-1.1-.8-1.2-1.4,0-.7.2-1.3.8-1.7l2.5-1.7h-3.9l-5.7-1.4c-.8-.2-1.4-1-1.3-1.8,0-.8.7-1.5,1.5-1.6l4.7-.6h1.1v-1.3c0-.7.4-1.4,1.1-1.7.7-.3,1.5-.1,2,.4l1.6,1.7h.2c.3-.3.7-.3,1-.3l4.4.4,1.7-.3,4-7.8c0-.3.3-.5.6-.7l2.2-1.5v-1.2l-.7-3.2-2-2.2-.5.2h-.3ZM940.5,258c-.5,0-.9-.3-1.2-.7l-1.1-1.4-3.1-2.8-2.7-.2c-.3,0-.7-.1-.9-.3l-1.6-1.2h-2.7c0,.1-18.5,3.9-18.5,3.9h0l-9.7,1.8,1.8,10.6,3,17.2,3.6,21.9,3.7,23.7h0c.6-.5,1.4-.5,2.1,0l1.4,1,3.3-1.1c.4-.1.9-.1,1.3.1l3.5,1.8c.3.1.5.3.7.6l3.4,5.2,1.7.2,2.4-.5h.6l2.7.4c.2,0,.5.1.7.2l3.8,2.4,1.7-2c.4-.4,1-.7,1.6-.6l4.1.6c.3,0,.6.2.8.4l1,.8,2.5-.8,1.3-2.5c.2-.3.4-.6.7-.8l3.3-1.7c.8-.4,1.9-.1,2.3.7l2.2,4.1,2.3.8c.2,0,.4.2.5.3l3,2.4h.9l2.7-1.3.3-3.4v-.7c.2-.5.6-.9,1.1-1.1h.3l-.8-4h0v-.5h0v-.3l2-6.8c0-.3.2-.5.4-.7l1-1c.5-.5,1.3-.7,2-.3l3,1.5-.4-6.1h0v-.5h0c0-.1,1-3,1-3,.2-.5.6-.9,1.1-1.1l1.2-.4v-1.4c0-.2,0-.3.3-.5l1.4-1.7c.4-.6,1.2-.8,1.8-.6l1.4.4,2.7-1.6,1.6-1.6,1.3-2.5c0-.1.2-.3.3-.4l2.8-3.1v-.4l-.3-3.9v-.5h0c0-.1.3-1.1.3-1.1l.8-3-.3-3.8v-.3l.6-6v-.3h0l.4-1.2.2-.6-.9-1.5c0-.2-.2-.4-.2-.6h0v-.8l.3-1.2-2.2-2.2c-.3-.3-.5-.8-.5-1.3h0v-.5h0c0-.2.2-.4.4-.5l2.5-2-8-36.2-8,5.2-6.2,4.8-5.8,7.6c-.2.2-.4.4-.7.6l-4.3,1.7c-.2,0-.4.1-.7.1h-3.4l-3.9,2.4h-.2c0,.1-2.4,1.2-2.4,1.2l-2.8,1.9c-.5.3-1.2.4-1.7,0l-2.3-1.1-3.6.4-1.4,1.2c-.4.3-.8.5-1.3.4l.5-.3h.2ZM995.6,395.9l-2.4.4-.6.6c-.2.2-.6.4-.9.5l-21.1,4-19.6,3.5-1.2.9c-.2.2-.5.3-.8.3l-21.5,2.8-12.1,1.7-7,1.3h0l-15.6,1.9-9.8.9-14.7,2.2-18,2.6c-.4,0-.7,0-1-.2l-.8-.4h-2l.7,3.5h0v.4h0v.5h0v.2h0v.2c0,.1-.2.2-.4.3h0c-.2,0-.3.2-.5.2h0l-12.7,1.9-20.8,2.6h-1.2c0,.1.5,1.6.5,1.6.2.6,0,1.3-.4,1.8l-1.1,1.1.4.8c.2.5.2,1,0,1.5,0,.2-.2.4-.4.5h0c0,.1-.3.2-.4.2l.5.5c.6.6.6,1.6,0,2.3l-1,1.1-.8,2.1,1.2,1.6c.4.5.4,1.1.2,1.7-.2.4-.5.8-.9,1h0c.4.6.3,1.4,0,2l-1.4,1.7c-.2.2-.4.4-.6.5l-2.4,1.2.5,1c.2.5.2,1,0,1.5l-.3.6.5.7c.3.4.4,1,.3,1.5,0,.5-.5.9-1,1.1l-1.5.7v.8c0,.4,0,.7-.3,1l-1.3,1.7-.2,2.4,1,2.1c0,.3.2.6,0,.9l-.2,2.3c0,.5-.3,1-.7,1.3s-.9.4-1.4.3h-.2v.2l22-2.5,25.1-3c.3-.4.7-.7,1.3-.8l16.6-1.8,19.3-2.4,27.3-4.1h.2l18.2-3,11.9-2.2-.4-5.1c0-.3,0-.6.2-.9l.8-1.6c.3-.5.7-.8,1.3-.9l2.8-.4.4-.9.4-3.4c0-.3.2-.7.4-.9l2.6-3.1c0-.2.3-.3.4-.4l3.5-2.1c.2-.1.4-.2.5-.2l4.9-1,4.9-5.2s0-.1.2-.2l3.9-2.9c.2-.2.5-.3.7-.3l1-.2,1.1-4.6c0-.5.4-.8.8-1.1h1.3l.2-.5c0-.4.3-.7.6-.9l3.1-2.3h0c.3-.2.7-.3,1.1-.2.4,0,.7.2,1,.5,0,0,0,.1.2.2l.9,1.2h0l1.5-3.1c0-.3.4-.5.6-.7l4.3-2.7c.4-.3,1-.3,1.5-.2l1.8.6.2-.2,1.5-4.7c0-.2.2-.4.3-.6l3.3-3.9v-2.8c-.2-.2,0-.4,0-.6v-.2l-.2.2h0ZM999,392.1l.3.2,9.4-1.2,12.8-2.3,14-2.6,14.2-3,19.5-4.7,18-4.6,14.7-3.8,21.5-5.7,7.9-2.3-.7-2.6v-1.2l-.8-1.2s0-.2-.2-.3l-.8-1.8-1.9.4h-.6l-2-.2-.2,1.1c0,.9-.8,1.5-1.7,1.5h-3.9c-.4,0-.8-.2-1.1-.4l-2.7-2.2-1.8-.2c-.5,0-.9-.3-1.2-.6l-1.9-2.3-4.4-2.2c-.7-.4-1.1-1.2-.9-2s1-1.3,1.8-1.3l6.6.4c.7,0,1.3.5,1.5,1.2l.5,1.5,3.4.9c.4.1.7.3.9.6l.2.2.8-.5v-.4l-.8-.9-3.8-1.1c-.6-.2-1-.6-1.2-1.1s0-1.1.2-1.6l1-1.3-1.2-2.8c-.2-.5-.2-1.2.2-1.6.3-.5.9-.8,1.5-.8h.4l-.8-.4s-.2-.1-.4-.2l-2.7-2.4c-.5-.4-.7-1-.6-1.7,0-.6.6-1.1,1.2-1.3l.5-.2v-2.8l.8-2.4-.3-.9-6.5-1.6c-.7-.2-1.2-.8-1.3-1.5v-.8l-1.4-.9-5.6.7h-.7l-2.1-.6c-.3,0-.5-.2-.7-.4l-2.3-2.2c-.2-.2-.4-.4-.4-.7l-2.8,1.6c-.3.2-.6.2-.9.2h-1c-.6,0-1.2-.4-1.5-.9l-1.7-3.3c-.2-.3-.2-.7-.2-1l.8-6.4c0-.9.9-1.5,1.7-1.5h.4v-.7c0-.6.4-1.1.9-1.4l.3-.2-.4-2.6-.2-.2-1.3-.3h-.2l-2.9-1c-.3-.1-.6-.3-.8-.6l-.6-.8h-2.6c-.3.1-.6.1-.9-.1l-2.3-1.2c-.6-.3-.9-.8-1-1.5v-2.5l-1.2-.5h-2.5l-.5,4.6c0,.6-.4,1.1-.9,1.3-.5.3-1.1.3-1.6,0l-11-5.2v1.2c0,.3,0,.5-.2.8l-.5,1,.4,1.8.2.9v.6c0,.2,0,.4-.2.6l-4.1,8.2c-.2.4-.6.7-1,.9l-1,.3-1.7,4.1c-.3.9-1.3,1.3-2.2,1l-1.2-.4-1.6,5.3v.8l-.4,2.8v.6l-1.6,3.1c-.3.6-.9,1-1.6,1l-5.3-.2c-.5,0-1-.3-1.3-.7l-.8-1v1.9c0,.3,0,.5-.2.8l-1.2,2.3v2.1c.2.4,0,.7,0,1.1l-2.2,3.4-.8,5.1c0,.2,0,.4-.2.5l-3.5,6.8-.5,1.8-.2.9,1.2,1.3c.6.6.7,1.6,0,2.3h0l-.8,1,.3.9v.5c0,.5-.2,1-.6,1.3l-3.5,3.1c-.4.4-1.1.5-1.6.4l-1.3-.4-3.4,2.7c-.4.3-.9.4-1.3.4h-.9c0-.1,0,.4,0,.4,0,.3-.2.7-.4.9l-1.4,1.7c-.2.2-.4.4-.7.5l-4.2,1.7-2,1.3c-.6.4-1.3.4-1.9,0l-2-1.3-2.9,3.6c-.3.3-.6.5-1.1.6l-2.1.4h-.9l-3.4-1.3h-.7c-.3,0-.7-.1-.9-.3l-3.3-2.2c-.2-.1-.3-.3-.4-.4l-1.2-1.6-5.4,6.7-.2.2-5.7,4.7-.9,1.2-.2,1.8c0,.2,0,.4-.2.6h0c0,.2-.2.3-.4.5l-2.2,2.1v1.7c-.2.3-.3.5-.4.7h0c0,.2-.3.4-.5.5l-3.8,2.4-.6,1.9v.2h0c0,.2-.2.3-.3.4h0c0,.1-.3.2-.4.3h0l-2.4,1.1-1,.7,10.5-1.9,20.6-3.9.6-.6c.3-.3.6-.4.9-.5l5.8-.9c.4,0,.8,0,1.1.2v.3h.1ZM975.2,337.5v.4h0c0,.2-.2.3-.4.4h0c-.2.1-.3.2-.6.3l-.7.2v.5l-.3,3v.3h0v.4h0c0,.1,0,.3-.2.3h0s-.2.2-.4.2l-3.9,1.9h-.4l.8,2.9v.8l-.5,2.3,3.8,4.9,1.6,1.2c.2.2.4.4.5.6l.8,1.6,1.8,1.3c0,.1.3.2.4.4l.9,1.2,2.4,1.2s.2,0,.2.2l1.7,1.2h3.3c.2,0,.3,0,.5.1h0s.3.1.4.2h0l.3.3h0v.3h0v.5h0v1.7l1,1.6,2.6,1.7h.5c.2,0,.4,0,.6.1l3.3,1.2,1-.2,3.5-4.4c.6-.7,1.6-.8,2.3-.4l2.4,1.6,1.2-.8s.2-.1.3-.1l3.9-1.6.8-1,.2-1.8c0-.5.3-.9.7-1.2.4-.3.9-.4,1.3-.4l2,.3,3.5-2.8c.4-.4,1-.5,1.6-.3l1.2.3,2-1.7v-.2l-.2-.4v-.4c0-.4,0-.9.4-1.2l.4-.5-.9-.9c-.3-.3-.5-.8-.5-1.2v-.4l.7-2.9.2-1v-.4l3.4-6.8.8-5.2c0-.2,0-.5.3-.7l2.1-3.2v-2c-.2-.3,0-.6,0-.9l1.2-2.4v-4.5c0-.5.3-1.1.7-1.4.4-.3,1-.4,1.5-.3l2.1.6c.4.1.7.3.9.6l1.2,1.7h3.3c0,.1.9-1.7.9-1.7l.4-3.4v-.3l2.2-7.2c0-.5.5-.8.9-1s.9-.3,1.4,0l1.4.5,1.4-3.3c.2-.5.6-.8,1.1-1l1.1-.4,3.5-7-.4-1.8-.2-.9v-.6c0-.2,0-.4.2-.6l.4-.7.2-.5v-3.5c0-.6.3-1.1.8-1.5.5-.3,1.1-.4,1.7-.1l11.2,5.3.3-3.4-.2-1.4-1.4-1.4-1.3-.7c-.3-.2-.6-.4-.7-.7l-.7-1.3-.5.2h0c-.5.2-1.1.2-1.5,0l-3.6-1.8h-.3c0,.1-.9,1.8-.9,1.8-.2.4-.5.6-.9.8l-2.2,1-.3,1.8c0,.6-.6,1.2-1.2,1.4l-.8.3-1.5.5h0c-.3,0-.5.1-.8,0l-4.1-.6h-.3l-.6,1.5v.2l-1.4,2.7c0,.2-.2.3-.4.5h0c-.2.2-.5.4-.8.4h-.8l-1.1-.4-1.1,2.2c0,.1,0,.2-.2.4l-5.9,6.8c-.4.5-1.1.7-1.7.5h0c-.6-.2-1.1-.7-1.3-1.3l-2.9-13.2-21.9,4.8c-.9.2-1.9-.4-2.1-1.3l-3.2-14.5-.5,5.1.3,3.9v.6l-1.1,4,.3,4.8v.3h0v.4h0c0,.2,0,.3-.2.4h0l-3.2,3.5-1.3,2.5c0,.2-.2.3-.3.5l-2,1.9-.3.3-3.5,2.1c-.4.2-.9.3-1.4.2l-1-.3-.3.4v1.8h0c0,.2,0,.3-.2.4h0c0,.2-.2.3-.3.4h0s-.3.2-.5.2l-1.5.5-.6,1.8.5,7.3v.3h0v.5h0c0,.1,0,.3-.2.4h0c0,.1-.2.2-.4.3l-1.4.8c-.5.3-1.1.3-1.6,0l-3-1.5-1.7,5.7,1,5v.6h0c0,.1-.7,1.9-.7,1.9h-.3ZM1135.4,295.6l-.6-1.4h-.8c-.4.2-.9.1-1.2,0l-4.5-2.8c-.5-.3-.8-.7-.8-1.3v-.8l-2-1.3c-.3-.2-.5-.5-.7-.9l-1.5-4.5-1.3-2.3-4.4-3.1c-.5-.4-.8-1-.7-1.6v-1.5l-1.2-1.4c-.5-.5-.6-1.3-.4-1.9l1.7-3.9h-1l-1.5,1.7-.6,1.1.5,1.6,6.5,19,4.5,13.7,11.4-2.9-.2-.4-1-.5c-.7-.4-1.1-1.1-.9-1.9l.5-2.6h.2ZM1050.4,289.7l.8-.3h0l.2-1.7c0-.3.2-.6.3-.8l-5.2,1.3h0l.7,1,3,.4h.2ZM1134,313.4c0-.4.3-.8.7-1.1l.3-2.7c0-.6.4-1.1,1-1.4l1.1-.6v-1l-.2-.4c-.4-.4-.6-.9-.5-1.5h0c0-.1-11.5,2.8-11.5,2.8-.5.1-1,0-1.4-.3h0c0-.1-.3-.2-.4-.4h0c0-.1-.2-.3-.3-.5l-5-15.3-6.8-19.7-11.5,3.2-26,6.9h0l-7.1,1.8h0s.2.1.3.2h0c0,.1,0,.2.2.3h0c0,.1,1.3,2.4,1.3,2.4l1.1.6c.2,0,.3.2.5.3l1.9,2c.2.3.4.6.5.9v.7h3.1c.3-.1.6-.1.9.1l2.3,1.2c.6.3.9.8,1,1.5v2.5l1.1.5h3.1c.6-.1,1.1.1,1.5.6l.8,1.1,1.2.4.8-1.1c.5-.7,1.4-.9,2.2-.5l3.9,2c.4.2.7.6.9,1v1.5l-1.8,2.8.3,2.5v.8l-1,2.9c0,.4-.4.7-.8,1l-.7.4-.7,2.7.3.9,2.3-2.5c.4-.4.9-.6,1.4-.6s1,.3,1.3.8l1.8,2.7,1.2.9,3.7.7,3-.7h1l2.9,1.2h0l-1.5-2.7c0-.3-.2-.6-.2-.9v-1.2l-3.1-2.8c-.2-.2-.4-.5-.5-.7l-1.9-5.7-.7-1.2c-.2-.4-.3-.8-.2-1.2l.7-3.9-.7-1.4c-.4-.8-.2-1.7.5-2.2l.4-.3-2-4c-.2-.4-.2-.9,0-1.3l.5-1.4-.5-.4c-.4-.4-.7-.9-.6-1.5,0-.6.4-1.1.9-1.3l4.3-2.3,2.3-3.7c.3-.5.9-.8,1.5-.8s1.2.3,1.5.8l1.4,2.2c.4.6.3,1.5,0,2l-2.3,2.8-.7,3,1.8.2c.8,0,1.4.7,1.5,1.5l.4,3.1c0,.4,0,.9-.3,1.2l-.4.5.5.3c.7.4,1.1,1.1.9,1.9l-.6,3.1c0,.3-.2.6-.4.8l2,1c.8.4,1.2,1.3.8,2.2l-1.2,3.3.3,1.7c0,.5,0,.9-.3,1.3l1.4,1.4,4.2,1.4,1.6-1.2c.6-.5,1.5-.5,2.1,0l1.7,1.4c.6.4.8,1.2.6,1.8.4,0,.7.3,1,.5.3.4.5.8.4,1.3l-.2,2.5,2.3-.4c.2-.5.5-.9,1-1.1l4.6-1.8.4-2.2h-.4ZM1036.6,297.9l1.7-3.3c0-.2.2-.3.4-.5h0c0-.1.3-.2.5-.3h1.1l1.1.4.7-1.3,1.4-3.7-12.6,3.1,2.1,9.8,3.5-4v-.2h.1ZM1146.2,258.6l.2-3.1-.7-5.1c0-.5,0-1,.4-1.4,0-.1.3-.2.4-.3l-.7-7.6-.9-1.2-3.1.3c-.3,0-.7,0-.9-.2l-2.3-1.2c-.7-.3-1-1.1-.9-1.8l.6-4.1c0-.3.2-.6.4-.9l1.2-1.4c.3-.4.8-.6,1.2-.6l.5-1.1.6-6.3-.2-.5-18.3-4.9-1.5,1.8v2.9l-2,4.9c0,.1,0,.2-.2.3l-.9,1.3,1.2,1.1c.4.4.6.9.6,1.4l-.2,3.3c0,.5-.2.9-.6,1.2l-.9.8.9,2.8h.7c.2-.1.4-.1.6-.1h0c.2,0,.3,0,.5.2h0s0,.1.2.2h0c0,.1.2.3.3.5l1.1,2.6,9.2,5.6c.4.2.7.7.8,1.1,0,.5,0,1-.3,1.4l-1.8,2.5h0c0,.1-3.3,3.9-3.3,3.9l-1.3,4.3c0,.4-.4.8-.8,1l-3.3,2-1.8,2.1-.5,3.3.9,4.3,4.2,2.1,2.4.8c.2,0,.3.1.4.2l2.5,1.6,1.7-.8c.2,0,.4-.1.6-.2h.5l3.9,1c.8.2,1.3.9,1.3,1.7v2.4l.5-.9.6-4.8c0-.2,0-.4.2-.6l1.1-2.2,2.6-9.8c0-.3.2-.5.4-.7l1.9-2.1.6-1.8-.4-.7c-.2-.3-.2-.6-.2-1l.2.5h0ZM1171.4,214.6v-.2l-2.3,1h-.2l-6.8,1.9-1.4,2c-.3.4-.7.6-1.1.7l-5,.8-.2.4c-.2.3-.4.6-.7.7l-3.5,2-.4,1.4c0,.4-.4.8-.8,1l-2.1,1.2-.7,2.3,1.1-1.2c.5-.5,1.2-.7,1.8-.4l1.9.7,2-1.8c0-.1.3-.2.4-.3l3.7-1.8,2.6-2.4c.2-.1.4-.3.6-.3l5.8-2.2,4.1-3.5c.2-.2.5-.3.8-.4l2.3-.5.7-.7h-.7c-.7.2-1.3-.1-1.6-.6l-.2.2h-.1ZM1025.6,218.6l17.8-4.2,20.7-5.1,11.9-3.2,27.2-7.3c.4-.1.9,0,1.2.1l4.5,2.3,2.4.8c.2,0,.4.2.5.3h0l.2.2s0,.2.2.3l.8,1.4v.3l1.4,4.4,1.7,2,1.9,1,2.6-.3c.5,0,1.1.1,1.4.5l1.6,1.6,16.7,4.5-.5-1.6c-.2-.5,0-1.1.2-1.6.3-.5.8-.7,1.4-.7h1c.7,0,1.4.5,1.6,1.2l.3.9h0v-.7c0-.1,0-.2.2-.3h0c0-.1,3.2-3.7,3.2-3.7l-.6-.4c-.3-.2-.6-.6-.7-1l-5-21.9-.4-.2c-.6-.3-.9-.9-1-1.5l-.6-20.7-6.5-22.9-.8-.9h-2.1c-.5,0-.9-.2-1.3-.6,0,0,0-.1-.2-.2h0c0-.1,0-.2-.2-.4v-.7l.2-2.9-2.8-6.7-.7-.7c-.3-.3-.5-.8-.5-1.2v-4.9c0-.3,0-.5.2-.8l.3-.5-.9-2.8v-3.4l-1.9-2.1v-.2l-1.4-2.2c-.2-.3-.3-.6-.3-.9v-3.7l-.9-.7c-.3-.3-.5-.6-.6-1l-.6-3-25.9,7.9h-.4l-3,.5-4,3.6-2.2,2.5-6.7,10.4-.7,2,.4.7c.3.6.3,1.3,0,1.8l-4.5,7c0,.1-.2.3-.3.4l-2.4,2-1.2,1.5c.3-.1.7-.2,1,0l1.8.4c.6.1,1.1.6,1.3,1.3l1,3.9c.2.7,0,1.4-.7,1.8l-1,.8,3,4.5c.2.2.3.5.3.8l.2,2.5c0,.3,0,.6-.2.9l-.8,1.6c-.2.4-.6.7-1,.9l-3.1,1-4.1,4.7-.3,1.3c0,.4-.4.8-.8,1.1l-5.1,3.3c-.2.1-.4.2-.6.2l-7.9,1.6-3.3,2c-.3.2-.6.3-.9.2h-2c-.2,0-.4,0-.6-.1l-3-1.1-7.3.3-2.2,1c-.2,0-.4.1-.6.2l-3.2.2-5.9,2.5-6.2,3.4.6,2.8h2c.9,0,1.7.6,1.8,1.5l.3,2.8,1.9,3.2c.2.3.3.8.2,1.2l-.4,2.7c0,.4-.2.7-.5,1l-1.7,1.7-1.6,4.1c0,.2-.2.4-.4.6l-3.8,3.8-1.9,2.8s0,.2-.2.2l-4.7,5,1.2,5.6,17.2-4.1.2-.4h.1ZM1145.6,218.9v.4l.2,2.2h0l1.2-2.3-1.7-1.5s-.2-.2-.2-.3l.5,1.5h0ZM1028.5,289.1l23.4-5.7,20.7-5.1,26-6.9,12.3-3.4.6-1.3c0-.1.2-.3.3-.4l2.2-2.3c.3-.3.7-.5,1.2-.6h3.1c0-.6.4-1,.8-1.3l4.4-2.8v-1.5c.2-.3.3-.7.5-.9l1.3-1.6v-.2l3.5-4,.7-.9-8.1-5c-.3-.2-.6-.5-.7-.8l-.8-1.9h-.8c-.2.2-.4.2-.6.1h0c-.2,0-.4-.1-.5-.2h0s-.2-.2-.3-.3h0c0-.2-.2-.3-.3-.5l-1.7-5.3c-.2-.7,0-1.4.5-1.8l1.2-1.1v-1.8l-1.6-1.6c-.6-.6-.7-1.6-.2-2.3l1.7-2.4,1.8-4.4v-2.6c0-.4.2-.8.4-1.1l1.6-1.9-.2-.2-2.3.3c-.3,0-.7,0-1-.2l-2.7-1.4c-.2-.1-.4-.3-.5-.4h0l-2.1-2.5c0-.2-.3-.4-.3-.6l-1.5-4.5-.3-.6-1.9-.6s-.2,0-.3-.1l-4.1-2.1-26.5,7.1-11.9,3.2-20.8,5.2-17.8,4.2-19,4.6c-.4.1-.9,0-1.3-.2h0q0-.1-.2-.2h0v-.3h0c0-.1,0-.3-.2-.4h0l-1.2-5.5h0l-9.8,8.7s-.2.2-.3.2l-1.6.9,14.2,64.3,22-4.8-.6-.3h-.4ZM1248.2,59.9h0l-4.7-5.5-1.3,1.3c-.6.6-1.5.7-2.2.2l-3.7-2.4c-.5-.3-.8-.8-.8-1.4v-2.9l-2.2-2.3c-.6-.7-.6-1.6,0-2.3h0l-2.6,1c-.4,0-.8.2-1.1,0l-4.7-1.4c-.7-.2-1.2-.9-1.2-1.7v-1.8h0v-1.7l-12.9-33.8-4.4-3.1L1200.6,0h-.6l-.7,1.4c-.2.4-.6.7-1,.9l-2.2.7-1.1,2.1c-.2.4-.6.7-1,.9l-1.9.6-1.9,2c-.4.4-1,.6-1.6.5l-3.1-.6c-.3,0-.7-.2-.9-.5l-1-1c-.2-.2-.3-.4-.4-.7l-.9-2.8h-1.5l-.2.2-6.8,25.5,1.4,8.2c0,.5,0,.9-.3,1.3l-1.5,2.1-.2,4.1.8,1.1c.3.3.4.8.3,1.2l-.2,2.1.2,1.4,1.6,1.6c.5.5.6,1.2.4,1.9l-1.7,4.1.4.6c.3.6.3,1.4,0,1.9l-2.8,3.7-.8,2.4v3.2l-1,2.7.6,1.8v1.3l-1.2,2.3c-.3.5-.8.9-1.4.9s-1.2-.2-1.5-.7l-.3-.5,6.6,16.6,12.1,31.1v.2l1.2,4.5,4.2,3c.4.3.6.7.7,1.1l.3,1.4,1.1.8h0l.3-3.8.2-3.3c0-.4.2-.8.5-1.1l1.6-1.7-.6-3.4c0-.7.2-1.4.8-1.8l1.6-1-1.5-2.7c-.3-.5-.3-1.1,0-1.6l1.8-3.5v-.2l2-2.9c.5-.8,1.6-1,2.4-.5l2.9,1.9.9-3.9c0-.3.2-.5.3-.7l1.4-1.8c.4-.6,1.2-.8,1.9-.6h.2v-1c0-.5.2-1,.5-1.3l1-1c.5-.5,1.3-.7,2-.3l1.9,1,.5-2.4-.2-2.3v-.2l.2-5.3v-.4l.3-1.2-.9-1.1c-.6-.7-.6-1.6,0-2.3l2.4-2.7c.3-.4.8-.6,1.3-.6s1,.2,1.3.6l2.7,3.1,1.4.2-.6-.9c-.5-.7-.3-1.7.3-2.3l5.3-4.7c.2-.2.5-.3.8-.4l3.3-.8c.8-.2,1.6.2,2,1l.5,1.1,1.1-1.1v-1l-.7-1c-.5-.7-.5-1.6,0-2.2l1.2-1.4c.3-.4.8-.6,1.3-.6h2.5l.5-.2-.2-1.9c0-.5,0-1,.5-1.4s.9-.6,1.4-.5h2.2l.5-.8c.2-.5.7-.8,1.2-.9l1.2-.2,2.1-4.9-1.8-1.9h-.3ZM887.3,136.5l-2.9.7c-.4,0-.8,0-1.2-.1l-2.6-1.3-3.4-1-2.5,1.5-1.8,2.9v2.3l1.9,1.7c.4.3.6.8.6,1.3v2c0,.9-.7,1.6-1.5,1.7l-2.6.3-2,1.8-.7,2,.8,3.4v.5l-.2,5.3c0,.6-.4,1.2-1,1.5-.5.3-1.2.2-1.7,0v2.1c0,.5-.4,1-.8,1.3-.4.3-.9.4-1.4.3l-1.8-.4c-.9-.2-1.5-1.1-1.3-2l.5-2.7-.6-1.9h0l-1.2,3.2c-.2.5-.5.8-1,1s-1,.2-1.4,0l-.4-.2-.4.8c-.2.4-.5.7-.9.8l-.3,4.2c0,.7-.5,1.3-1.2,1.5l-1.7.5v.3l.6,2.2v.3l.7,6.3v.8l-2.6,7c0,.1,0,.3-.2.4l-1.1,1.6,1.5,2.6c0,.2.2.4.2.7l.7,5.3v.8l-.9,2.7-.2,1.7.9,2.1,6.9,12.3,2,4c0,.2,0,.3.2.5l1.1,7.4v7.6c.2.1,0,.3,0,.4l-1.6,7v.4l-1.9,3.7-1.6,5.9v.3l-1.7,3.3,8.2-1.1,20.8-3.6h0l11.7-1.9h.7c.2,0,.3.1.4.2h0s.2.2.3.3h0c0,.1.2.3.2.5h0l9.5-1.7,17.3-3.5.2-1.5v-.4l2.4-5.6c0-.4.4-.7.8-.8l.5-.3.2-6.2v-.2l.2-1.4c0-.2,0-.4.2-.5l1.2-2.3c0-.2.3-.4.5-.6l2.6-2.1-.4-3.7v-.7l.6-2.1c0-.2,0-.4.2-.5l2-2.9c.5-.7,1.4-1,2.2-.6l1.9,1c.2,0,.3.2.4.3v-2.2l-.5-1c-.2-.3-.3-.7-.2-1l.6-5.4-1.3-1.8s0-.2-.2-.3l-2.3-5.1v-.3l-1.3-4.8-1.2-1.9c0-.1,0-.2-.2-.4l-2.6-8-1.7-2.5-2.7-2.2-1.8-.6-2.4,1.8h-.2c0,.1-2.8,1.6-2.8,1.6l-1.8,3.6-1.3,4.5c-.2.8-1.1,1.4-1.9,1.2h0l-1.4,2.8c-.4.7-1.2,1.1-1.9.9l-5.3-1.2c-.3,0-.5-.2-.8-.4l-1.4-1.2c-.3-.3-.5-.7-.6-1.1l-.6-4.7v-.7l.8-2.5v-.3l.8-1.6c.2-.5.7-.8,1.2-.9l2.2-.5,1.1-1.1.4-6c0-.5.3-1,.7-1.3l2.6-1.9.3-1.7-1.1-6.2v-.5l.2-1.9-1.8-4.7-2.8-2.3c-.4-.4-.7-.9-.6-1.5l.2-2.3c0-.6.4-1.2,1-1.4l.9-.4h0l-1.7-1.9c-.4-.4-.6-.9-.5-1.5v-.3l-1.5-1.1h-3.4c-.2,0-.4,0-.6-.1l-3.7-1.4h-.2l-1.9-1h-3.1c-.5.1-1,0-1.4-.5l-2.8-3.1-1.2-.3h.6ZM833.2,263c0-.1-.2-.3-.3-.4l-2.1-4.5v-.2l-1.1-3.4-1.3-.7c-.3-.2-.6-.5-.8-.8l-2.1-4.5c0-.2-.2-.5-.2-.7v-4.5l-18.1,2.4-23.7,2.2-16.1,1.8,1.5.9c.3.2.6.5.7.8l1.3,3.2,5.1,3.1c.3.2.5.5.7.8l1.2,2.5c0,.3.2.6,0,.9l-.8,6.4v.7s0,.2-.2.3l-1.8,1.9-.4,4.1v.5h0v.3s0,.1-.2.2l-2,1.9c-.2.2-.4.3-.7.4l-3.1,1-1.9,2c-.3.3-.6.5-1,.5l-5.8,1-.7.8-.3,3,.2,1,1.6.8c.3.2.6.4.8.8l1,2c0,.2.2.4.2.6l.4,4.1c0,.4,0,.9-.4,1.2l-2.4,3.1-.2,3.7c0,.4-.2.8-.4,1.1h0l-.4.5-.7.9h0c0,.2-.2.3-.4.4h0l-3.4,1.6.6,5v.6h0c0,.3-.2.6-.4.8h0c0,.1-.3.2-.5.3l-.5.2-.7,1.4-.2,3.7,1,4.1.9,1.8c0,.2.2.4.2.6v2.1l2.4,3.7,6.1,4.5c0,.1.3.2.4.4l1.5,2.1,5.3,3.2c.2.1.4.3.6.5l2.5,3.7c0,.2.2.4.3.6l1.3,5.9.6,1.2.4.2,2.5-2c.4-.4,1-.5,1.5-.3l6,1.6c.3,0,.6.3.9.5l1.5,1.8c.5.5.6,1.3.2,1.9l-1.1,2.3.3,2.6v.8l-1,2.9-2.2,6.8,1,1.8,5.5,5.1,2.2.7,2.1.6c.2,0,.4.1.6.3l1.9,1.4,2.7.9c.3.1.6.3.8.6l2,2.7,1.6.4c.6.2,1,.6,1.2,1.1l1.3,3.9,2,3.4c.2.3.3.7.2,1.1l-.2,2.3v.4l-.7,2,4,5.2h.2c0-.3.3-.3.5-.4h0c.3,0,.6-.1.9,0h0l2.4-4.7c.2-.5.7-.8,1.2-.9l3.3-.8h1l6.8,2.5,2.1.2.2-.7-1.5-1.8c-.2-.2-.3-.5-.4-.8l-.4-2.1v-.8l.8-2.5c.2-.5.5-.9,1-1.1l3.7-1.5h0l3.4-1.1-1.7-2.2c-.4-.5-.5-1.2-.2-1.8l1.8-3.6v-.8l-1-7.2v-.7l.4-1.8c0-.3.2-.6.5-.9l.6-.6-.2-.2c-.5-.4-.7-1-.6-1.6v-.3l.4-1.1.6-1.8c.2-.5.6-.9,1.1-1.1l1.7-.5,1.1-2.2-.2-.5v-.9h0v-.4h0c0-.1,0-.2.2-.4l1.2-1.3v-1.2l.4-1.1.6-1.8c0-.2.2-.4.3-.6l.9-1.1.5-1.5-1.4-2.7c0-.2-.2-.4-.2-.7v-1.9l-.7-.5s-.2-.2-.2-.3l-2.7-4.3v-1.1h0v-.3h0c0-.2,0-.3.3-.5l.9-1.1-.4-1.9v-.3h0v-.5h0c0-.3,0-.4.2-.5h0l1.2-1.6-1.2-9.3-1.7-13-2.4-17.4-4-30-1.2-1.4h-.4ZM711.6,184l4.1,3.2,3.6.5c.2,0,.3,0,.5.2h.2q0,.1.2.3l2.5,2.5,3.5.5s.3,0,.4.1h0s.2,0,.2.1h0l3.5,2.8c.2.1.3.3.4.4l2.5,4,3.5,2.6h1.9c.3-.2.6,0,.9,0l2.7,1.4s.2.1.3.2h0l3.1,2.6c.3.2.4.5.5.8l1.5,4.7v.4l.7,7.9,1.1,2.7,1.3.4c.3,0,.5.2.7.4h0s0,.1.2.2v.6l.6,1.8h0v1.2l-1.4,3.6,1.6,6.5,2,4.4,1.1.6,5.7.6c.3,0,.5.1.7.3h0s0,.1.2.2h0v.5l1.5,2.9v.2l18.2-2,23.7-2.2,18-2.4-.6-3.1v-.6l.2-1.2v-2.7l-1.3-1.3c-.2-.2-.4-.5-.4-.8l-.3-1.7-1.5-2c-.3-.4-.4-.9-.3-1.4l.3-1.3-1.2-4.7v-.6l.2-3.3v-.4l.9-2.6-.2-3.2v-.7l1.4-3.5-1-2.9v-.3l-.4-3.1v-.6l1.2-5.3c0-.2.2-.5.3-.6l1.5-2,.5-1-1.1-1.9c-.2-.3-.2-.6-.2-1l.4-6.6v-.4l1.7-5.3.3-2.5-1.2-.8-1.5.9-.8.9-1.9,4.6c0,.2-.2.5-.4.6l-2.7,2.5c0,.1-.3.2-.5.3l-2.5,1.2c-.6.3-1.3.2-1.8-.2s-.8-1-.7-1.6l.8-5.5v-.4l1.9-4.7.4-1.6c0-.5.4-.9.8-1.1l2.7-1.7v-1.4l-2-1.4c-.5-.3-.8-.9-.8-1.5v-2.4l.3-1.4h-2.7c-.6,0-1.1-.3-1.4-.8-.3-.4-.4-1-.2-1.5h0l1-2.9-.6-5.1-1.5-1.1-3.3-.4c-.7,0-1.2-.5-1.5-1.2l-1.1-3.4-.6-.3-3-.2h-.2l-3.9-.7-1.4.7c-.3.2-.7.2-1,.2l-4.1-.6h-.3l-6.5-2.3-21.5-3.6c-.5,0-.9-.4-1.2-.8l-2.5-4.3-2.8-.6c-.6,0-1.1-.6-1.3-1.2h0l-2.1-.2c-.2,0-.5,0-.7-.2l-2.3-1.2h0c0,.3-.4.5-.6.7l-2.2,1.4c-.5.3-1.2.4-1.8,0-.6-.3-.9-.9-.9-1.6l.2-6.2c0-.3,0-.5.2-.7l1-2-.3-.3-.9.3-2.8,3c-.4.5-1.1.7-1.7.5l-1.2-.3-2.8,2.5s-.3.2-.5.3l-8,3.3h-.3l-3.3.8c-.5,0-.9,0-1.3-.2l-1.7-1.1-.7,1.4c-.2.4-.6.7-1,.9l-.5.2,1.2,16.4c0,.4,0,.9-.4,1.2l-1.4,1.7c0,.2-.3.3-.5.4l-6.2,3.5-1.2,4c0,.3-.2.5-.4.7l-1.4,1.4.2,1.9,1.4.2c.2,0,.4,0,.5.2h0s.2.2.3.3h0l2.3,3.1c.3.4.4,1,.3,1.5l-1.3,4.5-.2,2.9.5,2.5c0,.6,0,1.2-.5,1.6l-.3.3.9,3.5v.6l-.5,4.1h2.1ZM759.8,124.6c.5,0,.9.4,1.1.8l2.5,4.2,20.8,3.5h.3l6.5,2.3,3.4.5,1.5-.7c.3-.2.7-.2,1.1-.2l4.4.8,3.2.2c.2,0,.5,0,.7.2l1.6.8c.4.2.7.6.9,1l1,3,2.6.3c.3,0,.6.1.8.3l2.5,1.8c.4.3.7.7.7,1.2l.7,6.3h0v.5h0v.2l-.4,1h2.4c.5,0,1,.3,1.4.7.3.4.5,1,.3,1.5h0l-.8,3.3v.8h.2c0,.1,0-.2,0-.2,0,0,0-.1.2-.2l3.3-7.5,1-3.8v-.2l1.6-4.1c0-.3.3-.6.6-.8l1-.7.3-3c0-.6.4-1.1.9-1.3.5-.3,1.1-.3,1.6,0l1.6.8c.4.2.7.6.9,1l1.4-3.6c.2-.5.5-.8,1-1s1-.1,1.4,0l.4.2,1.1-1.1c.5-.4,1.1-.6,1.7-.4.6.2,1.1.7,1.2,1.3l.3,1.7,1-.7,1.8-4.4c.2-.5.6-.8,1.1-1l3.5-1.1h.2l7.7-1.4,1.6-3.1c.2-.5.7-.8,1.3-.9l4.3-.8h.6l7.2,1.2c.3,0,.6.2.8.4l3.4,2.9v-.7l.8-3.5c.2-.8,1-1.4,1.9-1.3l4.7.4,8,.2-1-.8c-.4-.3-.7-.8-.7-1.4v-.4l-4-.6c-.6,0-1.2-.5-1.4-1.1s0-1.3.3-1.7l.5-.6-.7-2c-.2-.5,0-1.1.2-1.5.3-.4.7-.7,1.1-.7l-.2-.4c-.2-.3-.3-.7-.2-1.1v-.5l-.9.8c-.3.2-.6.3-.9.3h-1.6l-.5,1.2s-.2.3-.3.4l-1.2,1.3c-.3.4-.7.6-1.2.6s-.9,0-1.3-.5l-1.4-1.3-2.2,1.2c-.4.2-.8.2-1.2.2l-5.3-1.2c-.8-.2-1.4-.9-1.4-1.7v-5.4h-2l-5.5,3.7c-.3.2-.6.3-.9.3l-6.7.3-4.6,1.8c-.4.2-.9.2-1.4,0l-1.5,1.7s-.2.2-.4.3l-4,2.5-2.2,3.4c-.5.8-1.5,1-2.3.6l-1.8-.9-1.5,1.1c-.7.5-1.6.4-2.2,0l-1.7-1.6-1.1.2-2.9,1.3h-.6l-2.5.2c-.8,0-1.4-.4-1.7-1l-.8-1.8-.9-.2c-.4,0-.7-.3-1-.6l-4.2-5.4-2.8-1.4h-5.2l-2.1.6h-1.3l-1.6,2c-.3.3-.6.6-1.1.6l-2.1.4c-.5,0-1.1,0-1.5-.4s-.6-.9-.6-1.4l.2-3.8-1.7-3h-.6c-.4,0-.7-.3-1-.4-.4,0-.7-.4-.9-.7l-.2-.3-2.1,2.1-1.1,2.9c-.2.6-.7,1-1.2,1.1l-2.7.6-1.4,2c0,.2-.2.3-.4.4l-3.1,2.3c-.2,0-.4.2-.6.3l-7.9,2-3.4,4c0,.2-.3.3-.5.4l-5.3,2.8.8.2h.5Z"/>
</svg>