<?xml version="1.0" encoding="UTF-8"?>
<svg id="Layer_1" xmlns="http://www.w3.org/2000/svg" version="1.1" viewBox="0 0 98.2 110.6">
  <!-- Generator: Adobe Illustrator 30.2.1, SVG Export Plug-In . SVG Version: 2.1.1 Build 1)  -->
  <path fill="#fb793c" d="M41.5,26.1c-.5,0-.9-.3-1.2-.7l-1.1-1.4-3.1-2.8-2.7-.2c-.3,0-.7-.1-.9-.3l-1.6-1.2h-2.7c0,.1-18.5,3.9-18.5,3.9h0l-9.7,1.8,1.8,10.6,3,17.2,3.6,21.9,3.7,23.7h0c.6-.5,1.4-.5,2.1,0l1.4,1,3.3-1.1c.4-.1.9-.1,1.3.1l3.5,1.8c.3.1.5.3.7.6l3.4,5.2,1.7.2,2.4-.5h.6l2.7.4c.2,0,.5.1.7.2l3.8,2.4,1.7-2c.4-.4,1-.7,1.6-.6l4.1.6c.3,0,.6.2.8.4l1,.8,2.5-.8,1.3-2.5c.2-.3.4-.6.7-.8l3.3-1.7c.8-.4,1.9-.1,2.3.7l2.2,4.1,2.3.8c.2,0,.4.2.5.3l3,2.4h.9l2.7-1.3.3-3.4v-.3c0-.2,0-.3,0-.4.2-.5.6-.9,1.1-1.1h.3l-.8-4h0v-.5h0v-.3l2-6.8c0-.3.2-.5.4-.7l1-1c.5-.5,1.3-.7,2-.3l3,1.5-.4-6.1h0v-.5h0c0-.1,1-3,1-3,.2-.5.6-.9,1.1-1.1l1.2-.4v-1.4c0-.2,0-.3.3-.5l1.4-1.7c.4-.6,1.2-.8,1.8-.6l1.4.4,2.7-1.6,1.6-1.6,1.3-2.5c0-.1.2-.3.3-.4l2.8-3.1v-.4l-.3-3.9v-.5h0c0-.1.3-1.1.3-1.1l.8-3-.3-3.8v-.3l.6-6v-.3h0l.4-1.2.2-.6-.9-1.5c0-.2-.2-.4-.2-.6h0v-.8l.3-1.2-2.2-2.2c-.3-.3-.5-.8-.5-1.3h0c0-.2,0-.4,0-.5h0c0-.2.2-.4.4-.5l2.5-2L89.7,0l-8,5.2-6.2,4.8-5.8,7.6c-.2.2-.4.4-.7.6l-4.3,1.7c-.2,0-.4.1-.7.1h-3.4l-3.9,2.4s0,0-.2.1l-2.4,1.1-2.8,1.9c-.5.3-1.2.4-1.7,0l-2.3-1.1-3.6.4-1.4,1.2c-.4.3-.8.5-1.3.4l.5-.3Z"/>
</svg>