<?xml version="1.0" encoding="UTF-8"?>
<svg id="Layer_2" xmlns="http://www.w3.org/2000/svg" version="1.1" viewBox="0 0 64 48">
  <!-- Generator: Adobe Illustrator 30.4.0, SVG Export Plug-In . SVG Version: 2.1.4 Build 226)  -->
  <defs>
    <style>
      .st0 {
        fill: #fff;
      }
    </style>
  </defs>
  <path id="Background" class="st0" d="M60.01,22.59l-1.38,7.74h2.24c2.43,0,3.93,2.63,2.68,4.71l-2.93,4.86c-.57.94-1.58,1.51-2.68,1.51h-1.57l-.07.38c-.63,3.55-3.74,6.15-7.37,6.15l-40.89.07c-1.45,0-2.8-.32-4-.97-1.28-.68-2.29-1.66-3.01-2.91-.69-1.2-1.05-2.56-1.05-4.03,0-.54.05-1.09.14-1.67.28-1.55.89-2.97,1.82-4.22.83-1.12,1.87-2.02,3.05-2.7-.8-.61-1.47-1.35-1.98-2.24-.69-1.2-1.05-2.56-1.05-4.03,0-.54.05-1.09.14-1.67.28-1.55.89-2.97,1.82-4.22.92-1.23,2.07-2.21,3.41-2.91,1.39-.73,2.87-1.09,4.42-1.09,1.92,0,3.6.51,4.99,1.52.28.2.52.44.76.67l1.55-5.85h-7.94c-1,0-1.62-1.09-1.11-1.94l4.35-7.21h0c.72-1.2,2.02-1.93,3.42-1.93h0l15.73-.6c1.52,0,2.67,1.36,2.4,2.85h0c.68.21,1.3.53,1.86.94.19-.12.38-.24.58-.34,1.19-.61,2.49-.91,3.86-.91,1.29,0,2.47.29,3.52.82,6.63,3.33,2.25,11.8,1.94,11.46l5.78.02c4.12.01,7.23,3.71,6.52,7.75Z"/>
</svg>