<?xml version="1.0" encoding="UTF-8"?>
<svg id="Layer_1" xmlns="http://www.w3.org/2000/svg" version="1.1" viewBox="0 0 18 18">
  <!-- Generator: Adobe Illustrator 30.4.0, SVG Export Plug-In . SVG Version: 2.1.4 Build 226)  -->
  <path d="M8.93,7.87c-.23,0-.43.07-.6.21-.17.14-.31.32-.4.54-.1.22-.14.46-.14.71s.06.46.19.6.31.22.56.22c.22,0,.43-.06.61-.2.19-.13.33-.3.44-.52.11-.22.16-.45.16-.7s-.07-.47-.21-.63c-.14-.16-.34-.24-.59-.24Z"/>
  <path d="M9,0C4.03,0,0,4.03,0,9s4.03,9,9,9,9-4.03,9-9S13.97,0,9,0ZM12.83,9.6c-.18.45-.43.82-.77,1.1-.33.28-.73.42-1.19.42-.32,0-.58-.07-.78-.2-.2-.13-.33-.32-.38-.57-.18.24-.41.43-.7.57-.29.14-.59.21-.9.21-.47,0-.84-.14-1.11-.42-.27-.28-.4-.67-.4-1.16s.1-.9.29-1.3c.19-.4.46-.73.8-.97.34-.24.73-.37,1.15-.37.53,0,.9.19,1.1.56l.08-.48h1.09l-.44,2.51c-.02.12-.03.23-.03.33,0,.15.03.26.09.33.06.07.17.11.32.11.22,0,.41-.11.56-.32.15-.21.27-.47.34-.79s.12-.63.12-.95c0-.75-.23-1.33-.69-1.74-.46-.41-1.11-.62-1.94-.62-.71,0-1.36.17-1.93.52-.58.34-1.03.81-1.35,1.4-.33.59-.49,1.25-.49,1.98,0,.77.23,1.36.68,1.78s1.1.62,1.94.62c.6,0,1.13-.11,1.59-.33l.19.86c-.59.25-1.24.37-1.96.37s-1.3-.13-1.82-.39-.92-.64-1.21-1.12c-.29-.48-.43-1.04-.43-1.68,0-.91.21-1.74.64-2.48.42-.74,1.01-1.33,1.77-1.76.75-.43,1.6-.64,2.53-.64.72,0,1.34.13,1.87.4.53.27.93.64,1.21,1.12.28.48.42,1.04.42,1.67,0,.51-.09.99-.27,1.44Z"/>
</svg>