<?xml version="1.0" encoding="UTF-8"?>
<svg id="Layer_1" xmlns="http://www.w3.org/2000/svg" version="1.1" width="16" height="16" viewBox="0 0 16 16">
  <path d="M10,11.28h-4.01c.38,1.6,1.06,3.11,2,4.45.94-1.34,1.62-2.85,2-4.45ZM4.35,4.72c.35-1.67.99-3.27,1.88-4.72C3.75.58,1.69,2.33.67,4.72h3.67ZM5.6,8c0,.55.04,1.1.1,1.64h4.6c.07-.54.1-1.09.1-1.64,0-.55-.04-1.1-.1-1.64h-4.6c-.07.54-.1,1.09-.1,1.64ZM11.65,4.72h3.67c-1.02-2.39-3.08-4.13-5.56-4.72.89,1.45,1.53,3.04,1.88,4.72ZM6,4.72h4.01c-.38-1.6-1.06-3.11-2-4.45-.94,1.34-1.62,2.85-2,4.45ZM11.65,11.28c-.35,1.67-.99,3.27-1.88,4.72,2.47-.58,4.54-2.33,5.56-4.72h-3.67ZM11.91,6.36c.06.55.09,1.09.09,1.64,0,.55-.03,1.1-.09,1.64h3.93c.22-1.08.22-2.2,0-3.28h-3.93ZM4.35,11.28H.67c1.02,2.39,3.08,4.13,5.56,4.72-.89-1.45-1.53-3.04-1.88-4.72ZM4.09,9.64c-.06-.55-.09-1.09-.09-1.64,0-.55.03-1.1.09-1.64H.16c-.22,1.08-.22,2.2,0,3.28h3.93Z"/>
</svg>
