<?xml version="1.0" encoding="UTF-8"?>
<svg id="Layer_1" xmlns="http://www.w3.org/2000/svg" version="1.1" viewBox="0 0 12 12">
  <!-- Generator: Adobe Illustrator 30.4.0, SVG Export Plug-In . SVG Version: 2.1.4 Build 226)  -->
  <path d="M7.54,6.12c-.06-.06-.07-.16,0-.23,0,0,0,0,0,0L11.7,1.71c.39-.39.4-1.02,0-1.41,0,0,0,0,0,0-.39-.39-1.02-.39-1.42,0l-4.17,4.17c-.06.07-.17.07-.24,0,0,0,0,0,0,0L1.71.29C1.32-.1.69-.1.3.29c-.39.39-.4,1.02,0,1.41,0,0,0,0,0,0l4.17,4.18c.06.06.07.16,0,.23,0,0,0,0,0,0L.3,10.29c-.39.39-.4,1.02,0,1.41,0,0,0,0,0,0,.39.39,1.03.39,1.42,0l4.17-4.17c.06-.07.17-.07.24,0,0,0,0,0,0,0l4.17,4.17c.39.39,1.02.39,1.42,0,.39-.39.4-1.02,0-1.41,0,0,0,0,0,0l-4.17-4.17Z"/>
</svg>