<?xml version="1.0" encoding="UTF-8"?>
<svg id="Layer_1" xmlns="http://www.w3.org/2000/svg" version="1.1" viewBox="0 0 16 16">
  <!-- Generator: Adobe Illustrator 30.7.0, SVG Export Plug-In . SVG Version: 2.1.4 Build 114)  -->
  <defs>
    <style>
      .st0 {
        fill-rule: evenodd;
      }
    </style>
  </defs>
  <g id="invisible-1--disable-eye-eyeball-hide-off-view">
    <path id="Union" class="st0" d="M.18,1.45C-.11,1.08-.04.54.33.25.7-.03,1.24.03,1.53.4c.79,1.01,1.53,1.92,2.23,2.76,1.21-.81,2.66-1.4,4.25-1.4,2.25,0,4.24,1.21,5.64,2.52.7.66,1.28,1.37,1.68,2,.2.32.36.62.48.9.11.27.19.55.19.82s-.08.55-.19.82c-.11.28-.28.58-.48.9-.4.63-.98,1.34-1.68,2-.21.19-.43.39-.66.57.82.67,1.71,1.37,2.68,2.14.37.29.43.82.14,1.19-.29.37-.83.43-1.2.14C7.97,10.55,5.25,7.89.18,1.45ZM10.01,9.74c.38-.44.56-1.04.56-1.75,0-.78-.22-1.42-.68-1.88-.46-.45-1.11-.67-1.89-.67-.72,0-1.33.18-1.77.56,1.22,1.32,2.42,2.51,3.78,3.73ZM.68,6.27c.21-.33.47-.68.77-1.03,2.89,3.49,5.2,5.82,8.59,8.65-.65.2-1.33.32-2.04.32-2.25,0-4.24-1.21-5.64-2.52-.7-.66-1.28-1.37-1.68-2-.2-.32-.36-.62-.48-.9-.11-.27-.19-.55-.19-.82s.08-.55.19-.82c.11-.28.28-.58.48-.9Z"/>
  </g>
</svg>