<?xml version="1.0" encoding="UTF-8"?>
<svg id="Location-Pin-1--Streamline-Core" xmlns="http://www.w3.org/2000/svg" version="1.1" viewBox="0 0 15 18">
  <!-- Generator: Adobe Illustrator 30.2.1, SVG Export Plug-In . SVG Version: 2.1.1 Build 1)  -->
  <defs>
    <style>
      .st0 {
        fill-rule: evenodd;
      }
    </style>
  </defs>
  <g id="location-pin--navigation-map-maps-pin-gps-location">
    <path id="Subtract" class="st0" d="M0,7.7C0,3.5,3.4,0,7.5,0s7.5,3.5,7.5,7.7-1.4,4.8-2.9,6.5c-1.5,1.7-3.1,3-3.7,3.5-.3.2-.6.3-.9.3s-.7,0-.9-.3c-.6-.5-2.2-1.7-3.7-3.5-1.5-1.7-2.9-4-2.9-6.5ZM7.5,9.6c1.4,0,2.6-1.2,2.6-2.6s-1.2-2.6-2.6-2.6-2.6,1.2-2.6,2.6,1.2,2.6,2.6,2.6Z"/>
  </g>
</svg>