<?xml version="1.0" encoding="UTF-8"?>
<svg id="Layer_1" xmlns="http://www.w3.org/2000/svg" version="1.1" width="18" height="18" viewBox="0 0 18 18">
  <!-- Generator: Adobe Illustrator 30.4.0, SVG Export Plug-In . SVG Version: 2.1.4 Build 226)  -->
  <defs>
    <style>
      .st0 {
        fill-rule: evenodd;
      }
    </style>
  </defs>
  <path class="st0" d="M9,0c-1.74,0-3.03,1.41-3.03,3.15,0,1.31.81,2.23,2.03,2.69v2.16h-3.05c-1.62,0-2.92,1.31-2.92,2.92v1.14c-1.62.62-2.44,2.29-1.82,3.91.62,1.62,2.16,2.44,3.79,1.82,1.62-.62,2.44-2.44,1.82-4.07-.32-.84-.98-1.34-1.82-1.66v-1.39c0-.37.3-.68.68-.68h8.66c.37,0,.68.3.68.68v1.54c-1.63.62-2.44,2.13-1.82,3.75s2.16,2.44,3.79,1.82c1.63-.62,2.44-2.44,1.82-4.07-.32-.84-.98-1.18-1.82-1.5v-1.29c0-1.62-1.31-2.92-2.92-2.92h-3.05v-2.16c1.63-.62,2.47-2.19,1.85-3.82C11.38.81,10.31,0,9,0Z"/>
</svg>