<?xml version="1.0" encoding="UTF-8"?>
<svg id="Layer_1" xmlns="http://www.w3.org/2000/svg" version="1.1" viewBox="0 0 18 18">
  <!-- Generator: Adobe Illustrator 30.4.0, SVG Export Plug-In . SVG Version: 2.1.4 Build 226)  -->
  <defs>
    <style>
      .st0 {
        fill-rule: evenodd;
      }
    </style>
  </defs>
  <path class="st0" d="M14,18H4c-2.21,0-4-1.79-4-4V4C0,1.79,1.79,0,4,0h10c2.21,0,4,1.79,4,4v10c0,2.21-1.79,4-4,4ZM16,4c0-1.1-.9-2-2-2H4c-1.1,0-2,.9-2,2v4h14v-4ZM16,10H2v4c0,1.1.9,2,2,2h10c1.1,0,2-.9,2-2v-4ZM14,14h-5c-.55,0-1-.45-1-1s.45-1,1-1h5c.55,0,1,.45,1,1s-.45,1-1,1ZM5,14h-1c-.55,0-1-.45-1-1s.45-1,1-1h1c.55,0,1,.45,1,1s-.45,1-1,1ZM4,4h1c.55,0,1,.45,1,1s-.45,1-1,1h-1c-.55,0-1-.45-1-1s.45-1,1-1ZM9,4h5c.55,0,1,.45,1,1s-.45,1-1,1h-5c-.55,0-1-.45-1-1s.45-1,1-1Z"/>
</svg>