<?xml version="1.0" encoding="UTF-8"?>
<svg id="Information-Circle--Streamline-Ultimate" xmlns="http://www.w3.org/2000/svg" version="1.1" viewBox="0 0 16 16">
  <!-- Generator: Adobe Illustrator 30.2.1, SVG Export Plug-In . SVG Version: 2.1.1 Build 1)  -->
  <path d="M8,0C3.6,0,0,3.6,0,8s3.6,8,8,8,8-3.6,8-8S12.4,0,8,0ZM8.2,3.3c.6,0,1,.4,1,1s-.4,1-1,1-1-.4-1-1,.4-1,1-1ZM9.7,12.3h-2.7c-.4,0-.7-.3-.7-.7s.3-.7.7-.7h.5c0,0,.2,0,.2-.2v-3c0,0,0-.2-.2-.2h-.5c-.4,0-.7-.3-.7-.7s.3-.7.7-.7h.7c.7,0,1.3.6,1.3,1.3v3.2c0,0,0,.2.2.2h.5c.4,0,.7.3.7.7s-.3.7-.7.7Z"/>
</svg>