<?xml version="1.0" encoding="UTF-8"?>
<svg id="Layer_1" xmlns="http://www.w3.org/2000/svg" version="1.1" viewBox="0 0 14 12" width="14" height="12">
  <!-- Generator: Adobe Illustrator 30.4.0, SVG Export Plug-In . SVG Version: 2.1.4 Build 226)  -->
  <defs>
    <style>
      .st0 {
        fill-rule: evenodd;
      }
    </style>
  </defs>
  <path class="st0" d="M1,2h12c.55,0,1-.45,1-1s-.45-1-1-1H1C.45,0,0,.45,0,1s.45,1,1,1ZM13,5H1C.45,5,0,5.45,0,6s.45,1,1,1h12c.55,0,1-.45,1-1s-.45-1-1-1ZM13,10H1C.45,10,0,10.45,0,11s.45,1,1,1h12c.55,0,1-.45,1-1s-.45-1-1-1Z"/>
</svg>