<?xml version="1.0" encoding="UTF-8"?>
<svg id="Screenshot--Streamline-Flex" xmlns="http://www.w3.org/2000/svg" version="1.1" viewBox="0 0 18 18">
  <!-- Generator: Adobe Illustrator 30.4.0, SVG Export Plug-In . SVG Version: 2.1.4 Build 226)  -->
  <defs>
    <style>
      .st0 {
        fill-rule: evenodd;
      }
    </style>
  </defs>
  <path class="st0" d="M.89,6.02c.54.06,1.03-.34,1.09-.88.05-.48.1-.96.16-1.44.09-.81.74-1.46,1.55-1.55h.09c.45-.06.9-.12,1.36-.16.54-.06.94-.55.88-1.09-.06-.54-.55-.94-1.09-.88-.46.05-.92.1-1.37.16h-.09C1.73.37.36,1.74.16,3.47c-.05.48-.11.96-.16,1.46-.06.54.34,1.03.88,1.09ZM12.87,1.98c.45.05.9.1,1.36.15h.09c.81.1,1.46.76,1.55,1.56.05.48.11.96.16,1.44.06.54.54.94,1.09.88.54-.06.94-.54.88-1.09-.05-.49-.11-.98-.16-1.46-.19-1.73-1.57-3.1-3.29-3.3h-.09c-.45-.06-.91-.12-1.37-.17-.54-.06-1.03.34-1.09.88-.06.54.33,1.03.88,1.09ZM5.13,16.02c-.45-.05-.9-.1-1.36-.15h-.09c-.81-.1-1.46-.76-1.55-1.56-.05-.48-.11-.96-.16-1.44-.06-.54-.54-.94-1.09-.88-.54.06-.94.54-.88,1.09.05.49.11.98.16,1.46.19,1.73,1.57,3.1,3.29,3.3h.09c.45.06.91.12,1.37.17.54.06,1.03-.34,1.09-.88.06-.54-.34-1.03-.88-1.09ZM13.83,10.87c.1-.67.19-1.4.19-2.15,0-.11.02-.47-.19-1.14-.31-1-1.01-1.84-2.05-1.93h-.06s-.11-.01-.11-.01l-.24-1.31c-.12-.21-.34-.34-.58-.34h-3.56c-.24,0-.46.13-.58.34l-.24,1.31h-.11s-.06.01-.06.01c-1.04.09-1.75.92-2.05,1.93-.2.68-.19,1.01-.19,1.14,0,.75.09,1.48.19,2.15.15,1.04,1.01,1.84,2.05,1.93h.06s.01,0,.01,0h0c1,.09,1.6.18,2.7.18s1.7-.09,2.7-.18h.07c1.04-.1,1.9-.9,2.05-1.94ZM9,11.01c-1.11,0-2.01-.9-2.01-2.01s.9-2.01,2.01-2.01,2.01.9,2.01,2.01-.9,2.01-2.01,2.01ZM17.11,11.98c-.54-.06-1.03.34-1.09.88-.05.48-.1.96-.16,1.44-.09.81-.74,1.46-1.55,1.55h-.09s0,.01,0,.01h0c-.45.05-.9.1-1.36.15-.54.06-.94.55-.88,1.09.06.54.55.94,1.09.88.46-.05.92-.1,1.37-.15h.09c1.72-.21,3.1-1.58,3.29-3.31.05-.48.11-.96.16-1.46.06-.54-.34-1.03-.88-1.09Z"/>
</svg>