<?xml version="1.0" encoding="UTF-8"?>
<svg id="Layer_1" xmlns="http://www.w3.org/2000/svg" version="1.1" viewBox="0 0 71.5 124.2">
  <!-- Generator: Adobe Illustrator 30.2.1, SVG Export Plug-In . SVG Version: 2.1.1 Build 1)  -->
  <path fill="#fb793c" d="M69.3,77.3l-4-26-3.6-21.9-3-17.2-2-12.2-9.9,1.6-20.9,3.6-12.6,1.6-3.1,2.7c0,.1-.3.2-.4.3l-5.7,2.5c-.3.1-.7.2-1,.1l-3.1-.6,3.6,26.8,2.4,17.4,3,23.1h0v.6c0,.2,0,.4-.3.6l-1.1,1.5.3,1.6v.3s0,.2,0,.3h0v.5h0c0,.3,0,.4-.2.5h0l-.6.8,2,3.1.8.8c.3.3.5.7.5,1.1l.2,2.2,1.6,3h0s0,.2,0,.3h0v.4h0v.4h0l-.8,2.5c0,.2-.2.4-.3.6l-1,1.1-.6,1.7h0c0,.2.2.4.3.6h0v.5h0v.4h0c0,.3-.2.4-.3.6l-1.5,1.6v.2h0v.4h0v.3h0c0,.2,0,.3,0,.4h0l-1.8,3.5c-.2.4-.6.7-1,.9l-1.5.5-.3.9.8.6c.3.2.5.5.6.9h0v.3h0v.4h0c0,.1,0,.2,0,.3h0c0,.2,0,.3-.2.4h0l-1.6,1.6-.2.9.8,5v-1.9c0-.6.3-1.2.8-1.5s1.2-.3,1.7,0l1.7.9,2.2-.7c.4-.1.9-.1,1.3.1l.4.2.2-.4c.2-.3.4-.6.7-.7l2.7-1.5c.5-.3,1-.3,1.5-.1l6.6,2.6.2-1.1c0-.4.3-.8.6-1l4.9-3.9c.7-.6,1.8-.5,2.4.2l1.4,1.7,2.4-.6-.2-1.1c0-.5,0-.9.2-1.3l2.2-3.3c.2-.3.5-.5.8-.6l3.1-1.3c.4-.2.8-.2,1.1,0h.3s0,0,.2.1c0,0,0,0,.2.1,0,0,.2.2.2.3h0s0,.2.2.3h0c0,.1,0,.2,0,.4l.2,1.3,1.3.6,2.9.3,1-.5.3-.6-.2-4c0-.3,0-.6.2-.9l1.4-2.7c.2-.4.6-.7,1-.9.4-.1.9-.1,1.3.1h.2c0,.1.9-.5.9-.5l.3-3c0-.4.3-.8.6-1.1l1.6-1.4,1.7-2.7-1.2-2.9c0-.2,0-.4,0-.7v-1c0-.8.6-1.6,1.4-1.7l4.3-.8c.4,0,.8,0,1.1.2l1,.5,3.1-2.3c.2-.1.3-.2.5-.3l3-1v-.4h-.6c-.4,0-.8-.2-1-.5h0s0-.1-.2-.2h0c0-.1-.2-.3-.2-.4h0v-.9h0l.5-1.7-.3-.4-.3-.4h0c0-.1,0-.3-.2-.4h0c0-.4,0-.9,0-1.4l.5-1.1-.4,1Z"/>
</svg>