<?xml version="1.0" encoding="UTF-8"?>
<svg id="Layer_1" xmlns="http://www.w3.org/2000/svg" version="1.1" viewBox="0 0 137.1 112.8">
  <!-- Generator: Adobe Illustrator 30.2.1, SVG Export Plug-In . SVG Version: 2.1.1 Build 1)  -->
  <path fill="#fb793c" d="M134.1,105.8l-2.8.4c-.4,0-.7,0-1-.2l-2.2-1.1-1.6.3c-.9,0-1.7-.4-2-1.2l-.5-1.4-2.5-.6c-.4,0-.8-.3-1-.7l-1.7-2.4c-.3-.4-.4-.9-.3-1.4,0-.5.5-.9.9-1.2l1.5-.7,3.9-6.7c.2-.3.4-.5.7-.7-.3-.3-.4-.7-.5-1.1v-1.2c0,0-.8.5-.8.5l-.6,2.8c-.2.7-.8,1.3-1.5,1.3l-1.6.2c-.4,0-.8,0-1.1-.2l-4.5-2.8c-.6-.4-.9-1.1-.8-1.9l.5-2v.2c-.2.2-.4.4-.6.5l-2.6,2.1c-.2.2-.5.3-.7.4l-3.3.8h-.7l-4.9-1c-.2,0-.5,0-.6-.3l-2.5-1.8c-.5-.4-.8-1-.7-1.7l.4-2.7c0-.3.2-.6.3-.8l4.3-5.6c.3-.5.9-.7,1.5-.7l4.3.2c.4,0,.8.2,1.1.5l2.4,2.5,4.6.2c.5,0,.9.2,1.2.6l.9,1h.3l-.8-1.1c0-.2-.2-.3-.3-.5l-1.4-4.2-3.1-2.4h0l-.2-.2h0s0-.2-.2-.3l-1.7-3.3c-.2-.4-.2-.8-.2-1.2l1.8-8-23.5,2.6-24.8,2.6c-.3,0-.7,0-1-.2h0c-.3-.2-.6-.4-.7-.8,0-.2,0-.3,0-.5h0v-1c0,0,0-.2.2-.3,0,0,0,0,0,0l1-1-.9-1.6c-.2-.4-.3-.8-.2-1.2l.3-1.2-.7-1.4c-.2-.5-.2-1,0-1.4.2-.5.6-.8,1.1-1l1.4-.5.6-2.4-.9-2c-.3-.6-.2-1.4.3-1.9l1.7-1.9.2-4.6c0-.2,0-.4,0-.5l1.4-3.7c.2-.4.5-.8.9-.9l1.5-.8,1.9-2.9c0-.2.3-.3.4-.4l1.1-.8.4-1.6v-.2l2.6-6.8-3.6-2.2c-.2,0-.4-.3-.6-.6,0-.2-.2-.5-.3-.7l-.3-2.5-1.5-1.5c-.3-.3-.4-.6-.5-1l-.2-1.6c0-.4,0-.9.3-1.2l.4-.5s-.2,0-.3-.2h0c0,0,0-.3-.2-.4h0v-.4h0v-.5l.4-2.7c0-.2,0-.4.2-.5l.4-.9-1.1-1.2-17.7,1.8-31.8,2.9L0,6.2l1.8,28.3,3.2,2.5c.2.2.4.4.5.6l2.7,5.3h0c0,0,0,.3,0,.4h0v3.6l4.4,5.4s0,.2.2.2h0v.5h0v.7l-.3,1.1,4.3,7.6c0,.2.2.4.2.6h0v.5h0c0,.5-.3.9-.7,1.1h0l.3.4s0,0,0,.2v.2c0,0,0,0,0,.2v.3h0v.5h0c0,0-1,4-1,4v.2l-2.6,7c0,.2-.2.5-.4.6l-.2.2.8,2.5v.2h0v.5h0c0,.2,0,.3,0,.5h0c0,0-.7,1.4-.7,1.4l.7,2.2v.4l.5,6.6c0,.4,0,.8-.3,1.1l-1.2,1.7c.4.4.5,1,.4,1.5l-.6,3.1c0,.4-.3.8-.7,1.1l-1.1.8h0l1.1-.5c0,0,.2,0,.4,0l7.6-1.5h.2l6.6-.5h.5l4.5.8h.3l9.4,3.3,10.3,1.2,2.5-1.5-.8-1.2c-.2-.4-.3-.9-.2-1.3l.4-1.8c0-.5.4-.9.9-1.2l2.8-1.5v-.3c.4-.5.9-.8,1.4-.9l3.7-.6c.6,0,1.2,0,1.6.6.4.5.5,1.1.3,1.7h3l1.8.4c.9.2,1.5,1.1,1.3,2v.4c.7,0,1.4.4,1.7,1.2l.8,2.4,4.1.4.4-.4c.4-.4,1-.6,1.5-.5.5,0,1,.4,1.3.9l1.7,3.3c.3.6.3,1.2,0,1.7l-1.3,2.1.9.4,4,1.1,3.3.4,2.5-.5h1l2.2.8,2.3-4.4c.3-.5.8-.9,1.3-.9l4.7-.6h.6l3.9,1c.9.2,1.4,1.1,1.3,1.9l-.3,2,.2.3,1.3-1.2-.5-2.3c0-.4,0-.8,0-1.2l1-2-1.6-4.2c-.3-.7,0-1.4.4-1.9.5-.5,1.3-.6,2-.3l2.5,1.3,1.1-.3c.5-.2,1,0,1.5.2l3.7,2.4.6.6.5.8,3.1,1.2c.3,0,.6.3.8.6h0c0,0,2.5.3,2.5.3.5,0,.9.3,1.2.7l3.1,3.8,1.3.7h2.2c0,0,2.1-2,2.1-2l-1.7-1.7-1.9-2.1.6.3Z"/>
</svg>