<svg xmlns="http://www.w3.org/2000/svg" viewBox="0 0 120 120" role="img" aria-labelledby="title">
  <title id="title">Anytime Fitness logo</title>
  <rect width="120" height="120" rx="22" fill="#f8f7ff"/>
  <circle cx="60" cy="38" r="18" fill="#5b4bc4"/>
  <path fill="#5b4bc4" d="M28 98c3-22 15-37 32-37s29 15 32 37H74c-2-9-6-15-14-15s-12 6-14 15H28Z"/>
  <path fill="#14a6d9" d="M61 53c21 5 32 20 34 45H78c-2-15-8-25-19-30l2-15Z"/>
  <path fill="#14a6d9" d="M42 55c6 0 11 5 11 11s-5 11-11 11-11-5-11-11 5-11 11-11Z"/>
</svg>
