<?xml version="1.0" encoding="UTF-8"?>
<svg id="Layer_1" xmlns="http://www.w3.org/2000/svg" version="1.1" viewBox="0 0 17 17">
  <!-- Generator: Adobe Illustrator 30.2.1, SVG Export Plug-In . SVG Version: 2.1.1 Build 1)  -->
  <defs>
    <style>
      .st0 {
        fill-rule: evenodd;
      }
    </style>
  </defs>
  <path class="st0" d="M12.1,0c-.5,0-1,.3-1,.9,0,.5.3,1,.9,1,.6,0,1.1.1,1.7.2.7,0,1.2.6,1.3,1.3,0,.5.1,1.1.2,1.6,0,.5.5.9,1,.9.5,0,.9-.5.9-1,0-.6-.1-1.1-.2-1.7-.2-1.6-1.4-2.8-3-3-.6,0-1.1-.1-1.7-.2ZM5.9.9c0,.5-.3,1-.9,1-.6,0-1.1.1-1.7.2-.7,0-1.2.6-1.3,1.3,0,.5-.1,1.1-.2,1.6,0,.5-.5.9-1,.9-.5,0-.9-.5-.9-1,0-.6.1-1.1.2-1.7C.4,1.6,1.6.4,3.2.2,3.7.1,4.3,0,4.9,0c.5,0,1,.3,1,.9ZM16.1,11.1c.5,0,.9.5.9,1,0,.6-.1,1.1-.2,1.7-.2,1.6-1.4,2.8-3,3-.6,0-1.1.1-1.7.2-.5,0-1-.3-1-.9,0-.5.3-1,.9-1,.6,0,1.1-.1,1.7-.2.7,0,1.2-.6,1.3-1.3,0-.5.1-1.1.2-1.6,0-.5.5-.9,1-.9ZM.9,11.1c.5,0,1,.3,1,.9,0,.5.1,1.1.2,1.6,0,.7.6,1.2,1.3,1.3.6,0,1.1.1,1.7.2.5,0,.9.5.9,1,0,.5-.5.9-1,.9-.6,0-1.2-.1-1.7-.2-1.6-.2-2.8-1.4-3-3,0-.5-.1-1.1-.2-1.7,0-.5.3-1,.9-1ZM5.1,5.3c.8-.8,2-1.2,3.3-1.2s2.5.4,3.3,1.2c.8.8,1.2,2,1.2,3.3s-.4,2.5-1.2,3.3c-.8.8-2,1.2-3.3,1.2s-2.5-.4-3.3-1.2c-.8-.8-1.2-2-1.2-3.3s.4-2.5,1.2-3.3Z"/>
</svg>