<?xml version="1.0" encoding="UTF-8"?>
<svg id="Layer_1" xmlns="http://www.w3.org/2000/svg" version="1.1" viewBox="0 0 10 13">
  <!-- Generator: Adobe Illustrator 30.2.1, SVG Export Plug-In . SVG Version: 2.1.1 Build 1)  -->
  <defs>
    <style>
      .st0 {
        fill-rule: evenodd;
      }
    </style>
  </defs>
  <path class="st0" d="M5.4,12.8l4.4-3.8c.2-.2.2-.6,0-.9l-.5-.5c-.2-.2-.6-.2-.8,0l-3.5,2.8-3.5-2.8c-.2-.2-.6-.2-.8,0l-.5.5c-.2.2-.2.6,0,.9l4.4,3.8c.1.1.3.2.4.2s.3,0,.4-.2h0Z"/>
  <path class="st0" d="M4.6.2L.2,4c-.2.2-.2.6,0,.9l.5.5c.2.2.6.2.8,0l3.5-2.8,3.5,2.8c.2.2.6.2.8,0l.5-.5c.2-.2.2-.6,0-.9L5.4.2c-.1-.1-.3-.2-.4-.2s-.3,0-.4.2h0Z"/>
</svg>