<?xml version="1.0" encoding="UTF-8"?>
<svg id="Layer_1" xmlns="http://www.w3.org/2000/svg" version="1.1" viewBox="0 0 16 18">
  <!-- Generator: Adobe Illustrator 30.5.1, SVG Export Plug-In . SVG Version: 2.1.4 Build 3)  -->
  <defs>
    <style>
      .st0 {
        fill: #070707;
      }
    </style>
  </defs>
  <path class="st0" d="M9.67.03c1.22-.19,2.33.71,2.33,1.89v8.56c0,.94-.71,1.74-1.67,1.89l-7.18,1.47c-.67.11-1.15.66-1.15,1.3,0,.52.44.94.98.94h11.02V1.74c1.1,0,2,.86,2,1.92v12.42c0,1.06-.9,1.92-2,1.92H2.98c-1.65,0-2.98-1.28-2.98-2.86,0,0,0,0,0,0,0,0,0,0,0,0V4.73C0,3.09,1.24,1.69,2.92,1.42L9.67.03Z"/>
</svg>