<?xml version="1.0" encoding="UTF-8"?>
<svg id="Layer_2" xmlns="http://www.w3.org/2000/svg" version="1.1" viewBox="0 0 19 19">
  <!-- Generator: Adobe Illustrator 30.5.1, SVG Export Plug-In . SVG Version: 2.1.4 Build 3)  -->
  <path d="M19,3.5c0-1.93-1.57-3.5-3.5-3.5H3.5C1.57,0,0,1.57,0,3.5v11.72c0,2.08,1.7,3.78,3.78,3.78h11.72c1.93,0,3.5-1.57,3.5-3.5V3.5ZM15,12.29c0,.41-.33.74-.74.74h-2.06c-.1,0-.19.08-.19.19v1.42c0,.2-.17.37-.37.37h-4.28c-.21,0-.37-.17-.37-.37v-1.42c0-.1-.08-.19-.19-.19h-2.06c-.41,0-.74-.33-.74-.74v-6.56c0-.41.33-.74.74-.74h1.09c.1,0,.19.08.19.19v3.04c0,.31.22.56.53.56s.46-.25.46-.56v-3.04c0-.1.08-.19.19-.19h.65c.1,0,.19.08.19.19v3.04c0,.31.19.56.49.56s.49-.25.49-.56v-3.04c0-.1.08-.19.19-.19h.62c.1,0,.19.08.19.19v3.04c0,.31.19.56.49.56s.49-.25.49-.56v-3.04c0-.1.08-.19.19-.19h.65c.1,0,.19.08.19.19v3.04c0,.31.19.56.49.56s.53-.25.53-.56v-3.04c0-.1.08-.19.19-.19h1.05c.41,0,.74.33.74.74v6.56Z"/>
</svg>