<?xml version="1.0" encoding="UTF-8"?>
<svg id="Layer_1" xmlns="http://www.w3.org/2000/svg" version="1.1" viewBox="0 0 17 19">
  <!-- Generator: Adobe Illustrator 30.4.0, SVG Export Plug-In . SVG Version: 2.1.4 Build 226)  -->
  <path d="M1.49,15.51c0,1.07.66,1.94,1.48,1.94.18,0,.35-.05.52-.12.16-.08.31-.19.43-.33.14-.15.32-.23.52-.23s.38.07.52.22c.14.14.22.33.23.54s-.07.4-.2.55c-.26.29-.57.52-.91.68-.35.16-.72.24-1.1.25C1.34,19,.02,17.43.02,15.51s1.32-3.49,2.95-3.49c.38,0,.75.09,1.1.25.35.16.66.39.91.68.13.15.2.35.2.55s-.09.4-.23.54c-.14.14-.33.22-.52.22-.19,0-.38-.09-.52-.23-.12-.14-.26-.25-.43-.33-.16-.08-.34-.12-.52-.12-.81,0-1.48.87-1.48,1.94ZM8.84,14.66c-.37-.11-.75-.23-.96-.37-.12-.08-.11-.1-.1-.18,0-.07.02-.14.05-.2.03-.06.08-.11.13-.15.42-.3,1.42-.17,1.83-.05.19.05.39.03.56-.08.17-.1.29-.27.34-.47.05-.2.02-.41-.07-.59-.1-.18-.26-.31-.45-.36-.2-.05-1.94-.51-3.03.27-.23.16-.43.38-.57.63-.14.25-.23.53-.26.82-.18,1.54,1.26,1.98,2.12,2.24,1.11.34,1.21.48,1.18.74-.03.23-.12.32-.2.38-.42.3-1.4.15-1.8.04-.19-.06-.39-.03-.56.07-.17.1-.3.27-.35.47-.05.2-.03.41.07.59.1.18.26.31.45.37.46.13.93.19,1.4.19.54,0,1.14-.1,1.61-.43.24-.17.43-.38.58-.64.15-.26.24-.54.27-.84.2-1.68-1.32-2.15-2.23-2.43ZM16.5,12.06c-.09-.03-.19-.05-.28-.04-.1,0-.19.03-.28.07-.09.04-.17.1-.23.18-.06.08-.12.16-.15.26l-1.15,3.39-1.15-3.39c-.07-.19-.2-.35-.38-.44-.18-.09-.38-.1-.56-.03-.18.07-.34.21-.42.4-.08.19-.09.4-.03.59l1.85,5.43c.05.15.15.28.27.37.12.09.27.14.42.14s.3-.05.43-.14c.12-.09.22-.22.27-.37l1.85-5.43c.07-.19.06-.41-.03-.59-.08-.19-.23-.33-.42-.4ZM17,6.64v2.3c0,.22-.09.62-.24.77-.15.16-.52.24-.74.24s-.62-.09-.77-.24c-.15-.16-.24-.55-.24-.77v-.94h-5.16c-.22,0-.43-.09-.58-.24-.15-.16-.24-.37-.24-.59V2H3.99c-1.1,0-2,.89-2,2v4.94c0,.22-.09.62-.24.77-.15.16-.55.27-.77.27s-.58-.12-.74-.27c-.15-.16-.24-.55-.24-.77V3.99C0,1.79,1.79,0,4,0h6.28c.11,0,.22.02.32.06.1.04.19.1.27.18l5.89,5.81c.08.08.14.17.18.27.04.1.06.21.06.32ZM13.97,6.03l-2.95-2.98v2.98h2.95Z"/>
</svg>