<?xml version="1.0" encoding="UTF-8"?>
<svg id="Layer_2" xmlns="http://www.w3.org/2000/svg" version="1.1" viewBox="0 0 16 14">
  <!-- Generator: Adobe Illustrator 30.4.0, SVG Export Plug-In . SVG Version: 2.1.4 Build 226)  -->
  <defs>
    <style>
      .st0 {
        fill: #070707;
        fill-rule: evenodd;
      }
    </style>
  </defs>
  <path class="st0" d="M10,4h5c.55,0,1-.45,1-1s-.45-1-1-1h-5c-.55,0-1,.45-1,1s.45,1,1,1Z"/>
  <path class="st0" d="M5,0C3.7,0,2.6.84,2.18,2h-1.18C.45,2,0,2.45,0,3s.45,1,1,1h1.18c.41,1.16,1.51,2,2.82,2,1.66,0,3-1.34,3-3S6.66,0,5,0Z"/>
  <path class="st0" d="M6,10H1C.45,10,0,10.45,0,11s.45,1,1,1h5c.55,0,1-.45,1-1s-.45-1-1-1Z"/>
  <path class="st0" d="M15,10h-1.18c-.41-1.16-1.51-2-2.82-2-1.66,0-3,1.34-3,3s1.34,3,3,3c1.3,0,2.4-.84,2.82-2h1.18c.55,0,1-.45,1-1s-.45-1-1-1Z"/>
</svg>