<?xml version="1.0" encoding="UTF-8"?>
<svg id="View-Off--Streamline-Micro" xmlns="http://www.w3.org/2000/svg" version="1.1" viewBox="0 0 16 15">
  <!-- Generator: Adobe Illustrator 30.5.1, SVG Export Plug-In . SVG Version: 2.1.4 Build 3)  -->
  <defs>
    <style>
      .st0 {
        fill-rule: evenodd;
      }
    </style>
  </defs>
  <path class="st0" d="M1.26,1.97c-.42-.53-.33-1.29.2-1.7.48-.38,1.17-.34,1.6.09l2.65,2.64c.72-.23,1.47-.37,2.25-.39,3.4-.11,5.71,1.78,7.45,3.83.78.86.77,2.18-.02,3.02-.53.57-1.1,1.07-1.71,1.51l1.96,1.96c.48.47.48,1.24.01,1.72-.44.45-1.15.48-1.63.09L1.26,1.97ZM2.04,5.04c-.33.28-.66.57-.96.87-.16.16-.32.32-.48.49-.81.86-.81,2.19,0,3.05,1.03,1.11,3.44,3.39,6.46,3.8,1.18.16,2.18.03,2.97-.22L2.04,5.04Z"/>
</svg>