<?xml version="1.0" encoding="UTF-8"?>
<svg id="Layer_2" xmlns="http://www.w3.org/2000/svg" version="1.1" viewBox="0 0 16 20">
  <!-- Generator: Adobe Illustrator 30.2.1, SVG Export Plug-In . SVG Version: 2.1.1 Build 1)  -->
  <defs>
    <style>
      .st0 {
        fill-rule: evenodd;
      }
    </style>
  </defs>
  <g>
    <path d="M6,14.4c0-.7.2-1.4.6-2l2.5-3.3c-1-1.2-2.6-2.1-4.2-2.1-2.4,0-5,1.9-5,4.3v2.2c0,.2.2.4.4.4h1.4c.1,0,.2,0,.2.2v2.5c0,.2.2.4.4.4h5.2c.1,0,.2,0,.3-.2-.3-.1-.6-.3-.9-.5-.6-.5-.9-1.2-1-1.9Z"/>
    <path d="M8.3,14.8c.1.1.3.2.5.2h.9c.1,0,.3.1.3.2v4.2c0,.2.1.4.3.5,0,0,.1,0,.2,0h0c.2,0,.3,0,.4-.2l4.9-6.4c.3-.3.3-.9,0-1.2-.1-.1-.3-.2-.5-.2h-.9c-.1,0-.3-.1-.3-.2v-4.2c0-.2-.1-.4-.3-.5,0,0-.1,0-.2,0-.1,0-.3,0-.4.2l-3.1,4.1s0,0,0,0v2.2c0,.2-.2.4-.4.4h-1.4c0,0-.1,0-.2.1,0,.3,0,.5.3.7Z"/>
    <path d="M8.2,14h1.4c.2,0,.4-.2.4-.4v-2.2s0,0,0,0l-1.8,2.3c-.1.1-.2.3-.2.4,0,0,0-.1.2-.1Z"/>
  </g>
  <path class="st0" d="M5,0c1.7,0,3,1.3,3,3s-1.3,3-3,3-3-1.3-3-3S3.4,0,5,0Z"/>
</svg>