<?xml version="1.0" encoding="UTF-8"?>
<svg id="Layer_3" xmlns="http://www.w3.org/2000/svg" version="1.1" viewBox="0 0 15 17">
  <!-- Generator: Adobe Illustrator 30.5.1, SVG Export Plug-In . SVG Version: 2.1.4 Build 3)  -->
  <defs>
    <style>
      .st0, .st1 {
        fill: #070707;
      }

      .st1 {
        fill-rule: evenodd;
      }
    </style>
  </defs>
  <g id="Layer_2">
    <path class="st1" d="M5.02,0c1.66,0,3,1.34,3,3s-1.34,3-3,3-3-1.34-3-3S3.36,0,5.02,0Z"/>
    <g>
      <path class="st0" d="M8,16c-1.66,0-3-1.35-3-3s1.35-3,3-3c0-.6.18-1.16.49-1.64-.96-.84-2.25-1.36-3.47-1.36-2.35.01-5.02,1.95-5.02,4.35v2.23c0,.22.17.39.39.39h1.43c.1,0,.18.08.19.18v2.48c0,.2.18.36.39.36h5.23c.2,0,.37-.16.39-.36v-.42c0-.07-.02-.14-.02-.22h0Z"/>
      <path class="st0" d="M10,16c0,.55.45,1,1,1s1-.45,1-1v-2h2c.55,0,1-.45,1-1h0c0-.55-.45-1-1-1h-2v-2c0-.55-.45-1-1-1s-1,.45-1,1v3.58c0,.22-.17.39-.39.39h-1.4s-.04.02-.06.02h1.84v2h.01Z"/>
      <path class="st0" d="M9.62,13.98c.21,0,.39-.18.39-.39v-2.27.69h-2c-.55,0-1,.45-1,1h0c0,.55.45,1,1,1h.16s.03-.02.06-.02h1.4-.01Z"/>
    </g>
  </g>
</svg>