<?xml version="1.0" encoding="UTF-8"?>
<svg id="Layer_2" xmlns="http://www.w3.org/2000/svg" version="1.1" viewBox="0 0 16 20">
  <!-- Generator: Adobe Illustrator 30.5.1, SVG Export Plug-In . SVG Version: 2.1.4 Build 3)  -->
  <defs>
    <style>
      .st0 {
        fill-rule: evenodd;
      }
    </style>
  </defs>
  <g>
    <path d="M6.05,14.47c0-.7.2-1.41.6-2.01l2.48-3.32c-.99-1.21-2.58-2.11-4.17-2.11-2.38,0-4.96,1.91-4.96,4.32v2.21c0,.2.2.4.4.4h1.39c.1,0,.2,0,.2.2v2.51c0,.2.2.4.4.4h5.16c.1,0,.2,0,.3-.2-.3-.1-.6-.3-.89-.5-.6-.5-.89-1.21-.99-1.91h.1Z"/>
    <path d="M8.33,14.87c.1.1.3.2.5.2h.89c.1,0,.3.1.3.2v4.22c0,.2.1.4.3.5h.2c.2,0,.3,0,.4-.2l4.86-6.43c.3-.3.3-.9,0-1.21-.1-.1-.3-.2-.5-.2h-.89c-.1,0-.3-.1-.3-.2v-4.22c0-.2-.1-.4-.3-.5h-.2c-.1,0-.3,0-.4.2,0,0-4.65,6.42-5.06,6.83,0,.3,0,.5.3.7l-.1.1Z"/>
  </g>
  <path class="st0" d="M5.06,0c1.69,0,2.98,1.31,2.98,3.02s-1.29,3.02-2.98,3.02-2.98-1.31-2.98-3.02S3.47,0,5.06,0Z"/>
</svg>