<?xml version="1.0" encoding="UTF-8"?>
<svg id="Layer_2" xmlns="http://www.w3.org/2000/svg" version="1.1" viewBox="0 0 15 16.99">
  <!-- Generator: Adobe Illustrator 30.5.1, SVG Export Plug-In . SVG Version: 2.1.4 Build 3)  -->
  <defs>
    <style>
      .st0 {
        fill: #070707;
      }
    </style>
  </defs>
  <path class="st0" d="M5.01,6c1.66,0,3-1.34,3-3S6.67,0,5.01,0s-3,1.34-3,3,1.34,3,3,3Z"/>
  <path class="st0" d="M7.99,16.01c-1.66,0-3-1.35-3-3s1.35-3,3-3h1.72c-.74-1.74-2.81-3-4.7-3-2.36,0-5.01,1.94-5.01,4.34v2.23c0,.22.17.39.39.39h1.43c.1,0,.18.08.19.18v2.48c0,.2.18.36.39.36h5.23c.2,0,.37-.16.39-.36v-.63h-.03Z"/>
  <path class="st0" d="M14,12.01h-6c-.55,0-1,.45-1,1s.45,1,1,1h6c.55,0,1-.45,1-1s-.45-1-1-1Z"/>
</svg>