<?xml version="1.0" encoding="UTF-8"?>
<svg id="Layer_1" xmlns="http://www.w3.org/2000/svg" version="1.1" viewBox="0 0 16 18">
  <!-- Generator: Adobe Illustrator 30.5.1, SVG Export Plug-In . SVG Version: 2.1.4 Build 3)  -->
  <defs>
    <style>
      .st0 {
        fill-rule: evenodd;
      }
    </style>
  </defs>
  <path class="st0" d="M15.98,7.36c-.29-4.12-3.72-7.36-7.89-7.36h-.17C3.74,0,.32,3.24.02,7.36c-.14,1.93.29,3.97,1.54,5.62,1.41,1.85,2.84,3.13,5.04,4.6.84.56,1.95.56,2.79,0,2.2-1.47,3.63-2.74,5.04-4.6,1.25-1.65,1.68-3.69,1.54-5.62ZM8.02,11.01c-1.66,0-3-1.34-3-3s1.34-3,3-3,3,1.34,3,3-1.34,3-3,3Z"/>
</svg>