<?xml version="1.0" encoding="UTF-8"?>
<svg id="Layer_1" xmlns="http://www.w3.org/2000/svg" version="1.1" viewBox="0 0 18 16" width="18" height="16">
  <!-- Generator: Adobe Illustrator 30.4.0, SVG Export Plug-In . SVG Version: 2.1.4 Build 226)  -->
  <path d="M12.55,5.11l-3.33,1.85c-.14.07-.31.07-.45,0l-3.33-1.85c-.49-.25-1.1-.05-1.34.45-.25.49-.05,1.09.45,1.34l3.33,1.85c.35.17.73.26,1.12.26s.77-.09,1.12-.26l3.33-1.85c.49-.25.69-.85.45-1.34-.25-.49-.85-.69-1.34-.45ZM14,0H4C1.79,0,0,1.79,0,4v8C0,14.21,1.79,16,4,16h10c2.21,0,4-1.79,4-4v-8C18,1.79,16.21,0,14,0ZM16,12c0,1.1-.9,2-2,2H4c-1.1,0-2-.9-2-2v-8c0-1.1.9-2,2-2h10c1.1,0,2,.9,2,2v8Z"/>
</svg>