<?xml version="1.0" encoding="UTF-8"?>
<svg id="Layer_1" xmlns="http://www.w3.org/2000/svg" version="1.1" viewBox="0 0 18 18">
  <!-- Generator: Adobe Illustrator 30.5.1, SVG Export Plug-In . SVG Version: 2.1.4 Build 3)  -->
  <defs>
    <style>
      .st0 {
        fill: #070707;
        fill-rule: evenodd;
      }
    </style>
  </defs>
  <path class="st0" d="M7.45.47c-.93-.62-1.83-.62-2.76,0C2.96,1.62,1.56,3.17.98,3.94c-.04.05-.06.1-.09.15-.26.66-.45,1.55-.58,2.54-.13,1-.21,2.13-.26,3.27-.09,2.29-.05,4.69.03,6.26.06,1.06.94,1.83,1.97,1.83h1.4c.37,0,.54-.3.54-.67v-1.69c0-1.17.82-2.09,1.98-2.09s2.05.92,2.05,2.09v1.69c0,.37.3.67.66.67h8.46c.35,0,.63-.26.67-.6.35-3.51.16-5.69-.16-7.36-.28-1.46-1.67-2.1-2.94-2.1h-.05c-.39,0-.69.33-.67.72.11,1.96.05,3.14.02,4.26-.02.46-.1,1.09-.98,1.09s-1.06-.68-1.05-1.14c.04-1.31.1-3.45-.07-5.52h0c-.03-.24-.05-.48-.08-.71-.13-.98-.31-1.88-.58-2.54-.02-.05-.05-.11-.09-.15-.58-.77-1.99-2.32-3.71-3.47ZM3.47,9.96c0-.46.37-.83.83-.83h3.22c.46,0,.83.37.83.83s-.37.83-.83.83h-3.22c-.46,0-.83-.37-.83-.83ZM4.3,5.13c-.46,0-.83.37-.83.83s.37.83.83.83h3.22c.46,0,.83-.37.83-.83s-.37-.83-.83-.83h-3.22Z"/>
</svg>