<?xml version="1.0" encoding="UTF-8"?>
<svg id="Screenshot--Streamline-Flex" xmlns="http://www.w3.org/2000/svg" version="1.1" viewBox="0 0 18 18">
  <!-- Generator: Adobe Illustrator 30.5.1, SVG Export Plug-In . SVG Version: 2.1.4 Build 3)  -->
  <g id="lock-reset">
    <path id="Union" d="M3.6,9.22c1.49,0,2.7,1.18,2.7,2.63v.88c.5,0,.9.39.9.88v3.51c0,.48-.4.88-.9.88H.9c-.5,0-.9-.39-.9-.88v-3.51c0-.48.4-.88.9-.88v-.88c0-1.45,1.21-2.63,2.7-2.63M9,0C13.97,0,18,3.93,18,8.78c0,4.53-3.51,8.25-8.02,8.73-.52.06-.98-.35-.98-.88h0c0-.44.33-.82.76-.87,3.62-.37,6.44-3.36,6.44-6.99,0-3.88-3.22-7.02-7.2-7.02-2.66,0-4.99,1.41-6.24,3.51h2.21c.48,0,.88.39.88.88h0c0,.49-.39.88-.88.88H.9c-.5,0-.9-.39-.9-.88v-3.95c0-.48.39-.88.88-.88h.05c.48,0,.88.39.88.88v1.32C3.44,1.38,6.05,0,9,0M3.6,10.98c-.5,0-.9.39-.9.88v.88h1.8v-.88c0-.48-.4-.88-.9-.88"/>
  </g>
</svg>