<?xml version="1.0" encoding="UTF-8"?>
<svg id="Layer_2" xmlns="http://www.w3.org/2000/svg" version="1.1" viewBox="0 0 16 11">
  <!-- Generator: Adobe Illustrator 30.5.1, SVG Export Plug-In . SVG Version: 2.1.4 Build 3)  -->
  <defs>
    <style>
      .st0 {
        fill: #070707;
        fill-rule: evenodd;
      }
    </style>
  </defs>
  <path class="st0" d="M.06,5.77H.06s0,0,0,0h0s.03.06.03.06c.5.9,1.14,1.75,1.89,2.51,1.27,1.27,3.27,2.65,6.01,2.65s4.74-1.37,6.01-2.65c.71-.72,1.31-1.5,1.8-2.34.04-.07.07-.13.09-.17l.03-.05h0s0-.02,0-.02h0c.09-.18.09-.37,0-.54h0s0,0,0,0h0s-.03-.06-.03-.06c-.5-.91-1.14-1.75-1.89-2.51-1.27-1.27-3.27-2.65-6.01-2.65S3.26,1.37,1.99,2.65c-.71.72-1.31,1.5-1.8,2.34-.04.07-.07.13-.09.17l-.03.05h0s0,.02,0,.02h0c-.09.18-.09.37,0,.54M8,7.9c-1.33,0-2.4-1.07-2.4-2.4s1.07-2.4,2.4-2.4,2.4,1.07,2.4,2.4-1.07,2.4-2.4,2.4Z"/>
</svg>