<?xml version="1.0" encoding="UTF-8"?>
<svg id="Layer_1" xmlns="http://www.w3.org/2000/svg" version="1.1" width="18" height="18" viewBox="0 0 18 18">
  <!-- Generator: Adobe Illustrator 30.4.0, SVG Export Plug-In . SVG Version: 2.1.4 Build 226)  -->
  <path d="M17.04,2.97L12.88.26c-.61-.36-1.36-.35-1.95.03l-4.94,2.65s-.07.02-.1,0L2.97.94c-.6-.38-1.38-.39-1.99-.04C.37,1.25,0,1.89,0,2.61v10.76C0,14.05.34,14.67.91,15.03l4.03,2.67c.3.19.65.29,1,.29h0c.35,0,.7-.1,1-.29l4.94-2.65s.07-.02.1,0l3.16,2.12c.6.35,1.31.35,1.91,0,.6-.35.95-.99.95-1.69V4.67c0-.7-.37-1.35-.96-1.7ZM16.04,15.56l-3.16-2.12c-.61-.36-1.36-.35-1.95.03l-3.93,2.13v-7.82c0-.51-.5-.99-1-.99s-1,.48-1,.99v7.78l-3.15-2.12s-.05-.05-.05-.09V2.61s0-.06.05-.09c0,0,.03-.01.05-.01,0,0,.03,0,.05.02l2.98,2.01c.62.39,1.39.39,2.01,0l4.07-2.1v7.48c0,.51.5.99,1,.99s1-.48,1-.99V2.36l3.14,2.22s.05.05.05.09v10.8s0,.06-.05.09c-.05.03-.09,0-.1,0Z"/>
</svg>