<?xml version="1.0" encoding="UTF-8"?>
<svg id="Layer_1" xmlns="http://www.w3.org/2000/svg" version="1.1" viewBox="0 0 16 16" width="16" height="16">
  <!-- Generator: Adobe Illustrator 30.4.0, SVG Export Plug-In . SVG Version: 2.1.4 Build 226)  -->
  <defs>
    <style>
      .st0 {
        fill: #aaa;
        fill-rule: evenodd;
      }
    </style>
  </defs>
  <path class="st0" d="M15.82,13.93c.12.12.18.28.18.47,0,.11-.06.25-.18.43-.12.18-.27.36-.45.54-.18.18-.36.33-.54.45-.18.12-.32.19-.43.19-.19,0-.35-.06-.47-.19l-3.6-3.58c-.55.35-1.13.63-1.75.82-.62.19-1.26.29-1.91.29-.92,0-1.78-.17-2.59-.52-.81-.35-1.52-.83-2.13-1.43-.61-.61-1.09-1.31-1.44-2.12-.35-.81-.52-1.67-.52-2.58s.17-1.78.52-2.58c.35-.81.83-1.52,1.44-2.12.61-.61,1.32-1.09,2.12-1.44.8-.35,1.67-.52,2.59-.52s1.77.18,2.58.52c.8.35,1.51.83,2.13,1.44.61.61,1.09,1.32,1.44,2.12.35.81.52,1.67.52,2.58,0,.66-.1,1.3-.29,1.92-.19.63-.46,1.21-.82,1.75l3.59,3.59ZM2.02,6.66c0,.65.12,1.25.37,1.81.25.55.58,1.04.99,1.45.41.41.9.74,1.46.98.56.24,1.15.36,1.78.36s1.22-.12,1.78-.36c.56-.24,1.04-.57,1.46-.98.42-.41.74-.9.99-1.45.25-.56.37-1.16.37-1.81s-.12-1.22-.37-1.78c-.25-.56-.58-1.05-.99-1.47-.41-.42-.9-.75-1.46-.99-.56-.24-1.15-.37-1.78-.37s-1.22.12-1.78.37c-.56.24-1.05.57-1.46.99-.41.42-.74.91-.99,1.47-.25.56-.37,1.15-.37,1.78Z"/>
</svg>