<?xml version="1.0" encoding="UTF-8"?>
<svg id="Layer_1" xmlns="http://www.w3.org/2000/svg" version="1.1" width="18" height="18" viewBox="0 0 18 18">
  <!-- Generator: Adobe Illustrator 30.4.0, SVG Export Plug-In . SVG Version: 2.1.4 Build 226)  -->
  <defs>
    <style>
      .st0 {
        fill-rule: evenodd;
      }
    </style>
  </defs>
  <path class="st0" d="M14,0H4C1.79,0,0,1.79,0,4v10C0,16.21,1.79,18,4,18h10c2.21,0,4-1.79,4-4V4c0-2.21-1.79-4-4-4ZM16,14c0,1.1-.9,2-2,2H4c-1.1,0-2-.9-2-2V4c0-1.1.9-2,2-2h10c1.1,0,2,.9,2,2v10ZM7,4c-.55,0-1,.45-1,1v8c0,.55.45,1,1,1s1-.45,1-1V5c0-.55-.45-1-1-1Z"/>
</svg>