<?xml version="1.0" encoding="UTF-8"?>
<svg xmlns="http://www.w3.org/2000/svg" version="1.1" viewBox="0 0 64 64">
  <!-- Generator: Adobe Illustrator 30.2.1, SVG Export Plug-In . SVG Version: 2.1.1 Build 1)  -->
  <defs>
    <style>
      .st0 {
        fill: #ede7e4;
        fill-rule: evenodd;
      }
    </style>
  </defs>
  <g id="Layer_2">
    <path class="st0" d="M16.9,0h30.1c9.4,0,16.9,7.6,16.9,16.9v30.1c0,9.4-7.6,16.9-16.9,16.9h-30.1c-9.4,0-16.9-7.6-16.9-16.9v-30.1C0,7.6,7.6,0,16.9,0Z"/>
  </g>
  <g id="Layer_3">
    <path d="M43.5,17.7c0-1-.8-1.8-1.8-1.8h-15.3c-3,0-4.9,2.4-4.9,5.4v24.9c0,1,.8,1.8,1.8,1.8h6.5c1,0,1.8-.8,1.8-1.8v-19.5c0-1,.8-1.8,1.8-1.8h8.5c1,0,1.8-.8,1.8-1.8v-5.5Z"/>
    <path d="M34.7,37h7.5c.7,0,1.2-.6,1.2-1.2v-7.5c0-1.1-1.4-1.7-2.1-.8l-7.5,7.5c-.7.8-.2,2.1.9,2.1Z"/>
  </g>
</svg>