<?xml version="1.0" encoding="UTF-8"?>
<svg id="Volume-Level-High--Streamline-Core" xmlns="http://www.w3.org/2000/svg" version="1.1" viewBox="0 0 18 18">
  <!-- Generator: Adobe Illustrator 30.2.1, SVG Export Plug-In . SVG Version: 2.1.1 Build 1)  -->
  <defs>
    <style>
      .st0 {
        fill-rule: evenodd;
      }
    </style>
  </defs>
  <g id="volume-level-high--speaker-high-volume-control-audio-music-entertainment">
    <path id="Union" class="st0" d="M8,1.4c1.3-.9,3,0,2.9,1.6v12h0c0,1.6-1.8,2.5-3.1,1.6,0,0,0,0,0,0l-4.2-4.2h-1.7c-1.1,0-1.9-.9-1.9-2v-2.7c0-1.1.9-2,1.9-2h1.7L7.9,1.4s0,0,0,0Z"/>
  </g>
  <g id="volume-mute--speaker-remove-volume-control-audio-music-mute-off-cross-entertainment">
    <path id="Union1" data-name="Union" class="st0" d="M17.7,6.7c.4.4.4,1,0,1.4l-.9.9.9.9c.4.4.4,1,0,1.4s-1,.4-1.4,0l-.9-.9-.9.9c-.4.4-1,.4-1.4,0-.4-.4-.4-1,0-1.4l.9-.9-.9-.9c-.4-.4-.4-1,0-1.4.4-.4,1-.4,1.4,0l.9.9.9-.9c.4-.4,1-.4,1.4,0Z"/>
  </g>
</svg>