<?xml version="1.0" encoding="UTF-8"?>
<svg id="Volume-Level-High--Streamline-Core" xmlns="http://www.w3.org/2000/svg" version="1.1" viewBox="0 0 18 18">
  <!-- Generator: Adobe Illustrator 30.2.1, SVG Export Plug-In . SVG Version: 2.1.1 Build 1)  -->
  <defs>
    <style>
      .st0 {
        fill-rule: evenodd;
      }
    </style>
  </defs>
  <g id="volume-level-high--speaker-high-volume-control-audio-music-entertainment">
    <path id="Union" class="st0" d="M8,1.4c1.3-.9,3,0,2.9,1.6v12h0c0,1.6-1.8,2.5-3.1,1.6,0,0,0,0,0,0l-4.2-4.2h-1.7c-1.1,0-1.9-.9-1.9-2v-2.7c0-1.1.9-2,1.9-2h1.7L7.9,1.4s0,0,0,0ZM16.6,4.1c-.3-.5-.9-.6-1.3-.3-.5.3-.6.9-.3,1.4.7,1.2,1.1,2.5,1.1,3.9,0,1.4-.4,2.7-1.1,3.9-.3.5-.1,1.1.3,1.4.5.3,1,.1,1.3-.3.9-1.5,1.3-3.2,1.4-4.9h0c0-1.8-.5-3.5-1.4-4.9ZM14.1,6.5c-.3-.4-.9-.5-1.4-.1-.4.4-.5,1-.1,1.4.3.3.4.8.4,1.2,0,0,0,0,0,0,0,.4-.1.9-.4,1.2-.3.4-.3,1.1.1,1.4.4.4,1,.3,1.4-.1.6-.7.9-1.6.8-2.5,0-.9-.3-1.8-.8-2.5Z"/>
  </g>
</svg>