<?xml version="1.0" encoding="UTF-8"?>
<svg id="Layer_1" xmlns="http://www.w3.org/2000/svg" version="1.1" viewBox="0 0 20 20">
  <!-- Generator: Adobe Illustrator 30.2.1, SVG Export Plug-In . SVG Version: 2.1.1 Build 1)  -->
  <defs>
    <style>
      .st0 {
        fill: #231f20;
      }
    </style>
  </defs>
  <path class="st0" d="M10,1c.4,0,.7.2.9.5h0s2.1,4.8,2.1,4.8c.2.5.7.8,1.3.8h3.9c.4,0,.7.2.8.5.1.4,0,.8-.2,1l-3.4,3c-.5.4-.6,1-.4,1.6l1.9,4.3c.2.4,0,.8-.3,1.1-.2.2-.4.3-.7.3s-.3,0-.5-.1l-4.8-2.7c-.2-.1-.4-.2-.7-.2s-.5,0-.7.2l-4.8,2.7c-.1,0-.3.1-.5.1-.2,0-.5,0-.7-.3-.3-.3-.4-.7-.2-1.1l1.9-4.3c.2-.5,0-1.2-.3-1.6l-3.4-3c-.3-.3-.4-.7-.2-1,.1-.3.5-.6.9-.6,0,0,0,0,0,0h3.8c.6,0,1-.3,1.3-.8l2.1-4.8c0-.2.2-.3.4-.4.1,0,.3-.1.5-.1h0M10,0c-.3,0-.6,0-.9.2-.4.2-.7.5-.9.9h0s-2.1,4.8-2.1,4.8c0,.1-.2.2-.4.2H1.9s0,0,0,0c-.8,0-1.5.5-1.8,1.2-.3.7-.1,1.6.5,2.1l3.4,3c.1.1.2.3,0,.4l-1.9,4.3c-.3.8-.1,1.7.5,2.2.4.3.8.5,1.3.5s.7,0,1-.3l4.8-2.7c0,0,.1,0,.2,0s.1,0,.2,0l4.8,2.7c.3.2.6.3,1,.3.5,0,1-.2,1.3-.5.6-.6.8-1.5.5-2.2l-1.9-4.3c0-.2,0-.3,0-.4l3.4-3c.6-.5.8-1.4.5-2.1-.3-.7-1-1.2-1.8-1.2s0,0,0,0h-3.8s0,0,0,0c-.2,0-.3,0-.4-.2l-2.1-4.8h0C11.4.4,10.7,0,10,0h0Z"/>
</svg>