<svg xmlns="http://www.w3.org/2000/svg" fill="none" viewBox="0 0 18 18" id="Template-Theme-Design-Layout--Streamline-Flex" height="18" width="18">
  <desc>
    Template Theme Design Layout Streamline Icon: https://streamlinehq.com
  </desc>
  <g id="template-theme-design-layout--template-theme-design-layout-web-page-style">
    <path id="Union" fill="#000000" fill-rule="evenodd" d="M15.547114285714287 0.43471928571428575c-4.348491428571429 -0.1510547142857143 -8.655775714285715 -0.1510547142857143 -13.004254285714287 0C1.7096014285714287 0.4636645714285715 0.9826431428571429 1.016748 0.7163138571428572 1.7959242857142859c-0.4063962857142857 1.188977142857143 -0.4063962857142857 2.2074942857142856 0.00000128571428571429 3.396471428571429 0.266328 0.7791814285714286 0.9932862857142858 1.332257142857143 1.8265577142857143 1.3612114285714287 4.348465714285715 0.1510457142857143 8.65575 0.1510457142857143 13.00424142857143 0 0.8332714285714287 -0.028954285714285714 1.5602142857142858 -0.58203 1.8264857142857145 -1.3612114285714287 0.40641428571428573 -1.188977142857143 0.40641428571428573 -2.2074942857142856 0 -3.396471428571429 -0.2662714285714286 -0.7791750000000001 -0.9932142857142857 -1.3322597142857144 -1.8264857142857145 -1.3612050000000002ZM10.157952857142858 9.565007142857143c0 -0.5325557142857144 0.43173 -0.9642857142857144 0.9642857142857144 -0.9642857142857144h5.591918571428572c0.5325428571428572 0 0.9642857142857144 0.43173 0.9642857142857144 0.9642857142857144 0 0.5325685714285714 -0.43174285714285715 0.9642857142857144 -0.9642857142857144 0.9642857142857144H11.122238571428571c-0.5325557142857144 0 -0.9642857142857144 -0.4317171428571429 -0.9642857142857144 -0.9642857142857144Zm0 3.5747357142857146c0 -0.5325814285714285 0.43173 -0.9643114285714287 0.9642857142857144 -0.9643114285714287h5.591918571428572c0.5325428571428572 0 0.9642857142857144 0.43173 0.9642857142857144 0.9643114285714287 0 0.5325428571428572 -0.43174285714285715 0.9642857142857144 -0.9642857142857144 0.9642857142857144H11.122238571428571c-0.5325557142857144 0 -0.9642857142857144 -0.43174285714285715 -0.9642857142857144 -0.9642857142857144Zm0.9642857142857144 2.6103857142857145c-0.5325557142857144 0 -0.9642857142857144 0.43174285714285715 -0.9642857142857144 0.9642857142857144s0.43173 0.9642857142857144 0.9642857142857144 0.9642857142857144h5.591918571428572c0.5325428571428572 0 0.9642857142857144 -0.43174285714285715 0.9642857142857144 -0.9642857142857144s-0.43174285714285715 -0.9642857142857144 -0.9642857142857144 -0.9642857142857144H11.122238571428571ZM6.0460842857142865 8.07134142857143c-1.2953828571428572 -0.1881257142857143 -2.52 -0.1881257142857143 -3.815382857142857 0 -0.9236957142857144 0.1341514285714286 -1.6972315714285715 0.8520685714285715 -1.7798824285714285 1.7980842857142858 -0.1725197142857143 1.9746642857142858 -0.172521 3.8951742857142864 0 5.8697742857142865 0.08264957142857145 0.9460285714285716 0.8561867142857144 1.6639714285714287 1.7798824285714285 1.7980714285714288 1.2953828571428572 0.18822857142857144 2.52 0.18822857142857144 3.815382857142857 0 0.9236957142857144 -0.13410000000000002 1.6972328571428574 -0.8520428571428571 1.7798785714285714 -1.7980714285714288 0.17253000000000002 -1.9746000000000001 0.17253000000000002 -3.8951100000000003 0 -5.8697742857142865 -0.0826457142857143 -0.9460157142857144 -0.8561828571428571 -1.6639328571428573 -1.7798785714285714 -1.7980842857142858Z" clip-rule="evenodd" stroke-width="1.2857"></path>
  </g>
</svg>