<?xml version="1.0" encoding="UTF-8"?>
<svg id="Layer_1" xmlns="http://www.w3.org/2000/svg" version="1.1" viewBox="0 0 24 24">
  <!-- Generator: Adobe Illustrator 30.2.1, SVG Export Plug-In . SVG Version: 2.1.1 Build 1)  -->
  <path d="M12,0C5.4,0,0,5.4,0,12s5.4,12,12,12,12-5.4,12-12S18.6,0,12,0ZM13.5,16.7c0,1.2-1.4,1.9-2.4,1.2l-3.3-3.3h-1.3c-.9,0-1.5-.7-1.5-1.6v-2.1c0-.9.7-1.6,1.5-1.6h1.3l3.3-3.3h0c1-.7,2.3,0,2.3,1.2v9.3ZM18.8,12.7c.3.3.3.8,0,1.1s-.8.3-1.1,0l-.7-.7-.7.7c-.3.3-.8.3-1.1,0s-.3-.8,0-1.1l.7-.7-.7-.7c-.3-.3-.3-.8,0-1.1s.8-.3,1.1,0l.7.7.7-.7c.3-.3.8-.3,1.1,0s.3.8,0,1.1l-.7.7.7.7Z"/>
</svg>